<ttFont>
<head>
        <!-- Most of this table will be recalculated by the compiler -->
        <tableVersion value="1.0"/>
        <fontRevision value="1.002"/>
        <checkSumAdjustment value="0x37852835"/>
        <magicNumber value="0x5f0f3cf5"/>
        <flags value="00000000 00000011"/>
        <unitsPerEm value="1000"/>
        <created value="Fri Jan 15 17:54:20 2016"/>
        <modified value="Fri Jan 15 22:54:21 2016"/>
        <xMin value="-1766"/>
        <yMin value="-416"/>
        <xMax value="790"/>
        <yMax value="1249"/>
        <macStyle value="00000000 00000010"/>
        <lowestRecPPEM value="3"/>
        <fontDirectionHint value="2"/>
        <indexToLocFormat value="0"/>
        <glyphDataFormat value="0"/>
    </head>
                    <CharString index="0">
                        rmoveto
-100 callgsubr
-182 156 -95 285 146 vhcurveto
-136 432 -80 callgsubr
                    </CharString>
                    <CharString index="1">
                        rmoveto
142 -77 77 -117 -30 callgsubr
-142 77 -76 117 -31 callsubr
vhcurveto
-411 -116 rmoveto
148 83 128 121 87 49 -64 -107 -150 -84 -125 -120 -87 -49 63 107 vhcurveto
endchar
                    </CharString>
                    <CharString index="2">
                        rmoveto
128 88 80 157 31 hvcurveto
91 467 rlineto
-57 callsubr
-67 callgsubr
rlineto
-164 -32 71 -87 141 hhcurveto
endchar
                    </CharString>
                    <CharString index="3">
                        rmoveto
54 -50 51 -157 27 vhcurveto
29 119 rlineto
205 hlineto
15 50 rlineto
-261 hlineto
-51 -206 rlineto
162 -24 51 -37 -41 vvcurveto
-46 -59 -48 -203 18 vhcurveto
return
                    </CharString>
                    <CharString index="4">
                        rmoveto
-15 39 9 callgsubr
rlinecurve
-81 callsubr
-14 callsubr
-64 callsubr
return
                    </CharString>
                    <CharString index="5">
                        rmoveto
95 74 62 93 -1 callsubr
hvcurveto
-58 callgsubr
-78 callgsubr
                    </CharString>
                    <CharString index="6">
                        rmoveto
-98 callgsubr
401 hlineto
endchar
                    </CharString>
                    <CharString index="7">
                        -37 callgsubr
hintmask 10101100
-75 callsubr
hintmask 10011100
-84 callsubr
hintmask 01011100
-39 callgsubr
                    </CharString>
                    <CharString index="8">
                        12 50 rlineto
-128 hlineto
81 408 -58 -5 -13 -68 -143 -18 -7 -44 139 10 -55 -283 rlineto
-140 hlineto
-10 -50 rlineto
return
                    </CharString>
                    <CharString index="9">
                        rmoveto
49 39 -149 167 rlineto
-3 hlineto
-223 -163 32 -38 179 129 rlineto
return
                    </CharString>
                    <CharString index="10">
                        11 51 rlineto
-234 hlineto
171 107 97 75 94 vvcurveto
89 -89 46 -180 -27 vhcurveto
-8 -53 97 callsubr
23 56 -33 -58 vvcurveto
-79 -109 -74 -185 -114 vhcurveto
1 -47 rlineto
return
                    </CharString>
                    <CharString index="11">
                        rmoveto
-99 callsubr
return
                    </CharString>
                    <CharString index="12">
                        81 hlineto
43 130 76 262 71 296 rrcurveto
-70 hlineto
-41 -174 -85 -337 -26 -86 rrcurveto
-4 hlineto
-29 395 rlineto
-47 hlineto
-182 -395 rlineto
-4 hlineto
7 86 45 337 27 174 rrcurveto
-71 hlineto
-44 -295 -27 -263 -6 -130 rrcurveto
81 hlineto
176 379 rlineto
endchar
                    </CharString>
                    <CharString index="13">
                        -68 630 -92 callgsubr
                    </CharString>
                    <CharString index="14">
                        rmoveto
-88 -64 -55 -68 -62 56 -47 81 89 64 54 69 62 -57 47 -81 hvcurveto
-5 -46 rmoveto
52 37 -30 -38 -40 -39 -33 -54 -52 -36 30 39 40 39 32 53 hvcurveto
return
                    </CharString>
                    <CharString index="15">
                        rmoveto
hintmask 00111100
-59 callgsubr
hintmask 01011100
-89 callsubr
hintmask 10011100
-12 callgsubr
hintmask 00111100
-94 callsubr
                    </CharString>
                    <CharString index="16">
                        rmoveto
-10 40 -227 -63 -35 23 26 102 rlinecurve
102 389 -51 callsubr
-41 -152 93 -46 264 106 rlinecurve
endchar
                    </CharString>
                    <CharString index="17">
                        rmoveto
-61 callgsubr
-69 callgsubr
return
                    </CharString>
                    <CharString index="18">
                        -118 -230 -115 -231 -108 -230 rrcurveto
73 hlineto
34 73 35 74 36 74 rrcurveto
247 hlineto
return
                    </CharString>
                    <CharString index="19">
                        rmoveto
-60 50 -84 89 -50 65 -53 -56 rcurveline
60 -61 101 -77 66 -40 rrcurveto
return
                    </CharString>
                    <CharString index="20">
                        -86 callgsubr
-8 -54 rlineto
-12 callsubr
endchar
                    </CharString>
                    <CharString index="21">
                        -37 -157 -37 -139 -42 -149 rrcurveto
-5 hlineto
-47 313 rlineto
-46 hlineto
-166 -312 rlineto
-3 hlineto
15 146 16 140 22 158 rrcurveto
-70 hlineto
-27 -200 -16 -203 -5 -135 rrcurveto
70 hlineto
167 310 rlineto
endchar
                    </CharString>
                    <CharString index="22">
                        rmoveto
-110 55 -62 85 122 95 135 151 111 -56 62 -85 -122 -94 -136 -151 vhcurveto
299 109 rmoveto
-117 -61 -114 -89 -56 -35 44 84 116 60 115 89 57 35 -45 -83 vhcurveto
endchar
                    </CharString>
                    <CharString index="23">
                        -77 callgsubr
66 67 46 87 77 hvcurveto
return
                    </CharString>
                    <CharString index="24">
                        rmoveto
49 -45 45 -130 29 vhcurveto
210 143 6 50 rlineto
-283 hlineto
-10 -50 rlineto
220 hlineto
return
                    </CharString>
                    <CharString index="25">
                        -62 callgsubr
300 -490 -104 callgsubr
return
                    </CharString>
                    <CharString index="26">
                        269 193 104 173 78 callsubr
-37 41 -63 -151 -193 -294 -300 vhcurveto
-6 vlineto
-23 -16 -34 -23 -14 -8 21 -34 rcurveline
9 6 24 15 20 13 return
                    </CharString>
                    <CharString index="27">
                        -62 callgsubr
311 -458 -102 callgsubr
                    </CharString>
                    <CharString index="28">
                        rmoveto
66 57 81 84 47 59 -71 38 rcurveline
-36 -62 -65 -92 -53 -59 rrcurveto
262 -25 rmoveto
66 56 80 83 46 60 -72 35 rcurveline
-37 -63 -61 -87 -54 -59 rrcurveto
return
                    </CharString>
                    <CharString index="29">
                        rmoveto
-20 callsubr
-32 callsubr
rlineto
343 -74 131 103 111 -38 callgsubr
return
                    </CharString>
                    <CharString index="30">
                        513 472 -96 callsubr
return
                    </CharString>
                    <CharString index="31">
                        rmoveto
25 callgsubr
-231 158 -86 265 96 hvcurveto
7 68 rlineto
-68 callgsubr
endchar
                    </CharString>
                    <CharString index="32">
                        -42 callgsubr
-52 callsubr
return
                    </CharString>
                    <CharString index="33">
                        rmoveto
27 54 -14 93 136 vvcurveto
16 0 15 2 14 vhcurveto
52 108 42 151 36 vvcurveto
15 -28 10 -21 -28 -66 -182 -146 -11 vhcurveto
-77 -65 -78 -52 -53 hhcurveto
return
                    </CharString>
                    <CharString index="34">
                        -3 callsubr
-79 -34 -84 -21 -67 -7 rlinecurve
-65 callsubr
22 callgsubr
endchar
                    </CharString>
                    <CharString index="35">
                        30 callgsubr
-63 callsubr
return
                    </CharString>
                    <CharString index="36">
                        -21 callsubr
hintmask 10110000
-86 callsubr
                    </CharString>
                    <CharString index="37">
                        -4 -27 rlineto
143 -28 48 -37 -37 vvcurveto
-40 -51 -42 -210 21 vhcurveto
return
                    </CharString>
                    <CharString index="38">
                        -93 callsubr
hintmask 1001111110000000
17 -946 rmoveto
hintmask 0011111110000000
-59 callgsubr
hintmask 0101111110000000
-89 callsubr
hintmask 1001111110000000
-12 callgsubr
hintmask 0011111110000000
-94 callsubr
                    </CharString>
                    <CharString index="39">
                        -60 callgsubr
-13 callgsubr
return
                    </CharString>
                    <CharString index="40">
                        -85 callgsubr
hintmask 01111110
-8 -70 rlineto
hintmask 10111110
18 callsubr
                    </CharString>
                    <CharString index="41">
                        rmoveto
191 94 193 135 42 35 -19 -38 23 vhcurveto
-318 -425 rlineto
-7 27 -4 33 38 vvcurveto
133 -208 rmoveto
-45 -34 20 39 -23 hvcurveto
319 426 rlineto
8 -28 4 -33 -39 vvcurveto
-192 -95 -193 -134 vhcurveto
-12 -63 rmoveto
185 130 227 225 hvcurveto
hintmask 10011100
67 -11 54 -20 41 vhcurveto
74 96 rlineto
hintmask 01101100
-43 30 -61 -79 rlineto
38 -34 -46 19 -54 hhcurveto
-183 -132 -226 -226 -66 11 -54 19 -41 hvcurveto
-73 -97 rlineto
hintmask 10101100
44 -30 60 79 rlineto
-38 34 45 -19 55 hhcurveto
endchar
                    </CharString>
                    <CharString index="42">
                        5 18 3 16 14 vvcurveto
28 -14 14 -22 -46 -49 -56 -40 -24 18 -14 30 -8 vhcurveto
-31 -73 -49 -71 -68 -83 30 -26 rcurveline
68 75 65 94 37 79 rrcurveto
55 70 12 22 69 hvcurveto
return
                    </CharString>
                    <CharString index="43">
                        -40 104 callgsubr
34 22 -24 -45 -97 -80 -146 -226 -173 hvcurveto
251 9 141 234 100 hhcurveto
return
                    </CharString>
                    <CharString index="44">
                        -9 36 -111 -45 -7 22 80 callgsubr
77 390 rlineto
return
                    </CharString>
                    <CharString index="45">
                        rmoveto
44 146 -80 -2 -35 -146 rlineto
return
                    </CharString>
                    <CharString index="46">
                        rmoveto
hintmask 00111000
-34 callgsubr
hintmask 01011000
-48 callsubr
endchar
                    </CharString>
                    <CharString index="47">
                        7 40 7 53 4 25 -68 -5 rcurveline
-25 -160 -24 -120 -50 -257 rrcurveto
69 hlineto
19 97 40 198 12 72 rrcurveto
return
                    </CharString>
                    <CharString index="48">
                        rmoveto
-9 38 -239 -88 -39 46 30 130 rlinecurve
67 299 rlineto
217 hlineto
10 55 rlineto
-214 hlineto
35 157 -54 -3 -80 -154 rlineto
-71 hlineto
-15 -55 rlineto
103 hlineto
-68 -303 -40 -174 87 -88 280 140 rlinecurve
return
                    </CharString>
                    <CharString index="49">
                        -104 callgsubr
hintmask 11101000
-47 callsubr
hintmask 11011000
28 callsubr
hintmask 11101000
-82 callgsubr
                    </CharString>
                    <CharString index="50">
                        -73 hlineto
-91 -468 87 callsubr
-22 -56 -54 -87 hhcurveto
return
                    </CharString>
                    <CharString index="51">
                        48 265 rmoveto
56 40 43 66 56 51 -32 -85 -8 0 -8 -1 -8 vhcurveto
-103 -81 -109 36 87 vvcurveto
endchar
                    </CharString>
                    <CharString index="52">
                        35 callgsubr
323 53 259 84 callsubr
hintmask 10111000
62 callsubr
-60 -310 rlineto
-83 hlineto
-11 -53 rlineto
84 hlineto
hintmask 01111000
-63 -323 rlineto
hintmask 10111000
23 callgsubr
-232 -101 rmoveto
13 53 rlineto
-159 hlineto
50 256 36 callsubr
22 callsubr
51 266 rlineto
endchar
                    </CharString>
                    <CharString index="53">
                        55 52 56 95 55 hvcurveto
-38 21 rlineto
-66 -41 -36 -51 -33 hhcurveto
return
                    </CharString>
                    <CharString index="54">
                        -101 callgsubr
hintmask 01011110
-72 callsubr
hintmask 10101110
-88 callgsubr
hintmask 01011110
-43 callsubr
                    </CharString>
                    <CharString index="55">
                        -88 -78 -59 -44 -53 hhcurveto
-52 -25 40 105 24 hvcurveto
return
                    </CharString>
                    <CharString index="56">
                        -63 2 -228 -58 4 -39 203 32 -88 -336 return
                    </CharString>
                    <CharString index="57">
                        rmoveto
-52 -41 40 82 138 91 143 122 32 43 -11 -22 44 hvcurveto
-26 -65 -25 -88 -11 -80 rrcurveto
-88 -53 -65 -49 -59 hhcurveto
return
                    </CharString>
                    <CharString index="58">
                        rmoveto
9 hlineto
-70 -360 rlineto
-127 hlineto
62 119 63 120 63 121 rrcurveto
-113 -627 rmoveto
255 hlineto
17 62 rlineto
-193 hlineto
51 260 rlineto
160 hlineto
11 54 rlineto
-161 hlineto
49 251 rlineto
190 hlineto
12 61 rlineto
-309 hlineto
-126 -229 -124 -232 -121 -227 rrcurveto
75 hlineto
37 70 37 71 37 71 rrcurveto
144 hlineto
endchar
                    </CharString>
                    <CharString index="59">
                        -132 104 callsubr
72 hlineto
121 629 rlineto
168 18 81 -43 -81 vvcurveto
-82 -71 -58 -166 -73 vhcurveto
-1 -3 rlineto
return
                    </CharString>
                    <CharString index="60">
                        -112 -66 -24 -39 -42 vvcurveto
-58 58 -40 85 vhcurveto
return
                    </CharString>
                    <CharString index="61">
                        rmoveto
44 146 -81 -2 -35 -145 rlineto
return
                    </CharString>
                    <CharString index="62">
                        17 62 -361 -2 434 420 11 59 rlineto
-422 hlineto
-17 -62 347 2 -433 -419 -11 -60 rlineto
endchar
                    </CharString>
                    <CharString index="63">
                        rmoveto
6 -82 -1 -76 -66 -102 31 -15 rcurveline
85 99 28 91 2 89 rrcurveto
return
                    </CharString>
                    <CharString index="64">
                        -15 -113 41 -47 156 92 rrcurveto
endchar
                    </CharString>
                    <CharString index="65">
                        -21 callgsubr
310 -473 -87 callsubr
                    </CharString>
                    <CharString index="66">
                        -21 230 -25 229 -27 229 return
                    </CharString>
                    <CharString index="67">
                        -72 callgsubr
hintmask 01111100
2 callgsubr
endchar
                    </CharString>
                    <CharString index="68">
                        14 63 rlineto
-348 hlineto
120 625 79 callsubr
38 callsubr
return
                    </CharString>
                    <CharString index="69">
                        rmoveto
227 62 77 128 116 vvcurveto
105 -69 50 -85 -95 -74 -62 -92 return
                    </CharString>
                    <CharString index="70">
                        630 98 callgsubr
-24 -20 hstemhm
88 456 hintmask 10110000
396 685 rmoveto
hintmask 11010000
-76 callgsubr
hintmask 10110000
-54 callsubr
endchar
                    </CharString>
                    <CharString index="71">
                        29 callsubr
437 60 0 -20 return
                    </CharString>
                    <CharString index="72">
                        -287 -93 callgsubr
                    </CharString>
                    <CharString index="73">
                        650 -107 callgsubr
return
                    </CharString>
                    <CharString index="74">
                        -22 callsubr
-82 -43 -84 -81 vhcurveto
return
                    </CharString>
                    <CharString index="75">
                        -161 289 -71 -121 vvcurveto
-74 -95 -59 -290 73 vhcurveto
-16 -72 return
                    </CharString>
                    <CharString index="76">
                        160 128 151 194 return
                    </CharString>
                    <CharString index="77">
                        -11 callsubr
65 callsubr
hintmask 10101110
return
                    </CharString>
                    <CharString index="78">
                        -12 66 -63 61 487 -20 23 -20 return
                    </CharString>
                    <CharString index="79">
                        76 36 36 45 40 hhcurveto
41 28 -44 -109 -7 hvcurveto
return
                    </CharString>
                    <CharString index="80">
                        145.5 return
                    </CharString>
                    <CharString index="81">
                        rmoveto
-46 -37 42 88 157 94 150 119 28 41 -7 -13 44 hvcurveto
-61 -314 rlineto
-57 -54 -75 -46 -53 hhcurveto
return
                    </CharString>
                    <CharString index="82">
                        123 4 -44 53 -99 hhcurveto
-171 -149 -171 -187 return
                    </CharString>
                    <CharString index="83">
                        619 238 hstem
152 454 vstem
183 619 -79 callsubr
endchar
                    </CharString>
                    <CharString index="84">
                        886 -44 callsubr
return
                    </CharString>
                    <CharString index="85">
                        67 77 194 109 vvcurveto
56 -26 45 -68 -69 return
                    </CharString>
                    <CharString index="86">
                        65 hlineto
68 189 53 167 49 182 rrcurveto
-74 hlineto
return
                    </CharString>
                    <CharString index="87">
                        121 -17 -58 66 -111 hhcurveto
-135 -98 -96 -103 hvcurveto
return
                    </CharString>
                    <CharString index="88">
                        27 callgsubr
-27 callsubr
return
                    </CharString>
                    <CharString index="89">
                        0 63 258 55 250 62 return
                    </CharString>
                    <CharString index="90">
                        688 -20 111 93 callsubr
149 376 hintmask 10110000
302 616 rmoveto
hintmask 11010000
-61 callgsubr
rlineto
hintmask 10110000
-69 callgsubr
endchar
                    </CharString>
                    <CharString index="91">
                        -170 -21 151 53 hstem
335 64 vstem
161 -161 rmoveto
-28 callsubr
64 2 rlineto
141 9 -55 63 -72 hhcurveto
-61 -52 -51 -110 -46 hvcurveto
endchar
                    </CharString>
                    <CharString index="92">
                        rmoveto
-298 -198 -120 -171 -184 vvcurveto
-137 69 -148 167 -179 vhcurveto
54 41 rlineto
-157 163 -65 135 125 vvcurveto
167 100 153 288 182 vhcurveto
endchar
                    </CharString>
                    <CharString index="93">
                        22 -172 132 -15 204 123 rrcurveto
return
                    </CharString>
                    <CharString index="94">
                        rmoveto
-4 callgsubr
20 37 vvcurveto
return
                    </CharString>
                    <CharString index="95">
                        250 -23 76 76 69 vvcurveto
return
                    </CharString>
                    <CharString index="96">
                        -193 68 -65 65 153 64 448 -20 29 -20 return
                    </CharString>
                    <CharString index="97">
                        -160 568 -83 -3 -133 -687 rlineto
68 hlineto
return
                    </CharString>
                    <CharString index="98">
                        hlineto
-2 callgsubr
return
                    </CharString>
                    <CharString index="99">
                        627 58 hstem
125 400 vstem
484 812 -103 callgsubr
endchar
                    </CharString>
                    <CharString index="100">
                        vstem
500 hmoveto
-39 callsubr
return
                    </CharString>
                    <CharString index="101">
                        28 callgsubr
0 callsubr
return
                    </CharString>
                    <CharString index="102">
                        29 callgsubr
1 callgsubr
return
                    </CharString>
                    <CharString index="103">
                        -18 callgsubr
19 callsubr
return
                    </CharString>
                    <CharString index="104">
                        rmoveto
-7 39 -174 -60 -37 39 195 479 rlinecurve
-33 21 return
                    </CharString>
                    <CharString index="105">
                        55 callgsubr
85 callgsubr
hintmask 10110000
return
                    </CharString>
                    <CharString index="106">
                        117 -141 46 -117 -93 return
                    </CharString>
                    <CharString index="107">
                        hstem
79 74 364 74 vstem
return
                    </CharString>
                    <CharString index="108">
                        781 -20 hstem
193 286 vstem
193 -34 callsubr
endchar
                    </CharString>
                    <CharString index="109">
                        254 -15 110 42 32 64 rrcurveto
endchar
                    </CharString>
                    <CharString index="110">
                        -302 225 hstem
269 87 vstem
218 -35 callsubr
                    </CharString>
                    <CharString index="111">
                        -18 callsubr
hstem
78 return
                    </CharString>
                    <CharString index="112">
                        hlineto
-12 -60 rlineto
return
                    </CharString>
                    <CharString index="113">
                        611 234 hstem
176 247 vstem
423 641 -88 callsubr
endchar
                    </CharString>
                    <CharString index="114">
                        611 279 hstem
320 85 vstem
320 -23 callsubr
endchar
                    </CharString>
                    <CharString index="115">
                        13 callgsubr
109 48 return
                    </CharString>
                    <CharString index="116">
                        -68 59 -25 127 79 vhcurveto
return
                    </CharString>
                    <CharString index="117">
                        80 12 -209 217 rlineto
169 85 66 82 72 vvcurveto
53 -36 36 -63 -71 -92 -46 -92 -89 vhcurveto
71 367 -70 -6 rlineto
return
                    </CharString>
                    <CharString index="118">
                        37 callgsubr
hstem
91 73 vstem
return
                    </CharString>
                    <CharString index="119">
                        -11 63 -31 -21 486 65 -9 -20 return
                    </CharString>
                    <CharString index="120">
                        hstemhm
96 71 233 71 return
                    </CharString>
                    <CharString index="121">
                        -192 66 -63 63 150 65 403 59 return
                    </CharString>
                    <CharString index="122">
                        rmoveto
34 hlineto
110 241 rlineto
4 hlineto
-59 -299 rlineto
50 hlineto
70 362 rlineto
-68 hlineto
-107 -236 rlineto
-3 hlineto
return
                    </CharString>
                    <CharString index="123">
                        -62 callsubr
hintmask 11101100
-75 callgsubr
330 return
                    </CharString>
                    <CharString index="124">
                        -52 callgsubr
66 59 callgsubr
hstemhm
289 55 181 54 hintmask 0011111110000000
return
                    </CharString>
                    <CharString index="125">
                        261 -16 118 41 32 65 rrcurveto
endchar
                    </CharString>
                    <CharString index="126">
                        hstem
27 callsubr
vstem
return
                    </CharString>
                    <CharString index="127">
                        rmoveto
-341 hlineto
-11 -57 rlineto
272 hlineto
-165 -851 rlineto
-272 16 callgsubr
340 hlineto
endchar
                    </CharString>
                    <CharString index="128">
                        30 callgsubr
-10 36 -111 -46 -8 23 17 89 rlinecurve
return
                    </CharString>
                    <CharString index="129">
                        -205 -119 -175 -248 21 vhcurveto
return
                    </CharString>
                    <CharString index="130">
                        23 115 rlineto
-105 56 callsubr
return
                    </CharString>
                    <CharString index="131">
                        rmoveto
217 -141 88 -248 -43 vhcurveto
return
                    </CharString>
                    <CharString index="132">
                        hstemhm
76 5 callgsubr
return
                    </CharString>
                    <CharString index="133">
                        88 callsubr
252 68 return
                    </CharString>
                    <CharString index="134">
                        82 68 335 68 return
                    </CharString>
                    <CharString index="135">
                        98 70 52 64 hvcurveto
return
                    </CharString>
                    <CharString index="136">
                        -11 66 -65 62 return
                    </CharString>
                    <CharString index="137">
                        -131 -162 -138 -159 -239 vhcurveto
46 9 rmoveto
200 112 147 134 108 81 return
                    </CharString>
                    <CharString index="138">
                        21 callsubr
126 639 -71 -6 -45 -232 rlineto
return
                    </CharString>
                    <CharString index="139">
                        41 callsubr
102 callgsubr
hintmask 01110000
return
                    </CharString>
                    <CharString index="140">
                        4 callsubr
537 vstem
return
                    </CharString>
                    <CharString index="141">
                        24 callgsubr
509 72 return
                    </CharString>
                    <CharString index="142">
                        rmoveto
45 callgsubr
45 callsubr
return
                    </CharString>
                    <CharString index="143">
                        rlineto
165 19 91 -68 -167 vvcurveto
return
                    </CharString>
                    <CharString index="144">
                        146.5 return
                    </CharString>
                    <CharString index="145">
                        -134 -688 rlineto
return
                    </CharString>
                    <CharString index="146">
                        rmoveto
238 246 17 74 -147 246 -59 -37 149 -242 -244 -242 rlineto
return
                    </CharString>
                    <CharString index="147">
                        -14 65 587 65 76 callsubr
return
                    </CharString>
                    <CharString index="148">
                        0 93 -72 -21 538 -20 return
                    </CharString>
                    <CharString index="149">
                        157 71 184 93 25 30 -9 -27 33 vhcurveto
-54 -76 -34 -111 -1 -108 rrcurveto
return
                    </CharString>
                    <CharString index="150">
                        39 -13 rcurveline
hintmask 10011110
-28 callsubr
endchar
                    </CharString>
                    <CharString index="151">
                        hmoveto
25 117 rlineto
-96 hlineto
-25 -117 rlineto
return
                    </CharString>
                    <CharString index="152">
                        0 -9 -7 -7 -9 -9 -7 6 48 callgsubr
return
                    </CharString>
                    <CharString index="153">
                        hstem
202 72 vstem
return
                    </CharString>
                    <CharString index="154">
                        -212 -144 return
                    </CharString>
                    <CharString index="155">
                        rmoveto
-28 15 rlineto
-76 -73 -34 -80 -72 vvcurveto
93 3 -13 63 3 66 55 78 rlinecurve
return
                    </CharString>
                    <CharString index="156">
                        -14 -109 44 -45 155 91 rrcurveto
endchar
                    </CharString>
                    <CharString index="157">
                        hhcurveto
47 37 -42 -89 -158 -94 -149 -123 hvcurveto
-166 -238 rmoveto
return
                    </CharString>
                    <CharString index="158">
                        39 callgsubr
46 callsubr
return
                    </CharString>
                    <CharString index="159">
                        12 callsubr
66 callgsubr
hintmask 10101000
return
                    </CharString>
                    <CharString index="160">
                        -15 63 -34 -21 647 63 -8 -20 hstemhm
80 74 362 74 hintmask 10101100
return
                    </CharString>
                    <CharString index="161">
                        hintmask 000000000000000100000010000000000000000000000000
return
                    </CharString>
                    <CharString index="162">
                        -9 57 381 57 62 -20 return
                    </CharString>
                    <CharString index="163">
                        hlineto
-23 -115 rlineto
return
                    </CharString>
                    <CharString index="164">
                        -237 53 189 -21 171 50 return
                    </CharString>
                    <CharString index="165">
                        86 callsubr
hstem
152 71 return
                    </CharString>
                    <CharString index="166">
                        rmoveto
-21 callsubr
return
                    </CharString>
                    <CharString index="167">
                        -371 rmoveto
24 115 rlineto
-106 56 callsubr
endchar
                    </CharString>
                    <CharString index="168">
                        -131 -20 62 callgsubr
                    </CharString>
                    <CharString index="169">
                        583 424 24 callsubr
return
                    </CharString>
                    <CharString index="170">
                        -2 callgsubr
61 hlineto
126 635 rlineto
60 2 return
                    </CharString>
                    <CharString index="171">
                        -12 62 432 55 157 -20 return
                    </CharString>
                    <CharString index="172">
                        hstemhm
89 71 264 60 return
                    </CharString>
                    <CharString index="173">
                        50 359 50 hstem
return
                    </CharString>
                    <CharString index="174">
                        0 63 625 -20 return
                    </CharString>
                    <CharString index="175">
                        -20 22 -20 return
                    </CharString>
                    <CharString index="176">
                        178 -18 11 56 -177 19 36 181 -68 7 return
                    </CharString>
                    <CharString index="177">
                        35 callgsubr
27 -21 480 65 229 -20 hstemhm
return
                    </CharString>
                    <CharString index="178">
                        58 callsubr
306 67 return
                    </CharString>
                    <CharString index="179">
                        -6 2 -3 5 4 2 2 4 1 vhcurveto
5 hlineto
return
                    </CharString>
                    <CharString index="180">
                        46 vstem
56 282 rmoveto
-172 96 -102 130 return
                    </CharString>
                    <CharString index="181">
                        rmoveto
-435 hlineto
-11 -60 rlineto
436 hlineto
endchar
                    </CharString>
                    <CharString index="182">
                        hintmask 100000000000000000000000000000001000000000000000
return
                    </CharString>
                    <CharString index="183">
                        hstem
84 72 352 69 vstem
return
                    </CharString>
                    <CharString index="184">
                        0 63 562 63 hstem
36 return
                    </CharString>
                    <CharString index="185">
                        105 callsubr
70 return
                    </CharString>
                    <CharString index="186">
                        rlineto
-72 hlineto
return
                    </CharString>
                    <CharString index="187">
                        -174 -21 184 59 -29 -21 488 66 return
                    </CharString>
                    <CharString index="188">
                        172 60 188 59 hstem
76 496 vstem
return
                    </CharString>
                    <CharString index="189">
                        68 callgsubr
vstem
return
                    </CharString>
                    <CharString index="190">
                        0 91 597 -20 return
                    </CharString>
                    <CharString index="191">
                        61 hstemhm
511 72 return
                    </CharString>
                    <CharString index="192">
                        0 61 417 61 return
                    </CharString>
                    <CharString index="193">
                        -9 60 662 70 return
                    </CharString>
                    <CharString index="194">
                        rlineto
-117 return
                    </CharString>
                    <CharString index="195">
                        hstemhm
68 70 return
                    </CharString>
                    <CharString index="196">
                        35 callgsubr
26 -21 683 -20 hstemhm
return
                    </CharString>
                    <CharString index="197">
                        -75 85 -114 -176 -133 -220 return
                    </CharString>
                    <CharString index="198">
                        18 -117 -96 -49 -90 -5 -136 rlinecurve
return
                    </CharString>
                    <CharString index="199">
                        hstemhm
83 72 343 68 return
                    </CharString>
                    <CharString index="200">
                        -20 24 -20 hstemhm
return
                    </CharString>
                    <CharString index="201">
                        rlineto
166 return
                    </CharString>
                    <CharString index="202">
                        65 -24 68 -34 65 33 71 hintmask 10001100
return
                    </CharString>
                    <CharString index="203">
                        91 vvcurveto
95 -62 52 -143 -20 vhcurveto
return
                    </CharString>
                    <CharString index="204">
                        rlineto
159 return
                    </CharString>
                    <CharString index="205">
                        -230 53 return
                    </CharString>
                    <CharString index="206">
                        hstemhm
74 69 277 52 hintmask 10111110
return
                    </CharString>
                    <CharString index="207">
                        -133 104 callsubr
return
                    </CharString>
                    <CharString index="208">
                        161 131 return
                    </CharString>
                    <CharString index="209">
                        hstem
341 57 return
                    </CharString>
                    <CharString index="210">
                        68 callsubr
hstemhm
return
                    </CharString>
                    <CharString index="211">
                        -686 rlineto
return
                    </CharString>
                    <CharString index="212">
                        129 vvcurveto
return
                    </CharString>
                <CharString name=".notdef">
                    -107 -200 50 900 50 hstem
0.5 54 432 54 vstem
8 -200 rmoveto
540 hlineto
-15 1000 rlineto
-540 hlineto
77 -50 rmoveto
387 hlineto
-188 -390 rlineto
212 316 rmoveto
11 -752 -191 376 rlineto
-241 -376 rmoveto
-11 752 191 -376 rlineto
31 -60 rmoveto
200 -390 rlineto
-387 hlineto
endchar
                </CharString>
                <CharString name="A">
                    -1 callgsubr
517 hintmask 10011100
453 -3 -92 callsubr
                </CharString>
                <CharString name="AE">
                    72 callgsubr
680 vstem
392 627 -49 callsubr
                </CharString>
                <CharString name="AEacute">
                    72 callgsubr
700 vstem
404 -63 callgsubr
-12 -172 -49 callsubr
                </CharString>
                <CharString name="Aacute">
                    -1 callgsubr
569 hintmask 00111100
291 802 -107 callgsubr
hintmask 10011100
162 -805 -92 callsubr
                </CharString>
                <CharString name="Abreve">
                    -52 callgsubr
88 58 hstemhm
8 641 hintmask 00111110
608 964 -103 callgsubr
hintmask 10011110
-196 -940 -48 callgsubr
                </CharString>
                <CharString name="Acircumflex">
                    -1 callgsubr
603 hintmask 00111100
562 771 -98 callsubr
hintmask 10011100
6 -908 -92 callsubr
                </CharString>
                <CharString name="Adieresis">
                    -52 callgsubr
-25 callgsubr
8 599 hintmask 00111011
563 786 -62 callsubr
hintmask 10011101
-75 callgsubr
197 -785 rmoveto
hintmask 00111101
-59 callgsubr
hintmask 01011101
-89 callsubr
hintmask 10011101
-12 callgsubr
hintmask 00111101
-94 callsubr
                </CharString>
                <CharString name="Agrave">
                    -1 callgsubr
529 hintmask 00111100
537 793 -88 callsubr
hintmask 10011100
-64 -766 -92 callsubr
                </CharString>
                <CharString name="Amacron">
                    -52 callgsubr
138 60 hstemhm
8 610 hintmask 00111110
618 889 -50 callgsubr
hintmask 10011110
-153 -832 -48 callgsubr
                </CharString>
                <CharString name="Aogonek">
                    98 callsubr
198 -41 callgsubr
hstemhm
251 66 hintmask 10111100
492 -11 callgsubr
41 59 50 148 52 vhcurveto
1 hlineto
-41 callsubr
rrcurveto
-103 hlineto
hintmask 11011100
-89 callsubr
7 -69 6 -70 6 -69 -143 -59 -59 -61 1 -52 rrcurveto
hintmask 10111100
-65 83 56 callgsubr
-107 812 -92 callgsubr
                </CharString>
                <CharString name="Aring">
                    17 callsubr
441 989 -69 callsubr
                </CharString>
                <CharString name="Aringacute">
                    17 callsubr
361 1061 -107 callgsubr
80 -72 -69 callsubr
                </CharString>
                <CharString name="Atilde">
                    -52 callgsubr
91 98 callgsubr
hstemhm
8 655 hintmask 00111111
515 837 -84 callgsubr
hintmask 10011111
-62 -840 rmoveto
hintmask 00111111
-59 callgsubr
hintmask 01011111
-89 callsubr
hintmask 10011111
-12 callgsubr
hintmask 00111111
-94 callsubr
                </CharString>
                <CharString name="B">
                    -8 63 -34 -21 321 46 270 59 hstemhm
475 70 -36 70 hintmask 10111000
545 206 rmoveto
75 -63 57 -93 17 vhcurveto
hintmask 01110100
118 32 72 73 88 vvcurveto
102 -112 74 -265 -38 vhcurveto
100 callsubr
hintmask 10111000
350 -41 126 126 121 vvcurveto
hintmask 10110100
-36 325 rmoveto
-82 -87 -73 -210 -9 vhcurveto
52 266 rlineto
167 19 78 -47 -74 vvcurveto
hintmask 10111000
-34 -332 rmoveto
-88 -98 -74 -224 22 vhcurveto
50 262 rlineto
192 12 80 -55 -79 vvcurveto
endchar
                </CharString>
                <CharString name="C">
                    40 callsubr
427 703 -76 callsubr
                </CharString>
                <CharString name="Cacute">
                    40 callsubr
295 814 -107 callgsubr
132 -111 -76 callsubr
                </CharString>
                <CharString name="Ccaron">
                    40 callsubr
416 780 -90 callsubr
14 -77 -76 callsubr
                </CharString>
                <CharString name="Ccedilla">
                    -177 -21 151 98 -65 65 -54 54 587 65 hstemhm
84 72 171 64 117 69 hintmask 10101111
391 -198 rmoveto
6 96 -23 59 -38 29 50 2 58 13 63 23 7 68 rcurveline
-68 callgsubr
25 callgsubr
hvcurveto
hintmask 10011111
-133 52 -85 95 -30 vhcurveto
-43 -18 -39 -50 -35 -84 39 -13 rcurveline
hintmask 11001111
-28 callsubr
endchar
                </CharString>
                <CharString name="Cdotaccent">
                    -14 65 587 65 -19 callsubr
76 callsubr
450 796 -46 callsubr
49 -92 -76 callsubr
                </CharString>
                <CharString name="D">
                    35 callgsubr
635 84 callsubr
hintmask 10110000
583 424 -28 callgsubr
                </CharString>
                <CharString name="Dcaron">
                    35 callgsubr
635 84 callsubr
hintmask 01110000
427 774 -90 callsubr
hintmask 10110000
159 -350 -28 callgsubr
                </CharString>
                <CharString name="Dcroat">
                    -55 callsubr
                </CharString>
                <CharString name="E">
                    33 callsubr
495 63 -101 callsubr
                </CharString>
                <CharString name="Eacute">
                    33 callsubr
305 -63 callgsubr
190 -736 -101 callsubr
                </CharString>
                <CharString name="Ebreve">
                    -18 callsubr
88 58 hstem
78 585 vstem
622 961 -103 callgsubr
-168 -871 -101 callsubr
                </CharString>
                <CharString name="Ecaron">
                    4 callsubr
571 vstem
426 765 -90 callsubr
72 -702 -101 callsubr
                </CharString>
                <CharString name="Ecircumflex">
                    4 callsubr
547 vstem
576 -36 callgsubr
34 -839 -101 callsubr
                </CharString>
                <CharString name="Edieresis">
                    -18 callsubr
-25 callgsubr
78 543 hintmask 11101100
577 783 -62 callsubr
hintmask 11110100
-75 callgsubr
225 -716 -101 callsubr
                </CharString>
                <CharString name="Edotaccent">
                    -18 callsubr
-19 callsubr
hstem
78 537 vstem
460 781 -46 callsubr
107 -717 -101 callsubr
                </CharString>
                <CharString name="Egrave">
                    33 callsubr
551 -23 callgsubr
-36 -697 -101 callsubr
                </CharString>
                <CharString name="Emacron">
                    -18 callsubr
138 60 hstem
78 554 vstem
632 886 -50 callgsubr
-125 -763 -101 callsubr
                </CharString>
                <CharString name="Eogonek">
                    -231 53 178 63 258 55 250 62 hstem
205 66 vstem
446 -186 rmoveto
54 callgsubr
16 63 rlineto
-98 callgsubr
303 hlineto
-124 -55 -52 -56 -49 64 callgsubr
endchar
                </CharString>
                <CharString name="Eth">
                    -55 callsubr
                </CharString>
                <CharString name="Euro">
                    -14 62 170 57 -51 52 117 52 197 61 hstemhm
124 68 354 67 hintmask 10111110
525 36 rmoveto
-9 45 -206 -71 -107 43 -11 171 rlinecurve
242 hlineto
13 52 rlineto
-255 hlineto
1 39 7 40 11 38 rrcurveto
258 hlineto
13 52 rlineto
-253 hlineto
110 44 79 87 94 hhcurveto
77 20 -52 -88 3 hvcurveto
67 9 rlineto
126 -4 -42 66 -106 hhcurveto
-129 -112 -109 -145 -57 hvcurveto
-80 hlineto
-12 -56 rlineto
73 hlineto
hintmask 11011110
-11 -38 -7 -40 -2 -40 rrcurveto
-74 hlineto
-12 -57 rlineto
86 hlineto
hintmask 10111110
10 -203 139 -94 252 115 rrcurveto
endchar
                </CharString>
                <CharString name="F">
                    21 -21 305 57 263 63 hstem
80 549 vstem
503 305 rmoveto
11 57 rlineto
-293 hlineto
51 263 rlineto
346 hlineto
11 63 rlineto
-416 -9 callsubr
71 hlineto
59 305 rlineto
endchar
                </CharString>
                <CharString name="G">
                    -13 65 callgsubr
92 callsubr
hintmask 10111000
450 -121 -72 callgsubr
hintmask 01111000
2 callgsubr
endchar
                </CharString>
                <CharString name="Gbreve">
                    -13 65 callgsubr
88 58 92 callsubr
hintmask 10111100
604 976 -103 callgsubr
-195 -1070 -40 callsubr
                </CharString>
                <CharString name="Gcommaaccent">
                    -173 -21 181 65 callgsubr
hstemhm
83 72 27 87 229 68 hintmask 11011010
450 -121 -72 callgsubr
hintmask 10111010
2 callgsubr
hintmask 11011110
-253 -278 -93 callgsubr
                </CharString>
                <CharString name="Gdotaccent">
                    -13 65 callgsubr
-19 callsubr
92 callsubr
hintmask 10111100
442 796 -46 callsubr
80 -916 -40 callsubr
                </CharString>
                <CharString name="H">
                    21 -21 320 58 310 -20 hstem
57 556 vstem
407 hmoveto
73 hlineto
133 688 rlineto
-73 hlineto
-60 -310 rlineto
-277 hlineto
60 310 rlineto
-73 -9 callsubr
73 hlineto
62 320 rlineto
277 hlineto
endchar
                </CharString>
                <CharString name="Hbar">
                    21 -21 307 57 133 53 -51 49 -49 189 hstemhm
57 611 hintmask 11010100
477 364 rmoveto
-277 hlineto
26 135 rlineto
277 hlineto
-96 -499 rmoveto
73 hlineto
hintmask 11100100
96 497 rlineto
82 hlineto
10 53 rlineto
-82 hlineto
hintmask 11001100
27 138 rlineto
-73 hlineto
hintmask 11010100
-27 -140 rlineto
-277 hlineto
hintmask 11001100
27 140 rlineto
-73 hlineto
hintmask 11100100
-27 -138 rlineto
-83 hlineto
-10 -53 rlineto
83 hlineto
-96 -497 rlineto
73 hlineto
59 307 rlineto
277 hlineto
endchar
                </CharString>
                <CharString name="I">
                    51 callgsubr
303 58 -94 callgsubr
                </CharString>
                <CharString name="Iacute">
                    51 callgsubr
280 -63 callgsubr
23 -741 -94 callgsubr
                </CharString>
                <CharString name="Ibreve">
                    38 callgsubr
88 58 hstem
52 586 vstem
597 961 -103 callgsubr
-335 -876 -94 callgsubr
                </CharString>
                <CharString name="Icircumflex">
                    38 callgsubr
hstem
52 549 vstem
552 -36 callgsubr
-134 -844 -94 callgsubr
                </CharString>
                <CharString name="Idieresis">
                    38 callgsubr
-25 callgsubr
52 545 hintmask 11011000
553 783 -40 callgsubr
57 -721 -94 callgsubr
                </CharString>
                <CharString name="Idotaccent">
                    38 callgsubr
-19 callsubr
hstem
52 539 vstem
435 781 -46 callsubr
-60 -722 -94 callgsubr
                </CharString>
                <CharString name="Igrave">
                    51 callgsubr
526 -23 callgsubr
-203 -702 -94 callgsubr
                </CharString>
                <CharString name="Imacron">
                    38 callgsubr
138 60 hstem
52 555 vstem
607 886 -50 callgsubr
-292 -768 -94 callgsubr
                </CharString>
                <CharString name="Iogonek">
                    98 callsubr
177 58 572 58 hstem
105 66 vstem
346 -11 callgsubr
41 37 47 90 52 vhcurveto
162 hlineto
14 58 rlineto
-171 hlineto
-89 callgsubr
171 hlineto
-83 -55 -35 -55 82 callgsubr
                </CharString>
                <CharString name="J">
                    -13 67 576 58 hstem
57 488 vstem
392 54 rmoveto
29 29 16 40 35 184 73 381 rcurveline
-304 16 callgsubr
233 hlineto
-65 -333 -29 -147 -11 -37 -22 -22 rlinecurve
-34 -34 -66 -5 -166 2 -12 -67 rcurveline
198 -1 90 21 47 47 rrcurveto
endchar
                </CharString>
                <CharString name="K">
                    89 callsubr
69 580 -8 callgsubr
endchar
                </CharString>
                <CharString name="Kcommaaccent">
                    89 callsubr
245 87 -8 callgsubr
-82 -981 -93 callgsubr
                </CharString>
                <CharString name="L">
                    67 callsubr
hstem
80 434 -7 callsubr
endchar
                </CharString>
                <CharString name="Lacute">
                    67 callsubr
hstem
80 521 vstem
315 -63 callgsubr
185 -799 43 callgsubr
                </CharString>
                <CharString name="Lcaron">
                    67 callsubr
108 -20 hstem
540 85 vstem
540 772 -44 callsubr
-125 -776 43 callgsubr
                </CharString>
                <CharString name="Lcommaaccent">
                    67 callsubr
hstem
235 87 -7 callsubr
104 -35 callsubr
                </CharString>
                <CharString name="Ldot">
                    0 63 235 109 281 -20 hstem
80 469 -7 callsubr
443 298 rmoveto
26 109 rlineto
-91 hlineto
-26 -109 rlineto
endchar
                </CharString>
                <CharString name="Lslash">
                    67 callsubr
hstem
67 460 vstem
513 hmoveto
14 63 rlineto
-348 hlineto
60 312 198 93 -3 52 -184 -87 49 255 79 callsubr
-57 -293 -103 -49 2 -51 90 42 -66 -337 rlineto
endchar
                </CharString>
                <CharString name="M">
                    21 -21 111 93 374 110 3 -20 hstemhm
48 583 hintmask 10011000
271 691 rmoveto
-90 -5 100 callsubr
67 hlineto
hintmask 11101000
109 578 rlineto
3 hlineto
34 -467 rlineto
54 hlineto
224 467 rlineto
4 hlineto
-116 -578 rlineto
71 hlineto
133 688 rlineto
-95 hlineto
-228 -484 rlineto
-2 hlineto
endchar
                </CharString>
                <CharString name="N">
                    -10 callgsubr
hstemhm
57 558 hintmask 01001100
408 hmoveto
-65 callgsubr
endchar
                </CharString>
                <CharString name="Nacute">
                    -10 callgsubr
hstemhm
57 558 hintmask 01001100
294 801 -107 callgsubr
114 -801 rmoveto
-65 callgsubr
endchar
                </CharString>
                <CharString name="Ncaron">
                    -10 callgsubr
hstemhm
57 581 hintmask 01001100
415 767 -90 callsubr
-4 -767 rmoveto
-65 callgsubr
endchar
                </CharString>
                <CharString name="Ncommaaccent">
                    -10 callgsubr
hstemhm
214 87 hintmask 01001100
408 hmoveto
-65 callgsubr
-77 -866 -93 callgsubr
                </CharString>
                <CharString name="Ntilde">
                    -10 callgsubr
111 98 callgsubr
hstemhm
57 609 hintmask 01001111
518 836 -84 callgsubr
-110 -836 rmoveto
73 hlineto
hintmask 10010111
-20 callgsubr
hintmask 01001111
-10 callsubr
hintmask 01100111
110 579 rlineto
5 hlineto
endchar
                </CharString>
                <CharString name="O">
                    -6 callsubr
591 445 -106 callgsubr
                </CharString>
                <CharString name="OE">
                    0 62 260 54 251 61 hstem
72 71 vstem
143 230 rmoveto
111 50 282 206 4 vhcurveto
-110 -565 rlineto
-90 2 -56 41 125 vvcurveto
405 -168 rmoveto
-191 hlineto
51 260 rlineto
157 hlineto
10 54 rlineto
-157 hlineto
48 251 rlineto
188 hlineto
12 61 rlineto
-222 hlineto
-302 -70 -311 -150 -179 95 -48 136 hvcurveto
227 hlineto
endchar
                </CharString>
                <CharString name="Oacute">
                    -6 callsubr
296 814 -107 callgsubr
295 -369 -106 callgsubr
                </CharString>
                <CharString name="Obreve">
                    28 callgsubr
89 58 0 callsubr
613 976 -103 callgsubr
-63 -504 -106 callgsubr
                </CharString>
                <CharString name="Ocircumflex">
                    -6 callsubr
567 783 -98 callsubr
139 -472 -106 callgsubr
                </CharString>
                <CharString name="Odieresis">
                    28 callgsubr
92.5 -46 callgsubr
79 74 364 74 hintmask 11011100
568 798 16 callsubr
-349 -106 callgsubr
                </CharString>
                <CharString name="Ograve">
                    -6 callsubr
542 805 -88 callsubr
69 -330 -106 callgsubr
                </CharString>
                <CharString name="Ohungarumlaut">
                    -6 callsubr
288 783 -79 callsubr
104 -363 -106 callgsubr
                </CharString>
                <CharString name="Omacron">
                    28 callgsubr
139 60 0 callsubr
623 901 -50 callgsubr
-20 -396 -106 callgsubr
                </CharString>
                <CharString name="Omega">
                    0 58 -32 -21 631 65 hstemhm
108 65 324 70 hintmask 10111000
211 5 rmoveto
-24 104 -14 90 105 vvcurveto
202 70 130 120 85 49 -58 -106 vhcurveto
hintmask 01111000
-113 -57 -155 -118 -199 vhcurveto
1 -5 rlineto
hintmask 10111000
194 hlineto
11 58 87 callsubr
hlineto
106 167 50 146 116 vvcurveto
133 -70 81 -123 -170 -96 -151 -227 -85 15 -86 26 -94 vhcurveto
-125 hlineto
-11 -58 rlineto
196 hlineto
endchar
                </CharString>
                <CharString name="Oslash">
                    53 callsubr
154 256 -66 callsubr
                </CharString>
                <CharString name="Oslashacute">
                    53 callsubr
296 814 -107 callgsubr
-142 -558 -66 callsubr
                </CharString>
                <CharString name="Otilde">
                    28 callgsubr
92 98 callgsubr
0 callsubr
520 849 -84 callgsubr
71 -404 -106 callgsubr
                </CharString>
                <CharString name="P">
                    21 -21 632 62 hstem
534 72 vstem
143 hmoveto
45 229 rlineto
264 23 154 103 155 vvcurveto
124 -115 89 -287 -37 vhcurveto
100 callsubr
463 499 rmoveto
-120 -116 -79 -217 -2 vhcurveto
65 330 rlineto
187 20 81 -58 -91 vvcurveto
endchar
                </CharString>
                <CharString name="Q">
                    12 -21 650 62 hstem
94 71 357 74 vstem
471 -147 rmoveto
32 60 -241 107 rlineto
189 93 145 170 189 vvcurveto
136 -70 95 -135 -224 -148 -269 -320 114 vhcurveto
62 23 rlineto
296 -87 113 208 155 hhcurveto
94 52 -64 -111 -171 -142 -171 -200 -82 hvcurveto
-17 -51 rlineto
endchar
                </CharString>
                <CharString name="R">
                    34 callsubr
hintmask 10011000
469 -6 -61 callsubr
                </CharString>
                <CharString name="R_p">
                    -174 -21 189 59 -32 88 callgsubr
484 62 -11 -20 114 57 hstemhm
307 63 195 61 hintmask 1100011110000000
230 -6 rmoveto
hintmask 1001011110000000
64 12 -63 299 rlineto
92 91 47 74 96 callsubr
hintmask 1010011110000000
63 callsubr
28 -29 -60 vvcurveto
-73 -40 -71 -96 -94 vhcurveto
-3 vlineto
hintmask 1100101110000000
265 -254 rmoveto
-10 -15 4 7 -18 hvcurveto
31 158 31 163 12 66 rrcurveto
25 25 21 14 18 hhcurveto
23 11 -28 -50 -144 -65 -215 -64 hvcurveto
-92 -242 rmoveto
hintmask 1010011110000000
10 52 13 67 14 70 rrcurveto
hintmask 1100101110000000
-4 14 13 -2 12 hhcurveto
117 89 235 198 89 -24 36 -37 -30 -31 -23 -34 -32 hvcurveto
hintmask 1100011110000000
7 46 -59 -4 -25 -149 -57 -295 -56 -288 rlinecurve
endchar
                </CharString>
                <CharString name="Racute">
                    34 callsubr
hintmask 00111000
278 806 -107 callgsubr
hintmask 10011000
191 -812 -61 callsubr
                </CharString>
                <CharString name="Rcaron">
                    34 callsubr
hintmask 00111000
399 772 -90 callsubr
hintmask 10011000
73 -778 -61 callsubr
                </CharString>
                <CharString name="Rcommaaccent">
                    24 callgsubr
226 87 196 72 hintmask 10011100
469 -6 rmoveto
hintmask 00111100
-34 callgsubr
hintmask 01011100
-48 callsubr
-96 -600 -93 callgsubr
                </CharString>
                <CharString name="S">
                    34 callgsubr
570 514 -78 callsubr
endchar
                </CharString>
                <CharString name="Sacute">
                    34 callgsubr
290 812 -107 callgsubr
280 -298 -78 callsubr
endchar
                </CharString>
                <CharString name="Scaron">
                    34 callgsubr
412 778 -90 callsubr
161 -264 -78 callsubr
endchar
                </CharString>
                <CharString name="Scedilla">
                    -49 105 -63 63 -62 62 583 62 hstemhm
151 73 73 64 79 73 hintmask 10011110
297 -202 rmoveto
64 2 rlineto
hintmask 01011110
7 108 -31 62 -47 23 rrcurveto
158 12 65 74 78 -38 callgsubr
66 13 rlineto
-20 callsubr
hintmask 00111110
-32 callsubr
59 -13 53 -7 47 -3 rlinecurve
-42 -20 -38 -49 -34 -82 43 callsubr
                </CharString>
                <CharString name="Scommaaccent">
                    -8 64 583 62 hstemhm
151 73 -36 87 165 73 hintmask 11101000
570 514 -78 callsubr
hintmask 11011000
-367 -796 -93 callgsubr
                </CharString>
                <CharString name="T">
                    92 callgsubr
125 526 vstem
418 625 -7 callgsubr
endchar
                </CharString>
                <CharString name="Tcaron">
                    92 callgsubr
125 526 vstem
405 765 -90 callsubr
16 -140 -7 callgsubr
endchar
                </CharString>
                <CharString name="Tcommaaccent">
                    92 callgsubr
204 87 vstem
418 625 -7 callgsubr
-144 -35 callsubr
                </CharString>
                <CharString name="Thorn">
                    0 184 334 60 -60 170 hstemhm
512 71 hintmask 10110000
143 hmoveto
23 115 rlineto
263 23 154 102 156 vvcurveto
hintmask 11010000
113 -94 82 -233 -13 vhcurveto
hintmask 10110000
22 110 rlineto
-73 hlineto
38 callsubr
441 385 rmoveto
-121 -117 -79 -216 -1 vhcurveto
65 330 rlineto
186 19 82 -58 -90 vvcurveto
endchar
                </CharString>
                <CharString name="U">
                    11 callsubr
278 -16 -105 callsubr
                </CharString>
                <CharString name="Uacute">
                    11 callsubr
292 -63 callgsubr
-14 -815 -105 callsubr
                </CharString>
                <CharString name="Ubreve">
                    37 callgsubr
108 58 hstem
91 73 vstem
609 961 -103 callgsubr
-372 -950 -105 callsubr
                </CharString>
                <CharString name="Ucircumflex">
                    11 callsubr
563 -36 callgsubr
-170 -918 -105 callsubr
                </CharString>
                <CharString name="Udieresis">
                    -16 65 639 11 callgsubr
91 73 hintmask 11011000
564 783 -40 callgsubr
21 -795 -105 callsubr
                </CharString>
                <CharString name="Ugrave">
                    11 callsubr
538 -23 callgsubr
-240 -776 -105 callsubr
                </CharString>
                <CharString name="Uhungarumlaut">
                    11 callsubr
285 768 -79 callsubr
-206 -809 -105 callsubr
                </CharString>
                <CharString name="Umacron">
                    37 callgsubr
158 60 hstem
91 73 vstem
619 886 -50 callgsubr
-329 -842 -105 callsubr
                </CharString>
                <CharString name="Uogonek">
                    98 callsubr
161 52 callgsubr
hstemhm
91 73 -33 67 hintmask 11101000
373 -11 callgsubr
41 51 40 130 63 vhcurveto
73 36 51 70 22 111 91 467 rcurveline
-57 callsubr
hintmask 11110000
-67 callgsubr
-31 -160 66 -86 134 -5 rlinecurve
hintmask 11101000
-94 -50 -42 -48 -45 vvcurveto
-65 84 56 callgsubr
endchar
                </CharString>
                <CharString name="Uring">
                    37 callgsubr
86 59 callgsubr
hstem
91 73 127 55 181 54 vstem
443 986 -93 callsubr
-160 -956 -105 callsubr
                </CharString>
                <CharString name="V">
                    0 66 622 -20 23 -20 hstemhm
134 71 hintmask 10110000
311 hmoveto
hintmask 11010000
121 230 117 230 108 228 rrcurveto
-73 hlineto
-97 -207 -104 -207 -107 -208 rrcurveto
-9 hlineto
hintmask 10110000
-23 208 -23 211 -16 206 -71 -6 rcurveline
18 -228 25 -227 30 -230 rrcurveto
endchar
                </CharString>
                <CharString name="W">
                    36 callgsubr
374 hmoveto
-95 callsubr
                </CharString>
                <CharString name="Wacute">
                    36 callgsubr
295 -63 callgsubr
79 -799 rmoveto
-95 callsubr
                </CharString>
                <CharString name="Wcircumflex">
                    36 callgsubr
566 -36 callgsubr
-77 -902 rmoveto
-95 callsubr
                </CharString>
                <CharString name="Wdieresis">
                    0 91 597 11 callgsubr
88 69 hintmask 11011000
568 783 -40 callgsubr
113 -779 rmoveto
-95 callsubr
                </CharString>
                <CharString name="Wgrave">
                    36 callgsubr
541 -23 callgsubr
-147 -760 rmoveto
-95 callsubr
                </CharString>
                <CharString name="X">
                    18 -21 24 -21 24 -21 682 7 -4 93 callsubr
12 641 hintmask 10000110
445 -3 rmoveto
hintmask 00101010
74 6 -145 337 279 348 rlineto
-80 hlineto
-230 -294 rlineto
hintmask 00100110
-125 298 rlineto
hintmask 01010010
-73 -7 145 -337 -278 -348 rlineto
79 hlineto
229 295 rlineto
endchar
                </CharString>
                <CharString name="Y">
                    -2 callsubr
297 hmoveto
-57 callgsubr
                </CharString>
                <CharString name="Yacute">
                    -2 callsubr
286 801 -107 callgsubr
11 -801 rmoveto
-57 callgsubr
                </CharString>
                <CharString name="Ycircumflex">
                    -2 callsubr
557 770 -98 callsubr
-145 -904 rmoveto
-57 callgsubr
                </CharString>
                <CharString name="Ydieresis">
                    21 -21 688 -20 22 11 callgsubr
128 534 hintmask 10101100
559 785 -62 callsubr
hintmask 11010100
-75 callgsubr
45 -781 rmoveto
44 227 -5 callgsubr
hintmask 10110100
-26 callgsubr
                </CharString>
                <CharString name="Ygrave">
                    -2 callsubr
532 792 -88 callsubr
-215 -762 rmoveto
-57 callgsubr
                </CharString>
                <CharString name="Z">
                    77 callsubr
582 vstem
489 hmoveto
-45 callgsubr
                </CharString>
                <CharString name="Zacute">
                    77 callsubr
582 vstem
286 -63 callgsubr
203 -799 rmoveto
-45 callgsubr
                </CharString>
                <CharString name="Zcaron">
                    77 callsubr
595 vstem
408 765 -90 callsubr
84 -765 rmoveto
-45 callgsubr
                </CharString>
                <CharString name="Zdotaccent">
                    0 63 562 63 -19 callsubr
hstem
36 582 vstem
442 781 -46 callsubr
119 -780 rmoveto
-45 callgsubr
                </CharString>
                <CharString name="a">
                    -3 callgsubr
hintmask 10101100
216 55 -95 callgsubr
                </CharString>
                <CharString name="aacute">
                    -3 callgsubr
hintmask 01101100
280 660 -107 callgsubr
hintmask 10101100
-64 -605 -95 callgsubr
                </CharString>
                <CharString name="abreve">
                    -36 callsubr
108 58 26 callsubr
hintmask 01101110
596 822 -103 callgsubr
hintmask 10101110
-421 -740 -53 callsubr
                </CharString>
                <CharString name="acircumflex">
                    -3 callgsubr
hintmask 01101100
551 629 -98 callsubr
hintmask 10101100
-220 -708 -95 callgsubr
                </CharString>
                <CharString name="acute">
                    1 callsubr
                </CharString>
                <CharString name="acute.cap">
                    1 callsubr
                </CharString>
                <CharString name="adieresis">
                    -11 66 -65 62 437 60 0 11 callgsubr
68 70 252 68 hintmask 01100111
552 644 -62 callsubr
hintmask 10101011
-75 callgsubr
-29 -585 -101 callgsubr
hintmask 01010111
-72 callsubr
hintmask 10100111
-88 callgsubr
hintmask 01010111
-43 callsubr
                </CharString>
                <CharString name="ae">
                    -8 61 436 57 -56 59 hstemhm
51 70 432 66 hintmask 11011000
573 62 20 callgsubr
hintmask 10111000
89 callgsubr
hintmask 11011000
3 callgsubr
hintmask 10111000
6 callgsubr
hintmask 11011000
42 callsubr
hintmask 10111000
100 callgsubr
                </CharString>
                <CharString name="aeacute">
                    -8 61 436 57 -56 59 234 -20 hstemhm
51 70 432 66 hintmask 11011100
288 652 -107 callgsubr
285 -590 20 callgsubr
hintmask 10111100
89 callgsubr
hintmask 11011100
3 callgsubr
hintmask 10111100
6 callgsubr
hintmask 11011100
42 callsubr
hintmask 10111100
100 callgsubr
                </CharString>
                <CharString name="agrave">
                    -3 callgsubr
hintmask 01101100
526 651 -88 callsubr
hintmask 10101100
-290 -566 -95 callgsubr
                </CharString>
                <CharString name="amacron">
                    -36 callsubr
158 60 26 callsubr
hintmask 01101110
607 747 -50 callgsubr
hintmask 10101110
-379 -632 -53 callsubr
                </CharString>
                <CharString name="ampersand">
                    -11 64 657 -20 hstem
31 69 174 60 vstem
530 -21 rmoveto
54 49 -56 53 -46 51 -38 52 rlinecurve
46 57 46 68 44 79 -61 22 rcurveline
-35 -69 -36 -59 -36 -49 -46 75 -26 77 -6 82 rrcurveto
63 66 38 72 54 vvcurveto
34 -19 17 -29 -50 -65 -114 -114 -2 vhcurveto
-139 -122 -100 -125 -117 vvcurveto
-80 44 -49 79 70 86 49 92 87 vhcurveto
37 -51 45 -50 51 -50 rrcurveto
-356 74 rmoveto
-46 -28 29 50 87 77 99 97 97 hvcurveto
11 -82 32 -79 49 -78 rrcurveto
-82 -73 -68 -41 -51 hhcurveto
endchar
                </CharString>
                <CharString name="aogonek">
                    -229 52 166 66 -53 50 -29 -21 487 60 0 -20 88 callsubr
157 67 31 65 hintmask 1100101110000000
536 -185 rmoveto
-9 36 rlineto
-118 -47 -47 19 38 vvcurveto
hintmask 1010011110000000
50 59 55 154 73 vhcurveto
-63 callsubr
hintmask 1100101110000000
-88 callgsubr
hintmask 1001101110000000
-8 -62 10 -35 37 -8 rrcurveto
-97 -58 -40 -53 -50 vvcurveto
hintmask 1100101110000000
-64 84 -43 157 81 vhcurveto
-320 240 -101 callgsubr
endchar
                </CharString>
                <CharString name="approxequal">
                    114 60 67 60 45 60 66 61 hstem
50 543 vstem
429 346 rmoveto
59 42 49 109 63 hvcurveto
-40 22 rlineto
-68 -43 -36 -52 -36 -56 -30 127 -87 hhcurveto
-61 -47 -52 -110 -63 hvcurveto
40 -23 rlineto
71 44 38 53 35 60 30 -126 88 hhcurveto
-45 -232 rmoveto
60 41 50 108 63 hvcurveto
-40 23 rlineto
-69 -42 -37 -52 -35 -57 -29 127 -88 hhcurveto
-60 -48 -53 -109 -62 hvcurveto
39 -22 rlineto
70 44 38 54 35 59 31 -127 88 hhcurveto
endchar
                </CharString>
                <CharString name="aring">
                    17 callgsubr
430 847 -70 callgsubr
                </CharString>
                <CharString name="aringacute">
                    17 callgsubr
350 924 -107 callgsubr
80 -77 -70 callgsubr
                </CharString>
                <CharString name="asciicircum">
                    546 -20 hstem
63 492 vstem
496 181 rmoveto
59 37 -192 328 -17 -2 -283 -326 45 -39 235 271 rlineto
endchar
                </CharString>
                <CharString name="asciitilde">
                    223 64 103 64 hstem
54 548 vstem
423 223 rmoveto
64 57 70 132 58 hvcurveto
-47 20 rlineto
-90 -39 -45 -68 -40 -62 -40 167 -94 hhcurveto
-64 -60 -72 -130 -57 hvcurveto
47 -20 rlineto
90 39 44 68 40 63 42 -167 94 hhcurveto
endchar
                </CharString>
                <CharString name="asterisk">
                    309 455 hstem
146 440 vstem
412 309 rmoveto
41 16 -41 170 174 26 -1 42 -175 16 28 173 -43 12 -70 -163 -154 82 -25 -36 135 -116 -124 -122 27 -34 149 90 rlineto
endchar
                </CharString>
                <CharString name="asterisk.alt">
                    304 465 hstem
121 465 vstem
392 611 rmoveto
57 139 -68 19 -23 -150 rlineto
-49 -10 rmoveto
-93 117 -50 -50 118 -94 rlineto
154 -43 rmoveto
148 23 -19 67 -140 -54 rlineto
-157 -41 rmoveto
-149 -23 19 -67 140 54 rlineto
119 -34 rmoveto
93 -117 49 50 -117 94 rlineto
-109 -30 rmoveto
-55 -139 68 -18 21 149 rlineto
endchar
                </CharString>
                <CharString name="at">
                    -173 58 180 61 349 55 170 56 hstemhm
67 62 134 63 144 58 27 62 hintmask 11111101
455 -156 rmoveto
8 59 rlineto
-246 -61 -88 95 200 vvcurveto
286 153 277 171 86 29 -60 -117 -18 vhcurveto
5 -23 -20 2 -17 hhcurveto
-136 -91 -167 -158 -95 35 -45 47 hvcurveto
hintmask 11111111
39 49 28 37 40 hvcurveto
-6 -58 61 -1 8 58 11 69 11 56 rlinecurve
47 229 rlineto
hintmask 11111101
178 37 -46 95 -128 hhcurveto
-225 -176 -309 -315 -231 110 -120 278 63 hvcurveto
-80 282 rmoveto
-27 -22 26 64 120 66 139 71 19 28 -6 -9 27 hvcurveto
-57 -282 rlineto
-29 -33 -43 -23 -29 hhcurveto
endchar
                </CharString>
                <CharString name="atilde">
                    -36 callsubr
111 98 callgsubr
26 callsubr
hintmask 01101111
504 695 -84 callgsubr
hintmask 10101111
-288 -640 -101 callgsubr
hintmask 01011111
-72 callsubr
hintmask 10101111
-88 callgsubr
hintmask 01011111
-43 callsubr
                </CharString>
                <CharString name="b">
                    -11 60 438 65 228 -20 hstem
486 69 vstem
231 -11 rmoveto
190 134 183 199 121 -53 60 -70 -64 -81 -54 -63 -64 hvcurveto
67 345 -69 -6 -148 -759 rlineto
-15 55 57 -11 46 hhcurveto
38 60 rmoveto
-30 -42 6 13 -45 hvcurveto
59 304 rlineto
60 56 80 55 55 hhcurveto
45 39 -41 -90 -159 -96 -148 -121 hvcurveto
endchar
                </CharString>
                <CharString name="backslash">
                    -202 993 hstem
133 368 vstem
191 791 rmoveto
-58 -19 309 -974 59 18 rlineto
endchar
                </CharString>
                <CharString name="bar">
                    781 -20 hstem
185 256 vstem
376 779 rmoveto
-191 -979 rlineto
66 hlineto
190 981 rlineto
endchar
                </CharString>
                <CharString name="braceleft">
                    265 52 hstemhm
136 95 callgsubr
417 -228 -55 callgsubr
                </CharString>
                <CharString name="braceleft.cap">
                    319 52 hstemhm
147 95 callgsubr
428 -174 -55 callgsubr
                </CharString>
                <CharString name="braceright">
                    -227 1027 -544 51 hstemhm
243 95 callsubr
18 -227 -53 callgsubr
                </CharString>
                <CharString name="braceright.cap">
                    -173 1027 -544 51 hstemhm
254 95 callsubr
29 -173 -53 callgsubr
                </CharString>
                <CharString name="bracketleft">
                    -198 58 850 58 hstem
79 529 vstem
79 -198 21 callgsubr
                </CharString>
                <CharString name="bracketleft.cap">
                    -144 58 850 58 hstem
90 529 vstem
90 -144 21 callgsubr
                </CharString>
                <CharString name="bracketright">
                    -197 58 851 57 hstem
15 529 vstem
544 769 20 callsubr
                </CharString>
                <CharString name="bracketright.cap">
                    -143 58 851 57 hstem
26 529 vstem
555 823 20 callsubr
                </CharString>
                <CharString name="breve">
                    -8 callsubr
                </CharString>
                <CharString name="breve.cap">
                    -8 callsubr
                </CharString>
                <CharString name="bullet">
                    199 263 hstem
197 248 vstem
445 345 rmoveto
69 -47 48 -67 -69 -65 -59 -86 -69 48 -49 64 70 66 60 86 vhcurveto
endchar
                </CharString>
                <CharString name="bullet.alt">
                    218 223 hstem
192 263 vstem
411 218 rmoveto
44 223 rlineto
-218 hlineto
-45 -223 rlineto
endchar
                </CharString>
                <CharString name="c">
                    84 callgsubr
76 callgsubr
550 375 -73 callgsubr
                </CharString>
                <CharString name="cacute">
                    84 callgsubr
76 callgsubr
278 662 -107 callgsubr
272 -287 -73 callgsubr
                </CharString>
                <CharString name="caron">
                    -17 callsubr
                </CharString>
                <CharString name="caron.alt">
                    7 callsubr
                </CharString>
                <CharString name="caron.alt.cap">
                    7 callsubr
                </CharString>
                <CharString name="caron.cap">
                    -17 callsubr
                </CharString>
                <CharString name="ccaron">
                    84 callgsubr
149 -20 76 callgsubr
400 628 -90 callsubr
153 -253 -73 callgsubr
                </CharString>
                <CharString name="ccedilla">
                    -51 101 -60 60 -55 55 440 61 hstemhm
91 70 164 64 97 64 hintmask 01011110
389 -202 rmoveto
7 106 -30 62 -45 24 55 6 65 19 73 37 -11 39 rcurveline
-47 callgsubr
64 1 rlineto
-25 callsubr
hvcurveto
hintmask 00111110
-103 49 -75 92 -20 vhcurveto
-45 -18 -39 -50 -36 -86 43 callsubr
                </CharString>
                <CharString name="cdotaccent">
                    84 callgsubr
-19 callsubr
76 callgsubr
434 644 -46 callsubr
188 -268 -73 callgsubr
                </CharString>
                <CharString name="cedilla">
                    -16 callsubr
                </CharString>
                <CharString name="cedilla.cap">
                    -16 callsubr
                </CharString>
                <CharString name="cent">
                    37 64 363 69 155 -20 hstem
102 66 vstem
168 283 rmoveto
82 48 72 151 22 vhcurveto
-75 -326 rlineto
-92 33 -32 54 63 vvcurveto
306 -246 rmoveto
13 64 -57 3 -47 6 -40 8 rlinecurve
79 347 38 2 43 0 48 -3 rlinecurve
12 69 -45 3 -41 0 -37 -3 rlinecurve
36 155 rlineto
-65 hlineto
-35 -162 rlineto
-200 -33 -74 -113 -110 vvcurveto
-88 51 -73 119 -40 vhcurveto
-39 -164 rlineto
65 hlineto
32 149 42 -9 48 -6 54 -2 rlinecurve
endchar
                </CharString>
                <CharString name="check.1">
                    -22 92 638 -20 hstem
100 546 vstem
646 708 rmoveto
-68 34 -132 -201 -116 -229 -93 -242 rlinecurve
-4 hlineto
-68 327 -65 -20 91 -399 rlineto
62 hlineto
110 268 132 242 151 220 rrcurveto
endchar
                </CharString>
                <CharString name="check.2">
                    16 -21 25 88 callgsubr
551 -20 173 -20 hstemhm
46 580 hintmask 10011100
348 -5 rmoveto
hintmask 00111100
69 10 -96 294 305 410 -65 35 -263 -381 -60 193 -68 -19 78 -233 rlineto
hintmask 01011100
-202 -283 44 -22 180 245 rlineto
endchar
                </CharString>
                <CharString name="circumflex">
                    0 callgsubr
                </CharString>
                <CharString name="circumflex.cap">
                    0 callgsubr
                </CharString>
                <CharString name="colon">
                    0 115 256 115 hstem
208 206 57 callgsubr
27 60 callsubr
                </CharString>
                <CharString name="colon.alt">
                    101 115 256 115 hstem
228 207 vstem
412 472 rmoveto
23 callsubr
26 60 callsubr
                </CharString>
                <CharString name="colonmonetary">
                    26 61 511 65 hstem
92 65 vstem
357 112 rmoveto
-32 9 -28 9 -24 12 117 423 rcurveline
29 8 33 7 36 6 rrcurveto
-331 -272 rmoveto
98 48 85 132 51 vhcurveto
-106 -382 rlineto
-51 37 -23 49 62 vvcurveto
143 -396 rmoveto
55 hlineto
32 121 29 -6 30 -4 33 -3 rlinecurve
25 61 -37 4 -34 5 -31 6 rlinecurve
136 490 30 3 32 2 35 1 rlinecurve
6 65 -29 -1 -27 -2 -26 -3 rlinecurve
31 112 rlineto
-55 hlineto
-32 -119 -34 -5 -32 -6 -29 -8 rlinecurve
38 138 rlineto
-54 hlineto
-43 -155 rlineto
-186 -65 -71 -119 -126 vvcurveto
-86 37 -69 79 -48 vhcurveto
-52 -183 rlineto
55 hlineto
44 159 24 -11 28 -9 30 -7 rlinecurve
endchar
                </CharString>
                <CharString name="comma">
                    -204 322 hstem
238 100 vstem
138 -187 rmoveto
29 -17 117 97 49 88 103 callgsubr
-105 -3 17 -131 -19 62 callgsubr
                </CharString>
                <CharString name="commaaccent">
                    3 callsubr
                </CharString>
                <CharString name="commaaccent.cap">
                    3 callsubr
                </CharString>
                <CharString name="commaaccent.rot">
                    620 225 hstem
258 87 vstem
396 830 48 callsubr
endchar
                </CharString>
                <CharString name="copyright">
                    8 42 103 49 288 48 100 42 hstem
56 46 87 51 149 46 101 46 vstem
56 284 rmoveto
-173 98 -103 131 165 132 160 237 173 -96 102 -130 -162 -138 -159 -237 vhcurveto
46 9 rmoveto
198 112 147 134 107 81 -89 -153 -198 -107 -148 -136 -108 -83 91 152 vhcurveto
257 245 rmoveto
-95 -75 -120 -128 -119 73 -48 129 50 hvcurveto
7 48 rlineto
-103 -40 -55 24 95 vvcurveto
93 47 97 63 33 7 -32 -54 -1 vhcurveto
46 1 rlineto
86 5 -21 47 -60 hhcurveto
endchar
                </CharString>
                <CharString name="d">
                    50 callgsubr
hintmask 10101100
220 55 -26 callsubr
hintmask 01011110
31 callsubr
hintmask 10101110
-15 callgsubr
hintmask 01011110
49 callsubr
                </CharString>
                <CharString name="dagger">
                    552 -20 hstem
146 433 vstem
300 136 rmoveto
90 391 69 callsubr
-36 -181 -177 19 -11 -58 177 -18 -80 -409 10 -8 rlineto
endchar
                </CharString>
                <CharString name="daggerdbl">
                    552 -20 hstem
101 478 vstem
289 80 rmoveto
51 227 183 -19 11 56 -181 19 37 164 69 callsubr
-35 -181 -178 19 -11 -58 178 -18 -32 -165 -180 19 -11 -57 179 -18 -47 -244 8 -8 rlineto
endchar
                </CharString>
                <CharString name="dcaron">
                    50 callgsubr
244 85 hintmask 01101111
704 -23 callsubr
hintmask 10101111
-569 -835 -26 callsubr
hintmask 01011111
31 callsubr
hintmask 10101111
-15 callgsubr
hintmask 01011111
49 callsubr
                </CharString>
                <CharString name="dcroat">
                    29 callsubr
440 59 -9 -20 125 48 -48 133 hstemhm
68 69 257 66 hintmask 10101010
220 55 -26 callsubr
hintmask 01101011
21 callsubr
100 506 rlineto
80 hlineto
9 48 rlineto
-80 hlineto
hintmask 01100110
17 85 -71 -6 rlineto
hintmask 01011010
-15 -79 rlineto
-155 hlineto
-10 -48 rlineto
155 hlineto
-20 -105 rlineto
hintmask 10101011
-15 callgsubr
hintmask 01101011
49 callsubr
                </CharString>
                <CharString name="degree">
                    356 55 280 54 hstem
178 58 260 58 vstem
385 745 rmoveto
-106 -101 -85 -129 -106 70 -69 97 108 101 85 128 107 -70 69 -99 hvcurveto
-31 -334 rmoveto
-73 -45 53 73 91 64 63 78 73 45 -55 -72 -92 -64 -61 -78 hvcurveto
endchar
                </CharString>
                <CharString name="dieresis">
                    -22 callgsubr
                </CharString>
                <CharString name="dieresis.cap">
                    -22 callgsubr
                </CharString>
                <CharString name="divide">
                    76 93 123 60 124 93 hstem
78 490 vstem
394 476 rmoveto
18 93 rlineto
-85 hlineto
-19 -93 rlineto
260 -124 rmoveto
-478 5 callsubr
477 hlineto
-236 -216 rmoveto
17 93 rlineto
-85 hlineto
-18 -93 rlineto
endchar
                </CharString>
                <CharString name="dollar">
                    25 60 -57 60 513 179 0 -20 hstemhm
160 68 210 67 hintmask 10101100
228 531 rmoveto
40 43 36 113 -6 vhcurveto
-61 -204 rlineto
-52 48 -43 45 41 vvcurveto
210 -371 rmoveto
-41 -49 -37 -114 3 vhcurveto
64 211 rlineto
54 -49 45 -46 -41 vvcurveto
67 1 rmoveto
69 -73 68 -71 64 vhcurveto
71 234 40 -5 46 -10 53 -15 rlinecurve
13 65 -47 11 -42 8 -38 5 rlinecurve
41 125 rlineto
-65 hlineto
-37 -121 rlineto
-169 6 -67 -68 -70 vvcurveto
-68 70 -66 70 -63 vhcurveto
hintmask 01011100
-74 -242 -45 5 -53 10 -62 16 rlinecurve
-16 -67 57 -13 51 -7 45 -4 rlinecurve
-36 -120 63 -1 rlineto
hintmask 10011100
32 118 rlineto
hintmask 10101100
174 69 69 67 hvcurveto
endchar
                </CharString>
                <CharString name="dotaccent">
                    7 callgsubr
                </CharString>
                <CharString name="dotaccent.cap">
                    7 callgsubr
                </CharString>
                <CharString name="dotlessi">
                    51 callsubr
527 47 -91 callsubr
                </CharString>
                <CharString name="e">
                    -4 callsubr
523 60 -107 callsubr
                </CharString>
                <CharString name="eacute">
                    -4 callsubr
273 663 -107 callgsubr
250 -603 -107 callsubr
                </CharString>
                <CharString name="ebreve">
                    -18 callgsubr
88 58 19 callsubr
590 825 -103 callgsubr
-108 -738 -107 callsubr
                </CharString>
                <CharString name="ecaron">
                    -18 callgsubr
149 -20 19 callsubr
395 629 -90 callsubr
131 -569 -107 callsubr
                </CharString>
                <CharString name="ecircumflex">
                    -4 callsubr
545 632 -98 callsubr
93 -706 -107 callsubr
                </CharString>
                <CharString name="edieresis">
                    -18 callgsubr
-25 callgsubr
27 callsubr
hintmask 10101110
546 647 -62 callsubr
hintmask 11110110
-75 callgsubr
284 -583 -107 callsubr
                </CharString>
                <CharString name="edotaccent">
                    -18 callgsubr
-19 callsubr
19 callsubr
429 645 -46 callsubr
166 -584 -107 callsubr
                </CharString>
                <CharString name="egrave">
                    -4 callsubr
519 654 -88 callsubr
24 -564 -107 callsubr
                </CharString>
                <CharString name="eight">
                    -13 59 497 -20 113 61 -9 9 hstemhm
69 69 28 68 201 66 hintmask 11100110
501 161 rmoveto
74 -69 69 -68 65 vhcurveto
60 37 75 42 94 51 -24 44 rcurveline
-98 -53 -80 -45 -64 -40 rrcurveto
-51 50 -42 47 46 vvcurveto
62 69 55 201 -46 vhcurveto
hintmask 11010110
19 69 rlineto
hintmask 11100110
-231 40 -126 -91 -101 vvcurveto
-60 47 -55 55 -53 vhcurveto
hintmask 11101110
-164 -109 -35 -60 -65 vvcurveto
-88 80 -59 116 vhcurveto
hintmask 11100110
136 100 80 94 hvcurveto
-219 -115 rmoveto
hintmask 11101110
-81 -63 38 65 43 23 46 144 94 hvcurveto
66 -60 64 -58 -59 vvcurveto
hintmask 11100110
-60 -64 -49 -89 vhcurveto
endchar
                </CharString>
                <CharString name="eight.den">
                    -244 47 219 -21 163 58 callgsubr
hintmask 11101100
387 -128 -83 callgsubr
                </CharString>
                <CharString name="eight.inf">
                    -178 47 361 50 hstemhm
90 5 callgsubr
hintmask 11011000
401 -62 -58 callsubr
                </CharString>
                <CharString name="eight.num">
                    461 47 198 -20 183 50 hstemhm
202 5 callgsubr
hintmask 11101100
513 577 -83 callgsubr
                </CharString>
                <CharString name="eight.small">
                    -11 47 361 50 hstemhm
116 5 callgsubr
hintmask 11011000
427 105 -58 callsubr
                </CharString>
                <CharString name="eight.sup">
                    359 47 309 -20 72 50 hstemhm
182 5 callgsubr
hintmask 11101100
493 475 -83 callgsubr
                </CharString>
                <CharString name="ellipsis">
                    0 117 hstem
41 121 82 121 82 121 cntrmask 01110000
137 44 callsubr
502 44 callsubr
-107 44 callsubr
endchar
                </CharString>
                <CharString name="emacron">
                    -18 callgsubr
138 60 19 callsubr
600 750 -50 callgsubr
-65 -630 -107 callsubr
                </CharString>
                <CharString name="emdash">
                    294 56 hstem
85 501 vstem
586 350 rmoveto
-491 93 callgsubr
490 hlineto
endchar
                </CharString>
                <CharString name="endash">
                    294 56 hstem
94 455 vstem
549 350 rmoveto
-444 hlineto
-11 -56 rlineto
444 hlineto
endchar
                </CharString>
                <CharString name="eogonek">
                    98 callsubr
166 62 -59 59 154 43 244 60 hstemhm
82 68 50 67 218 68 hintmask 11011111
442 -11 callgsubr
56 87 71 169 73 vhcurveto
-100 callgsubr
vhcurveto
hintmask 10111111
-134 83 -86 155 21 vhcurveto
-84 -52 -36 -51 -48 vvcurveto
hintmask 11011111
-65 84 56 callgsubr
-55 677 -80 callgsubr
                </CharString>
                <CharString name="equal">
                    81 callsubr
572 479 rmoveto
-437 hlineto
-11 -59 rlineto
436 hlineto
-36 -188 rmoveto
-436 5 callsubr
436 hlineto
endchar
                </CharString>
                <CharString name="eth">
                    -12 58 404 58 207 -20 hstem
72 71 347 69 vstem
278 -12 rmoveto
164 117 136 219 105 -33 98 -69 92 hvcurveto
110 30 -11 47 -132 -37 -33 38 -40 37 -46 36 rlinecurve
-53 -42 39 -30 33 -29 28 -30 rlinecurve
-149 -42 14 -45 170 47 34 -41 24 -41 16 -43 rlinecurve
11 -37 -35 4 -32 hhcurveto
-166 -119 -141 -164 -128 81 -87 125 hvcurveto
15 58 rmoveto
-90 -60 70 103 121 82 110 112 35 55 -9 -24 56 hvcurveto
5 -28 2 -28 -30 vvcurveto
-164 -76 -121 -121 vhcurveto
endchar
                </CharString>
                <CharString name="exclam">
                    0 110 hstem
197 254 vstem
327 253 rmoveto
27 122 66 246 31 129 rrcurveto
-92 hlineto
-22 -129 -32 -246 -24 -122 rrcurveto
20 -253 rmoveto
22 110 rlineto
-103 hlineto
-23 -110 rlineto
endchar
                </CharString>
                <CharString name="exclamdown">
                    578 110 hstem
191 254 vstem
341 688 rmoveto
-23 -110 rlineto
104 hlineto
23 110 rlineto
-130 -252 rmoveto
-28 -123 -65 -246 -31 -129 rrcurveto
92 hlineto
23 129 31 246 25 123 rrcurveto
endchar
                </CharString>
                <CharString name="f">
                    -198 58 434 74 callgsubr
94 67 236 53 118 63 vstem
450 -5 rmoveto
88 -64 106 -147 107 vhcurveto
303 -4 10 58 -336 1 rlineto
195 68 122 164 105 42 callgsubr
-146 -158 -200 -231 -81 hvcurveto
-48 hlineto
-9 -41 38 -18 rlineto
-24 -81 -13 -82 -78 vvcurveto
-174 75 -75 90 98 93 78 115 vhcurveto
-166 -135 rmoveto
-65 -58 51 144 69 11 74 19 72 hvcurveto
146 -104 60 -100 -85 vvcurveto
-75 -52 -46 -61 vhcurveto
endchar
                </CharString>
                <CharString name="f.lig">
                    -167 58 403 74 callgsubr
95 69 234 52 118 63 vstem
450 10 rmoveto
84 -64 100 -146 102 vhcurveto
302 -4 10 58 -337 1 rlineto
192 67 122 167 107 42 callgsubr
-147 -160 -204 -227 -80 hvcurveto
-46 hlineto
-9 -41 36 -18 rlineto
-22 -75 -12 -76 -70 vvcurveto
-169 74 -69 90 98 93 72 105 vhcurveto
-166 -119 rmoveto
-65 -55 45 141 62 10 66 17 66 hvcurveto
146 -99 61 -93 -78 vvcurveto
-70 -53 -40 -61 vhcurveto
endchar
                </CharString>
                <CharString name="five">
                    -4 66 -41 -21 626 62 hstemhm
458 67 hintmask 10110000
525 214 rmoveto
83 -70 78 -223 45 vhcurveto
50 206 rlineto
292 hlineto
18 62 rlineto
-360 hlineto
-76 -314 rlineto
229 -40 73 -63 -70 vvcurveto
-79 -88 -83 -294 29 99 callgsubr
337 -29 121 127 116 vvcurveto
endchar
                </CharString>
                <CharString name="five.den">
                    13 callgsubr
102 callsubr
vstem
398 -96 -102 callgsubr
                </CharString>
                <CharString name="five.inf">
                    -170 53 338 50 hstem
355 57 vstem
412 -30 -102 callgsubr
                </CharString>
                <CharString name="five.num">
                    469 77 callgsubr
hstem
467 57 vstem
-24 callgsubr
endchar
                </CharString>
                <CharString name="five.small">
                    -3 53 -29 -21 388 50 hstemhm
381 57 hintmask 10110000
438 137 -104 callsubr
hintmask 01110000
-7 -54 rlineto
hintmask 10110000
241 -19 85 80 76 vvcurveto
endchar
                </CharString>
                <CharString name="five.sup">
                    367 53 338 50 hstem
447 57 vstem
504 507 -102 callgsubr
                </CharString>
                <CharString name="fiveeighths">
                    14 callgsubr
107 53 182 -20 176 58 callgsubr
80 57 hintmask 1111111011100000
-24 callgsubr
-447 -295 -82 callsubr
hintmask 1111111101100000
-47 callsubr
hintmask 1111111011100000
28 callsubr
hintmask 1111111101100000
-82 callgsubr
                </CharString>
                <CharString name="fivesixths">
                    96 callgsubr
107 77 callgsubr
hstem
88 68 callgsubr
56 57 vstem
-24 callgsubr
-447 -295 -62 callgsubr
155 -605 -102 callsubr
                </CharString>
                <CharString name="four">
                    0 214 -63 63 477 93 callsubr
69 492 hintmask 01011000
542 151 rmoveto
19 63 rlineto
-86 hlineto
49 250 -67 -6 -47 -244 rlineto
-269 hlineto
hintmask 01101000
88 136 66 122 70 219 rrcurveto
hintmask 01011000
-75 4 -64 -213 -62 -130 -92 -154 rlinecurve
-3 -47 rlineto
328 hlineto
hintmask 10011000
-29 -151 rlineto
65 hlineto
hintmask 01011000
30 151 rlineto
endchar
                </CharString>
                <CharString name="four.den">
                    -139 49 hstem
74 353 vstem
412 -139 -90 callgsubr
                </CharString>
                <CharString name="four.inf">
                    -73 49 hstem
88 353 vstem
426 -73 -90 callgsubr
                </CharString>
                <CharString name="four.num">
                    566 49 hstem
200 353 vstem
538 566 -90 callgsubr
                </CharString>
                <CharString name="four.small">
                    0 143 -49 49 hstemhm
114 353 hintmask 01100000
452 94 -96 callgsubr
hintmask 10100000
-18 -94 rlineto
54 hlineto
hintmask 01100000
18 94 rlineto
endchar
                </CharString>
                <CharString name="four.sup">
                    464 49 hstem
180 353 vstem
518 464 -90 callgsubr
                </CharString>
                <CharString name="fourfifths">
                    8 callsubr
204 49 102 callsubr
vstem
538 566 -97 callgsubr
-405 -252 -80 callsubr
                </CharString>
                <CharString name="fraction">
                    -178 1013 hstem
-34 699 vstem
22 -178 rmoveto
643 982 -54 31 -645 -982 rlineto
endchar
                </CharString>
                <CharString name="fraction.afrc">
                    314 48 hstem
77 490 vstem
77 314 -62 callgsubr
endchar
                </CharString>
                <CharString name="g">
                    14 callsubr
hstemhm
74 69 277 52 hintmask 10111100
236 89 -85 callgsubr
hintmask 01111100
-8 -70 rlineto
hintmask 10111100
18 callsubr
                </CharString>
                <CharString name="gbreve">
                    14 callsubr
89 58 99 callsubr
583 825 -103 callgsubr
-388 -709 -67 callsubr
                </CharString>
                <CharString name="gcommaaccent">
                    14 callsubr
hstemhm
74 69 193 87 -3 52 hintmask 10111100
474 843 48 callsubr
-238 -754 -50 callsubr
hintmask 10111010
-87 callgsubr
hintmask 01111010
-8 -70 rlineto
hintmask 10111010
18 callsubr
                </CharString>
                <CharString name="gdotaccent">
                    14 callsubr
93.5 -27 callsubr
99 callsubr
422 645 -46 callsubr
-114 -555 -67 callsubr
                </CharString>
                <CharString name="germandbls">
                    -7 62 -55 55 661 60 hstemhm
480 70 -57 71 hintmask 10110000
230 -7 rmoveto
236 -16 84 80 91 vvcurveto
69 -60 76 -100 82 vhcurveto
hintmask 01101000
115 103 59 85 81 vvcurveto
73 -45 59 -95 -126 -98 -98 -164 -31 vhcurveto
-101 -514 rlineto
70 hlineto
100 519 rlineto
127 26 59 70 81 hhcurveto
59 30 -37 -50 -73 -53 -71 -135 -125 hvcurveto
hintmask 10110000
124 -98 51 -70 -55 vvcurveto
-60 -63 -37 -178 20 vhcurveto
endchar
                </CharString>
                <CharString name="grave">
                    6 callsubr
                </CharString>
                <CharString name="grave.cap">
                    6 callsubr
                </CharString>
                <CharString name="greater">
                    -19 677 hstem
80 465 vstem
112 -19 rmoveto
422 299 11 61 -309 317 -48 -47 286 -290 -2 -10 -392 -276 rlineto
endchar
                </CharString>
                <CharString name="greaterequal">
                    21 60 hstem
47 501 vstem
471 390 rmoveto
-2 -8 -369 -182 17 -57 420 209 11 57 -326 241 -37 -51 rlineto
308 -518 74 callsubr
                </CharString>
                <CharString name="guillemotleft">
                    9 -21 565 -20 21 -20 hstemhm
64 564 hintmask 10110000
211 -12 10 callgsubr
rlineto
hintmask 11010000
61 callgsubr
                </CharString>
                <CharString name="guillemotleft.cap">
                    63 566 hstem
79 564 vstem
226 63 10 callgsubr
61 callgsubr
                </CharString>
                <CharString name="guillemotright">
                    8 -21 23 -21 564 -20 hstemhm
19 563 hintmask 10110000
327 -13 39 callsubr
hintmask 01110000
18 callgsubr
                </CharString>
                <CharString name="guillemotright.cap">
                    62 566 hstem
34 563 vstem
342 62 39 callsubr
18 callgsubr
                </CharString>
                <CharString name="guilsinglleft">
                    557 -20 hstem
144 373 vstem
359 -18 40 callgsubr
                </CharString>
                <CharString name="guilsinglleft.cap">
                    57 575 hstem
159 373 vstem
374 57 40 callgsubr
                </CharString>
                <CharString name="guilsinglright">
                    5 -21 575 -20 hstem
100 373 vstem
140 -16 32 callgsubr
                </CharString>
                <CharString name="guilsinglright.cap">
                    59 575 hstem
115 373 vstem
155 59 32 callgsubr
                </CharString>
                <CharString name="h">
                    -11 63 -31 -21 486 65 229 -20 66 callgsubr
hintmask 10111000
70 callgsubr
hintmask 01110100
-22 callsubr
-81 -44 -88 -81 vhcurveto
70 361 -70 -6 -150 -774 rlineto
69 hlineto
69 356 73 callgsubr
hintmask 10110100
-92 -75 -188 -87 vvcurveto
hintmask 10111000
19 callgsubr
                </CharString>
                <CharString name="hbar">
                    -11 63 -31 -21 485 65 97 48 -48 133 66 callgsubr
hintmask 10110100
70 callgsubr
hintmask 10110010
66 77 194 109 vvcurveto
57 -26 44 -68 -69 -81 -44 -87 -81 vhcurveto
44 228 rlineto
154 hlineto
9 48 rlineto
-153 hlineto
hintmask 10101100
16 85 -70 -6 rlineto
hintmask 01110010
-15 -79 rlineto
-82 hlineto
-10 -48 rlineto
82 hlineto
-125 -647 rlineto
69 hlineto
69 355 73 callgsubr
hintmask 10110010
-92 -75 -188 -86 vvcurveto
hintmask 10110100
19 callgsubr
                </CharString>
                <CharString name="hcoslug">
                    -100 75 5 10 -6 10 -4 11 -10 10 -9 7 0 12 -11 11 -7 15 -15 26 -25 26 -15 8 -8 15 -12 12 0 14 -9 10 -10 19 -9 11 2 8 -7 32 71.5 22.5 514 -20 hstemhm
87 64 10 16 -3 8 5 40 -35 12 -1 12 14 10 -2 10 -10 42 -31 9 -1 7 3 12 -6 11 9 40 -29 13 -9 10 0 12 -4 11 -2 12 -5 16 18 11 10 8 hintmask 000000100000000000010110000010000010000010010000
537 700 rmoveto
-450 hlineto
hintmask 100000000000000000011010000000100000001000000000
-800 450 vlineto
-300 396 rmoveto
-17 11 -11 17 -16 vhcurveto
9 13 5 12 12 vvcurveto
18 -9 11 -13 -12 -8 -9 -13 vhcurveto
49 -64 rmoveto
12 -12 9 -12 9 -11 15 25 3 18 -17 17 -7 -7 -10 -9 -14 -9 rrcurveto
-39 -93 rmoveto
12 9 3 6 8 hvcurveto
88 callgsubr
22 -14 13 rrcurveto
-8 -8 -4 -11 -11 vvcurveto
-23 17 -18 22 vhcurveto
91 34 rmoveto
-22 19 13 -9 15 hhcurveto
15 9 9 13 8 hvcurveto
5 -1 rlineto
-44 -1 -27 -27 -32 hhcurveto
-22 -17 8 26 -25 hvcurveto
-23 -21 -25 -11 -32 hhcurveto
-45 -36 30 40 31 21 24 40 13 hvcurveto
-16 17 -7 13 22 vvcurveto
32 31 32 51 46 25 -30 -26 -10 -2 -8 -5 -7 vhcurveto
20 15 -8 -20 2 hvcurveto
18 12 14 10 19 hhcurveto
21 16 -15 -24 -23 -16 -17 -21 -14 -12 7 12 -6 hvcurveto
-12 -7 -12 -10 -11 -15 rrcurveto
hintmask 000000000000000000010000000000000100000000000000
-72 -105 rmoveto
-8 10 -5 -10 vlineto
hintmask 000000000000000010000000000000000100000000000000
-15 vlineto
-3 1 -1 2 2 1 1 4 1 vhcurveto
4 -1 rlineto
-2 -7 -3 -3 -6 -6 -3 4 48 callgsubr
hintmask 000000000000000001000000000000010000000000000000
15 -5 5 5 7 vlineto
hintmask 000000000000000100000000100000000000000000000000
-75 -21 35 callsubr
54 callsubr
22 hmoveto
-6 callgsubr
hintmask 000000000000001000000000000000000000000100000000
132 -1 rmoveto
0 6 -2 4 -3 -5 -1 -5 48 callgsubr
0 -6 1 -4 5 3 2 4 48 callgsubr
54 callsubr
-120 -9 rmoveto
4 hlineto
hintmask 000000000000000001000010000000000000000000000000
19 -4 5 vlineto
hintmask 000000000000000000010000000010000000000000000000
13 -6 hlineto
4 2 3 3 5 hhcurveto
7 2 -5 -6 hvcurveto
hintmask 000000000000000100000000000000010000000000000000
-14 5 -5 vlineto
hintmask 000000000010000000000000000010000000000000000000
-17 5 3 hlineto
hintmask 000000000000000001000000000010000000000000000000
13 vlineto
3 -1 3 -3 -3 -3 -3 -5 vhcurveto
-11 3 -5 vlineto
54 callsubr
-16 hlineto
-71 5 rmoveto
6 hlineto
hintmask 000000000000000000100010000000000000000000000000
31 -6 5 vlineto
hintmask 000000000000000000010000001000000000000000000000
38 hlineto
hintmask 000000000000000001000000001000000000000000000000
-15 -5 vlineto
8 -2 -1 2 -6 hhcurveto
-8 hlineto
hintmask 000000000000000000100001000000000000000000000000
-14 3 vlineto
4 0 1 5 1 hvcurveto
5 hlineto
hintmask 000000000000000100000000100000000000000000000000
-17 -5 vlineto
5 -1 0 1 -4 hhcurveto
-3 hlineto
hintmask 000000000000000100000001000000000000000000000000
-12 7 -5 vlineto
54 callsubr
-23 hlineto
hintmask 000000000000000010000000000000000100000000000000
133 10 rmoveto
5 hlineto
-4 3 3 -3 3 hhcurveto
3 1 2 1 hvcurveto
hintmask 000000000000000000100000000000000100000000000000
7 -18 -4 12 vvcurveto
4 4 5 7 3 3 -1 -3 2 vhcurveto
1 4 rlineto
5 -10 -5 hlineto
4 -3 -2 1 -3 hhcurveto
-2 -2 -1 -2 hvcurveto
hintmask 000000000010000000000000000000000000100000000000
-5 18 2 -11 vvcurveto
-5 -3 -4 -7 -5 -3 2 2 -2 vhcurveto
-1 -3 rlineto
-5 hlineto
hintmask 000000000000000000100000000000000000100000000000
38 38 rmoveto
-5 5 hlineto
hintmask 000000000000000000010000000000000000000100000000
14 hlineto
hintmask 000000000000000000100000000000000000000100000000
-20 vlineto
4 1 4 3 4 hhcurveto
hintmask 000000000100000000000000000000000000000010000000
7 0 5 -6 0 -9 0 -7 -3 -9 0 flex1
-6 -3 2 4 -2 hvcurveto
-3 -6 rlineto
-4 hlineto
hintmask 100000000000000000010000000000000000000010000000
39 -6 rmoveto
3 3 2 4 hvcurveto
-3 7 -9 18 0 vvcurveto
-3 5 18 -5 -4 hlineto
7 -15 6 15 rlineto
-4 5 13 -5 -4 hlineto
hintmask 000000001000000000000000000000000000000010000000
-10 -24 rlineto
-7 -3 -4 -5 -6 hhcurveto
-6 -3 3 4 3 2 2 3 hvcurveto
hintmask 100000000000000000010000000000000000000010000000
5 1 -5 -2 -2 hvcurveto
hintmask 000000010000000000000000000000000000000000000000
45 -24 rmoveto
-6 -4 vlineto
-2 -4 -2 -3 -3 -3 rrcurveto
2 -2 2 -2 1 1 1 1 1 hflex1
3 -1 rlineto
-5 -1 -2 -4 -6 hhcurveto
hintmask 100000000000000000000000000000000000000001000000
-4 0 -2 2 -3 3 -3 -3 -4 -2 -6 flex1
-7 -5 4 6 6 4 3 6 2 hvcurveto
-3 3 -2 3 4 vvcurveto
hintmask 000000000001000000000000000000000000000000100000
5 4 6 9 6 4 -4 -5 -5 -3 -2 -5 -3 vhcurveto
2 -2 4 -5 3 -3 2 2 2 3 1 2 rrcurveto
-5 6 hlineto
hintmask 000000000100000000000000000000000010000000000000
-114 4 rmoveto
11 4 hlineto
-3 -2 2 2 2 1 1 0 hvcurveto
0 -1 1 -2 -2 -2 -2 -6 vhcurveto
hintmask 100000000000000000000000000000000000000000010000
132 -13 rmoveto
hintmask 000100000000000000000000000000000000000000010000
15 9 8 11 vhcurveto
hintmask 000100000000000000000000000000000000000000000000
5 4 -2 -3 3 hvcurveto
4 6 vlineto
-16 -6 vlineto
hintmask 000000100000000000000000000000000000000000000000
9 -3 -2 3 -6 hhcurveto
-6 -4 -5 -12 hvcurveto
75 callgsubr
-11 4 -6 8 vhcurveto
hintmask 000010000000000000000000000000000000000000000000
6 3 6 6 1 hvcurveto
6 hlineto
hintmask 100000000000000000000000000000000000000000000000
-10 -1 -6 -7 -11 hhcurveto
hintmask 100000000000000000000000000000000000000000010000
-13 -8 7 14 hvcurveto
hintmask 000000100000000000000000000000000000000000100000
-29 4 rmoveto
2 1 2 3 3 vvcurveto
3 -2 2 -3 -2 -2 -1 -3 -2 2 -3 3 -3 vhcurveto
hintmask 010000000000000000000000000000000000010000000000
-68 -11 rmoveto
72 callsubr
hintmask 100000000000000000000000000000000000010000000000
-6 -1 -4 -5 -8 hhcurveto
-10 -6 6 9 hvcurveto
hintmask 000000000010000000000000000000000000010000000000
10 7 6 8 11 4 -7 -10 -1 vhcurveto
hintmask 010000000000000000000000000001000000000000000000
-89 hmoveto
72 callsubr
75 callsubr
-6 -1 -4 -5 -8 hhcurveto
hintmask 100000000000000000000000010000000000000000000000
-10 -6 6 9 hvcurveto
hintmask 000000000010000000000000010000000000000000000000
10 7 6 8 vhcurveto
hintmask 000000000010000000000000000000001000000000000000
11 4 -7 -10 -1 hvcurveto
hintmask 010000000000000000000010000001000000000000000000
-63 2 35 callsubr
252 hmoveto
75 callgsubr
45 callgsubr
hintmask 010000000000000000000010000001000000000000000000
45 callsubr
hintmask 000001000000000000000000000001000000010000000000
-138 2 rmoveto
71 callgsubr
-70 hmoveto
71 callgsubr
hintmask 010000000000000000000000000100000000000000000000
-22 -2 rmoveto
-6 callgsubr
75 callgsubr
252 hmoveto
-6 callgsubr
75 callsubr
-208 -10 rmoveto
4 hlineto
hintmask 000001000000000000000000000000001000000000000000
19 -5 5 5 1 vlineto
hintmask 000000000000010000000000000000001000000000000000
10 7 4 6 4 2 -1 -1 2 vhcurveto
8 2 rlineto
hintmask 010000000000000000000000000000000000100000000000
-39 4 -5 vlineto
hintmask 100000000000000000000000000000000010000000000000
-17 5 4 hlineto
hintmask 000001000000000000000000000000000010000000000000
19 -11 vlineto
hintmask 010000000000000000000000000000000010000000000000
-19 4 -5 vlineto
75 callsubr
-17 hlineto
hintmask 100000000000000000000000000000000001000000000000
69 5 rmoveto
4 hlineto
hintmask 000001000000000000000000000000000001000000000000
19 -4 5 vlineto
hintmask 000000000010000000000000000000000000000001000000
13 -6 hlineto
5 2 3 2 4 hhcurveto
4 2 -2 -4 -3 -2 -2 -3 -2 -3 1 3 hvcurveto
1 vlineto
-1 -3 -3 -4 -1 hvcurveto
hintmask 010000000000000000000000000000000000000001000000
-12 6 -5 vlineto
hintmask 100000000000000000000000000000000001000000000000
-19 hlineto
hintmask 100000000000000000000010000000000000000000000000
-183 5 rmoveto
6 hlineto
hintmask 000000100000000000000010000000000000000000000000
31 -6 5 vlineto
hintmask 000000000000100000000001000000000000000000000000
21 -5 -5 hlineto
hintmask 000000100000000000000001000000000000000000000000
-12 16 12 -5 5 vlineto
hintmask 000000000000100000000000000100000000000000000000
21 -5 -6 hlineto
hintmask 010000000000000000000000000100000000000000000000
-31 6 -5 vlineto
hintmask 100000000000000000000001000000000000000000000000
-21 5 5 hlineto
hintmask 001000000000000000000001000000000000000000000000
14 -16 vlineto
hintmask 010000000000000000000001000000000000000000000000
-14 5 -5 vlineto
hintmask 100000000000000000000010000000000000000000000000
-21 hlineto
hintmask 100000000000000000000000000000000000000000100000
234 7 rmoveto
-2 2 -4 5 -4 4 rrcurveto
-2 -2 -1 -2 -3 vvcurveto
-4 3 -3 4 2 2 1 2 2 vhcurveto
111 -2 rmoveto
0 -3 -2 -3 -4 -4 -2 3 48 callgsubr
0 3 2 3 4 4 2 -3 48 callgsubr
endchar
                </CharString>
                <CharString name="hungarumlaut">
                    -24 callsubr
                </CharString>
                <CharString name="hungarumlaut.cap">
                    -24 callsubr
                </CharString>
                <CharString name="hyphen">
                    292 61 hstem
144 340 vstem
484 353 rmoveto
-328 hlineto
-12 -61 rlineto
328 hlineto
endchar
                </CharString>
                <CharString name="i">
                    39 callgsubr
112 148 46 callsubr
63 callgsubr
193 -583 -91 callsubr
                </CharString>
                <CharString name="iacute">
                    39 callgsubr
262 -20 46 callsubr
242 651 -107 callgsubr
285 -604 -91 callsubr
                </CharString>
                <CharString name="ibreve">
                    39 callgsubr
108 58 46 callsubr
559 813 -103 callgsubr
-73 -739 -91 callsubr
                </CharString>
                <CharString name="icircumflex">
                    51 callsubr
513 620 -98 callsubr
129 -707 -91 callsubr
                </CharString>
                <CharString name="idieresis">
                    -11 63 488 26 callgsubr
4 callgsubr
202 72 hintmask 11011000
514 635 -40 callgsubr
320 -584 -91 callsubr
                </CharString>
                <CharString name="igrave">
                    51 callsubr
488 642 -88 callsubr
59 -565 -91 callsubr
                </CharString>
                <CharString name="imacron">
                    39 callgsubr
158 60 46 callsubr
569 738 -50 callgsubr
-30 -631 -91 callsubr
                </CharString>
                <CharString name="iogonek">
                    98 callsubr
166 63 488 -20 112 148 hstemhm
182 67 -48 73 hintmask 11110100
63 callgsubr
hintmask 11111000
90 -815 -13 callsubr
45 48 55 230 87 vhcurveto
-10 40 rlineto
hintmask 11110100
-227 -63 -35 23 26 102 102 389 rcurveline
-51 callsubr
-27 -100 26 -55 101 5 rlinecurve
hintmask 11111000
-95 -51 -34 -50 -47 vvcurveto
-65 84 56 callgsubr
endchar
                </CharString>
                <CharString name="j">
                    -193 69 664 -20 112 150 hstem
363 25.19 vstem
469 634 rmoveto
45 148 -80 -4 -37 -148 rlineto
-383 -823 rmoveto
209 2 62 13 38 38 71 71 -70 187 123 421 -63 1 rcurveline
-239 -48 7 -38 211 24 -97 -368 53 -166 -45 -45 rlinecurve
-22 -22 -27 -4 -207 3 rrcurveto
endchar
                </CharString>
                <CharString name="k">
                    70 callsubr
499 75 hintmask 10011100
468 -6 rmoveto
hintmask 00111100
10 callsubr
hintmask 01011100
15 callgsubr
endchar
                </CharString>
                <CharString name="kcommaaccent">
                    70 callsubr
236 87 176 75 hintmask 10011110
468 -6 rmoveto
hintmask 00111110
10 callsubr
hintmask 01011110
15 callgsubr
-69 -515 -93 callgsubr
                </CharString>
                <CharString name="l">
                    -9 60 662 70 hstem
152 71 306 -54 callgsubr
endchar
                </CharString>
                <CharString name="l.ultra">
                    -7 61 659 70 hstem
144 71 306 67 vstem
506 72 rmoveto
-16 39 -168 -87 -92 7 -13 135 rlinecurve
266 198 105 179 78 callsubr
-36 41 -64 -150 -194 -295 -299 -214 138 -38 224 135 vhcurveto
-41 104 callgsubr
34 22 -24 -45 -98 -80 -152 -226 -178 hvcurveto
256 5 143 241 102 hhcurveto
endchar
                </CharString>
                <CharString name="lacute">
                    71 callsubr
vstem
431 892 -107 callgsubr
82 -820 -103 callsubr
endchar
                </CharString>
                <CharString name="lcaron">
                    71 callsubr
109 85 vstem
705 -23 callsubr
-277 -818 -103 callsubr
endchar
                </CharString>
                <CharString name="lcommaaccent">
                    58 callsubr
39 87 180 -54 callgsubr
-262 -1009 -93 callgsubr
                </CharString>
                <CharString name="ldot">
                    -9 60 245 109 308 70 hstem
152 71 306 -54 callgsubr
181 -417 rmoveto
24 109 rlineto
-88 hlineto
-25 -109 rlineto
endchar
                </CharString>
                <CharString name="less">
                    -19 677 hstem
109 465 vstem
542 658 rmoveto
-422 -298 -11 -61 309 -318 48 48 -286 289 2 10 392 276 rlineto
endchar
                </CharString>
                <CharString name="lessequal">
                    21 60 hstem
47 524 vstem
202 389 rmoveto
369 205 -21 55 -416 -234 -13 -59 341 -209 34 52 -296 181 rlineto
293 -299 74 callsubr
                </CharString>
                <CharString name="lslash">
                    86 callsubr
93 53 hstemhm
152 71 -46 49 303 67 hintmask 11101100
177 800 rmoveto
-38 28 -33 44 -31 vhcurveto
37 46 rlineto
-40 30 -20 19 19 vvcurveto
56 210 46 286 -83 vhcurveto
23 57 rlineto
-313 87 -255 -63 -112 vvcurveto
336 -728 rmoveto
-15 39 rlineto
hintmask 11110100
9 callgsubr
rrcurveto
-81 callsubr
rrcurveto
hintmask 11101100
-14 callsubr
hintmask 11110100
-64 callsubr
endchar
                </CharString>
                <CharString name="m">
                    -10 57 -26 -21 485 65 -9 -20 hstemhm
324 63 59 70 7 72 hintmask 10101100
593 23 rmoveto
-12 38 rlineto
-52 -21 -13 3 23 vvcurveto
hintmask 10101010
61 79 240 106 vvcurveto
50 -23 27 -41 -41 -50 -30 -60 -53 vhcurveto
59 3 -23 31 -42 hhcurveto
-38 -47 -27 -56 -49 hvcurveto
hintmask 01011010
3 25 5 31 2 18 -65 -5 rcurveline
-26 -159 -22 -121 -51 -256 rrcurveto
67 hlineto
hintmask 01101010
22 113 37 189 21 111 rrcurveto
48 44 40 24 26 hhcurveto
33 3 -36 -59 -12 hvcurveto
-77 -390 rlineto
60 hlineto
81 411 rlineto
50 45 41 24 26 hhcurveto
21 8 -16 -26 hvcurveto
hintmask 10101010
-87 -77 -239 -77 vvcurveto
hintmask 10101100
-58 45 -12 102 53 vhcurveto
endchar
                </CharString>
                <CharString name="macron">
                    31 callgsubr
                </CharString>
                <CharString name="macron.cap">
                    31 callgsubr
                </CharString>
                <CharString name="minus">
                    292 60 hstem
99 448 vstem
547 352 rmoveto
-436 5 callsubr
435 hlineto
endchar
                </CharString>
                <CharString name="mu">
                    -174 -21 184 65 -63 61 487 93 callsubr
400 71 hintmask 10101100
101 -190 rmoveto
hintmask 11001100
36 207 rlineto
-19 14 23 -9 30 hhcurveto
65 64 46 89 74 hvcurveto
hintmask 10110100
-25 -131 41 -45 158 91 -9 36 rcurveline
-105 -46 -6 23 17 85 78 402 rcurveline
-67 hlineto
-70 -353 rlineto
hintmask 11001100
-88 -78 -59 -44 -53 hhcurveto
-52 -21 39 96 19 hvcurveto
69 354 -71 -6 -142 -732 rlineto
endchar
                </CharString>
                <CharString name="multiply">
                    538 -20 hstem
83 478 vstem
453 106 rmoveto
52 42 -137 170 193 161 -38 50 -194 -162 -138 171 -51 -43 137 -170 -194 -162 40 -49 194 161 rlineto
endchar
                </CharString>
                <CharString name="n">
                    52 callsubr
576 38 -51 callgsubr
                </CharString>
                <CharString name="nacute">
                    52 callsubr
252 662 -107 callgsubr
324 -624 -51 callgsubr
                </CharString>
                <CharString name="naira">
                    0 111 -90 -21 198.5 58 -56 58.5 -57.5 51 171 57.5 -55 58 -52.5 51 88.5 119 -2 103 callsubr
19 615 hintmask 1000100110010000
229 571 rmoveto
6 hlineto
24 -89 rlineto
-47 hlineto
169 -229 rmoveto
-47 178 153 1 -34 -178 rlineto
-285 -2 rmoveto
34 179 rlineto
71 hlineto
48 -178 rlineto
98 -142 rmoveto
-24 92 rlineto
49 hlineto
-18 -92 rlineto
-37 -111 rmoveto
70 hlineto
hintmask 0101001001010000
39 200 81 1 11 58 rlineto
-81 hlineto
33 167 rlineto
81 hlineto
11 59 -81 -2 40 205 rlineto
-57 hlineto
hintmask 0100100100110000
-39 -205 -176 -1 -55 208 -71 -3 rlineto
hintmask 0110010000110000
-40 -206 rlineto
-81 hlineto
-12 -58 82 1 -32 -167 -82 -1 -11 -58 81 1 -38 -199 rlineto
58 hlineto
hintmask 0100100100110000
38 201 176 1 rlineto
endchar
                </CharString>
                <CharString name="ncaron">
                    12 callsubr
178 -20 66 callgsubr
hintmask 10101100
373 628 -90 callsubr
206 -590 -49 callgsubr
endchar
                </CharString>
                <CharString name="ncommaaccent">
                    12 callsubr
hstemhm
210 87 93 73 2 75 hintmask 10101100
576 38 -49 callgsubr
-417 -336 -93 callgsubr
                </CharString>
                <CharString name="nine">
                    273 54 315 60 hstem
119 66 314 68 vstem
129 -21 rmoveto
327 106 111 210 178 vvcurveto
156 -89 73 -115 -135 -109 -101 -145 -185 199 -65 167 150 vhcurveto
-33 -115 -100 -126 -239 -71 rrcurveto
72 422 rmoveto
99 64 77 100 81 69 -50 -137 -15 -1 -15 -2 -16 vhcurveto
-153 -141 -158 54 144 vvcurveto
endchar
                </CharString>
                <CharString name="nine.den">
                    -174 -21 137 41 29 -21 178 47 hstemhm
108 54 213 56 hintmask 11011100
127 -245 -38 callsubr
vhcurveto
hintmask 11111100
-31 callgsubr
hintmask 11011100
-56 callsubr
                </CharString>
                <CharString name="nine.inf">
                    8 83 callgsubr
122 86 callgsubr
141 -179 -79 callgsubr
                </CharString>
                <CharString name="nine.num">
                    647 83 callgsubr
234 86 callgsubr
253 460 -79 callgsubr
                </CharString>
                <CharString name="nine.small">
                    9 -21 187 83 callgsubr
148 86 callgsubr
167 -12 -79 callgsubr
                </CharString>
                <CharString name="nine.sup">
                    545 83 callgsubr
214 86 callgsubr
233 358 -79 callgsubr
                </CharString>
                <CharString name="notequal">
                    81 callsubr
512 172 rmoveto
12 60 rlineto
-222 hlineto
106 188 rlineto
152 hlineto
12 59 rlineto
-131 hlineto
81 143 -52 18 -91 -161 rlineto
-244 hlineto
-11 -59 rlineto
222 hlineto
-106 -188 rlineto
-152 5 callsubr
131 hlineto
-81 -143 51 -18 91 161 rlineto
endchar
                </CharString>
                <CharString name="ntilde">
                    12 callsubr
120 98 callgsubr
66 callgsubr
hintmask 10101110
476 697 -84 callgsubr
100 -659 -19 callgsubr
hintmask 10101101
-33 callsubr
hintmask 01011110
-60 callsubr
hintmask 10101101
-32 callgsubr
hintmask 10101110
19 callgsubr
                </CharString>
                <CharString name="numbersign">
                    8 -21 552 -20 171 -20 42 -20 hstemhm
44 564 hintmask 11011000
229 252 rmoveto
43 174 150 24 -43 -174 rlineto
-217 -289 rmoveto
51 203 150 24 -51 -205 53 6 52 207 119 19 14 62 -117 -19 43 174 119 19 13 62 -116 -18 50 198 -54 -7 -50 -200 -150 -24 rlineto
hintmask 11101000
51 202 -53 -6 -52 -204 -118 -19 -13 -62 115 18 -44 -174 -116 -18 -14 -62 115 18 -51 -200 rlineto
endchar
                </CharString>
                <CharString name="numero">
                    20 -21 22 -21 138 55 60 57 325 57 -4 -20 hstemhm
409 58 137 58 hintmask 01111011
578 692 rmoveto
-89 -80 -143 -160 -92 32 -44 51 89 81 143 161 91 -32 44 -52 hvcurveto
hintmask 10110111
-351 -692 rmoveto
58 -1 134 688 -60 1 -94 -502 rlineto
-2 hlineto
-36 502 rlineto
-62 hlineto
hintmask 01111011
-135 -688 rlineto
60 hlineto
100 532 rlineto
2 hlineto
275 -137 rmoveto
110 50 130 48 23 16 -30 -54 -110 -51 -131 -48 -22 -16 31 54 vhcurveto
112 -257 rmoveto
11 55 rlineto
-217 hlineto
-11 -55 rlineto
endchar
                </CharString>
                <CharString name="o">
                    -5 callsubr
553 333 -106 callsubr
                </CharString>
                <CharString name="oacute">
                    -5 callsubr
258 663 -107 callgsubr
295 -330 -106 callsubr
                </CharString>
                <CharString name="obreve">
                    29 callgsubr
88 58 1 callgsubr
575 825 -103 callgsubr
-63 -465 -106 callsubr
                </CharString>
                <CharString name="ocircumflex">
                    -5 callsubr
529 632 -98 callsubr
139 -433 -106 callsubr
                </CharString>
                <CharString name="odieresis">
                    29 callgsubr
-25 callgsubr
71 71 340 71 hintmask 11011100
530 647 16 callsubr
-310 -106 callsubr
                </CharString>
                <CharString name="oe">
                    -10 58 -57 64 433 61 -58 58 hstemhm
52 68 439 66 hintmask 01011100
325 377 rmoveto
hintmask 10011100
-138 -63 -191 -78 -39 -25 41 79 132 69 191 77 vhcurveto
hintmask 01011100
39 20 -42 -72 hvcurveto
hintmask 01101100
189 111 rmoveto
28 17 -22 -39 -86 -71 -72 -112 -19 hvcurveto
118 18 54 120 66 hhcurveto
65 -424 rmoveto
-13 34 rlineto
-144 -81 -53 39 114 vvcurveto
12 0 12 1 12 vhcurveto
163 22 92 92 119 vvcurveto
hintmask 10011100
69 -34 41 -56 -60 -53 -49 -70 -40 vhcurveto
75 -11 -35 44 -57 hhcurveto
-127 -100 -198 -184 -120 43 -57 70 58 52 45 67 40 hvcurveto
hintmask 01101100
18 -117 83 -44 163 123 rrcurveto
endchar
                </CharString>
                <CharString name="ogonek">
                    -16 callgsubr
                </CharString>
                <CharString name="ogonek.cap">
                    -16 callgsubr
                </CharString>
                <CharString name="ograve">
                    -5 callsubr
504 654 -88 callsubr
69 -291 -106 callsubr
                </CharString>
                <CharString name="ohungarumlaut">
                    -5 callsubr
251 632 -79 callsubr
103 -324 -106 callsubr
                </CharString>
                <CharString name="omacron">
                    29 callgsubr
138 60 1 callgsubr
585 750 -50 callgsubr
-20 -357 -106 callsubr
                </CharString>
                <CharString name="one">
                    0 61 657 -20 hstem
69 443 vstem
495 hmoveto
17 61 rlineto
-172 hlineto
127 657 -70 -5 -16 -85 -184 -22 -8 -52 179 10 -97 -503 rlineto
-190 hlineto
-12 -61 rlineto
endchar
                </CharString>
                <CharString name="one.den">
                    -233 50 hstem
65 334 vstem
387 -233 -96 callsubr
endchar
                </CharString>
                <CharString name="one.inf">
                    -167 50 hstem
79 334 vstem
401 -167 -96 callsubr
endchar
                </CharString>
                <CharString name="one.num">
                    472 50 hstem
191 334 vstem
-77 callsubr
endchar
                </CharString>
                <CharString name="one.small">
                    0 50 hstem
105 334 vstem
427 hmoveto
-99 callsubr
endchar
                </CharString>
                <CharString name="one.sup">
                    370 50 hstem
171 334 vstem
493 370 -96 callsubr
endchar
                </CharString>
                <CharString name="oneeighth">
                    14 callgsubr
110 58 callgsubr
hintmask 11111011
513 472 rmoveto
12 50 rlineto
-128 hlineto
81 408 -58 -5 -13 -68 -143 -18 -7 -44 139 10 -55 -283 rlineto
-140 hlineto
-10 -50 rlineto
-114 -158 -82 callsubr
hintmask 11111101
-47 callsubr
hintmask 11111011
28 callsubr
hintmask 11111101
-82 callgsubr
                </CharString>
                <CharString name="onefifth">
                    8 callsubr
110 50 102 callsubr
vstem
513 472 rmoveto
12 50 rlineto
-128 hlineto
81 408 -58 -5 -13 -68 -143 -18 -7 -44 139 10 -55 -283 rlineto
-140 hlineto
-10 -50 rlineto
-114 -158 -80 callsubr
                </CharString>
                <CharString name="onehalf">
                    -233 51 338 54 104 48 110 50 hstem
356 62 -56 callgsubr
286 -595 -91 callgsubr
endchar
                </CharString>
                <CharString name="onequarter">
                    -139 49 404 48 110 50 hstem
74 493 -56 callgsubr
325 -501 -90 callgsubr
                </CharString>
                <CharString name="onesixth">
                    96 callgsubr
110 50 hstem
88 56 213 54 -56 callgsubr
155 -605 -102 callsubr
                </CharString>
                <CharString name="onethird">
                    57 callsubr
109 48 110 50 hstem
340 57 vstem
513 472 rmoveto
12 50 rlineto
-128 hlineto
81 408 -58 -5 -13 -68 -143 -18 -7 -44 139 10 -55 -283 rlineto
-140 hlineto
-10 -50 rlineto
-114 -42 callsubr
                </CharString>
                <CharString name="ordfeminine">
                    135 52 86 55 -54 48 323 49 hstemhm
138 60 204 60 hintmask 11011100
263 328 rmoveto
-35 -30 32 60 117 76 108 99 23 30 -4 -8 31 hvcurveto
-13 -63 -23 -117 -9 -45 rrcurveto
-42 -43 -62 -38 -44 hhcurveto
hintmask 10111100
287 -21 rmoveto
-7 29 -85 -31 -4 20 14 65 rlinecurve
58 288 rlineto
12 -49 -42 4 -37 hhcurveto
-151 -109 -139 -149 hvcurveto
hintmask 11011100
-86 41 -47 58 49 65 37 47 51 vhcurveto
hintmask 10111100
-9 -80 39 -33 118 63 rrcurveto
-442 -120 rmoveto
-10 -52 rlineto
399 hlineto
10 52 rlineto
endchar
                </CharString>
                <CharString name="ordmasculine">
                    135 52 86 49 325 49 hstem
160 60 268 60 vstem
548 527 rmoveto
105 -62 64 -94 -130 -102 -118 -136 -105 61 -64 95 130 102 118 136 vhcurveto
-328 -77 rmoveto
108 65 89 94 67 42 -49 -79 -109 -66 -88 -94 -67 -41 50 78 vhcurveto
-111 -263 rmoveto
-9 -52 rlineto
371 hlineto
9 52 rlineto
endchar
                </CharString>
                <CharString name="oslash">
                    53 callgsubr
141 217 -66 callgsubr
                </CharString>
                <CharString name="oslashacute">
                    53 callgsubr
258 663 -107 callgsubr
-117 -446 -66 callgsubr
                </CharString>
                <CharString name="otilde">
                    29 callgsubr
91 98 callgsubr
1 callgsubr
482 698 -84 callgsubr
71 -365 -106 callsubr
                </CharString>
                <CharString name="p">
                    80 callsubr
-10 -20 hstemhm
485 70 hintmask 11010100
90 callgsubr
24 123 23 121 11 61 rrcurveto
60 55 81 54 55 50 callsubr
hintmask 10110100
10 53 14 66 13 69 rrcurveto
hintmask 11010100
49 callgsubr
-65 -84 -56 -66 -64 hvcurveto
hintmask 11001100
6 38 8 52 4 22 -67 -5 rcurveline
-30 -183 -36 -187 -70 -362 rrcurveto
endchar
                </CharString>
                <CharString name="paragraph">
                    114 61 448 70 -3 -20 hstemhm
95 69 hintmask 11010000
447 175 rmoveto
-37 4 -34 6 -30 9 84 430 rcurveline
32 3 35 0 38 -4 rrcurveto
-371 -230 rmoveto
105 70 90 140 29 vhcurveto
-78 -405 rlineto
-86 39 -46 64 78 vvcurveto
121 -513 rmoveto
48 250 31 -8 34 -5 37 -3 rlinecurve
-42 -213 64 8 rlineto
hintmask 10110000
152 781 rlineto
hintmask 11010000
-318 26 -196 -147 -189 vvcurveto
-106 65 -82 116 -45 vhcurveto
-54 -275 rlineto
endchar
                </CharString>
                <CharString name="parenleft">
                    -224 1017 hstem
143 68 vstem
561 793 -15 callsubr
                </CharString>
                <CharString name="parenleft.cap">
                    -170 1017 hstem
154 68 vstem
572 847 -15 callsubr
                </CharString>
                <CharString name="parenright">
                    780 -20 hstem
407 68 vstem
57 -236 -14 callgsubr
                </CharString>
                <CharString name="parenright.cap">
                    -182 1016 hstem
418 68 vstem
68 -182 -14 callgsubr
                </CharString>
                <CharString name="percent">
                    -15 56 -26 -21 238 56 111 56 192 55 -8 -20 hstemhm
119 58 102 59 10 58 102 59 hintmask 0111101111000000
338 595 rmoveto
70 -36 37 -51 -74 -58 -89 -106 -70 35 -38 51 74 59 89 107 vhcurveto
-224 -601 rmoveto
hintmask 0111011011000000
500 665 -43 35 -499 -665 rlineto
hintmask 1011101111000000
207 565 rmoveto
-69 -30 -70 -37 -20 -15 13 39 70 30 70 37 20 15 -13 -40 vhcurveto
hintmask 1011101011000000
69 -502 rmoveto
-69 35 -38 51 74 59 89 107 69 -36 38 -50 -75 -58 -89 -107 vhcurveto
58 1 rmoveto
70 30 69 37 20 15 -13 -39 -70 -30 -69 -37 -19 -16 12 40 vhcurveto
endchar
                </CharString>
                <CharString name="period">
                    0 115 hstem
212 128 vstem
317 hmoveto
23 callsubr
endchar
                </CharString>
                <CharString name="periodcentered">
                    284 114 hstem
250 131 vstem
359 284 rmoveto
22 114 rlineto
-108 hlineto
-23 -114 rlineto
endchar
                </CharString>
                <CharString name="peso">
                    21 -21 422 59 -54 52 152 62 hstemhm
502 67 hintmask 10111000
502 479 rmoveto
-276 hlineto
29 152 171 16 74 -72 2 -96 rlinecurve
-315 -200 rmoveto
29 148 rlineto
279 hlineto
-27 -93 -107 -57 -174 2 rrcurveto
hintmask 11011000
445 143 rmoveto
12 59 rlineto
-75 hlineto
1 0 1 2 vvcurveto
132 -107 104 -265 -35 vhcurveto
-39 -205 rlineto
-88 hlineto
-12 -59 rlineto
88 hlineto
-81 -422 rlineto
68 hlineto
41 210 211 19 139 75 36 118 rlinecurve
endchar
                </CharString>
                <CharString name="plus">
                    292 60 hstem
78 490 vstem
555 292 rmoveto
13 60 rlineto
-208 hlineto
42 213 rlineto
-64 hlineto
-42 -213 rlineto
-206 5 callsubr
207 hlineto
-42 -213 rlineto
64 hlineto
42 213 rlineto
endchar
                </CharString>
                <CharString name="plusminus">
                    77 58 198 58 hstem
48 519 vstem
503 77 rmoveto
11 58 rlineto
-196 hlineto
39 198 rlineto
197 hlineto
13 58 rlineto
-199 hlineto
40 206 rlineto
-64 hlineto
-40 -206 rlineto
-197 16 callgsubr
198 hlineto
-39 -198 rlineto
-194 16 callgsubr
endchar
                </CharString>
                <CharString name="published">
                    8 42 110 173 153 45 107 42 hstem
56 46 311 48 76 73 callsubr
162 139 160 240 170 -96 102 30 callsubr
-89 -149 -202 -113 -148 -135 -106 -81 90 151 vhcurveto
140 -131 rmoveto
24 125 rlineto
119 14 76 53 79 vvcurveto
68 -55 48 -143 -20 vhcurveto
-70 -367 rlineto
220 262 rmoveto
-55 -48 -33 -89 -1 vhcurveto
30 153 rlineto
74 6 33 -30 -40 vvcurveto
endchar
                </CharString>
                <CharString name="q">
                    -199 64 124 65 438 59 hstem
69 70 221 71 vstem
559 -149 rmoveto
-9 37 -119 -40 -9 11 14 74 rlinecurve
117 591 rlineto
16 -51 -60 11 -47 hhcurveto
-191 -135 -182 -200 -120 55 -60 72 63 78 48 60 63 hvcurveto
-35 -183 -23 -121 52 -29 165 87 rlinecurve
-334 203 rmoveto
-48 -38 42 89 158 93 149 123 31 44 -6 -12 43 hvcurveto
-61 -318 rlineto
-56 -56 -76 -46 -55 hhcurveto
endchar
                </CharString>
                <CharString name="question">
                    0 109 hstem
499 79 vstem
165 683 rmoveto
220 -27 114 -35 -86 vvcurveto
-66 -66 -66 -208 -107 vhcurveto
22 -39 rlineto
239 121 92 89 92 vvcurveto
105 -130 60 -269 29 vhcurveto
68 -753 rmoveto
23 109 rlineto
-103 hlineto
-23 -109 rlineto
endchar
                </CharString>
                <CharString name="questiondown">
                    26 -21 574 109 hstem
76 78 vstem
406 688 rmoveto
-23 -109 rlineto
103 hlineto
24 109 rlineto
-22 -683 rmoveto
-220 27 -114 35 86 vvcurveto
67 67 65 207 107 vhcurveto
-22 39 rlineto
-239 -121 -91 -88 -93 vvcurveto
-105 129 -60 269 -29 vhcurveto
endchar
                </CharString>
                <CharString name="quotedbl">
                    428 312 hstem
192 379 vstem
477 428 rmoveto
91 275 3 37 rlineto
-89 101 callgsubr
-187 hmoveto
91 275 4 37 rlineto
-90 101 callgsubr
endchar
                </CharString>
                <CharString name="quotedblbase">
                    -205 323 hstem
125 98 133 99 vstem
25 -187 rmoveto
29 -18 115 97 49 89 103 callgsubr
-104 -4 18 -131 -20 -74 -92 -96 rlinecurve
230 hmoveto
28 -18 118 97 49 89 103 callgsubr
-104 -3 17 61 callsubr
                </CharString>
                <CharString name="quotedblleft">
                    441 322 hstem
171 98 133 99 vstem
600 745 rmoveto
-28 18 -116 -96 -49 -89 -5 -137 rlinecurve
104 4 -17 130 19 74 92 96 rlinecurve
-230 hmoveto
-28 91 callsubr
103 3 -17 97 callgsubr
                </CharString>
                <CharString name="quotedblright">
                    415 322 hstem
243 98 134 98 vstem
144 432 rmoveto
28 -17 116 96 48 89 103 callgsubr
-103 -4 17 -130 -20 -75 -91 -96 rlinecurve
230 hmoveto
69 callgsubr
18 61 callsubr
                </CharString>
                <CharString name="quoteleft">
                    441 322 hstem
283 99 vstem
483 745 rmoveto
-29 91 callsubr
105 3 -18 97 callgsubr
                </CharString>
                <CharString name="quoteright">
                    415 322 hstem
357 99 vstem
257 432 rmoveto
69 callgsubr
17 -131 -19 62 callgsubr
                </CharString>
                <CharString name="quotesinglbase">
                    -205 323 hstem
241 99 vstem
140 -187 rmoveto
29 -18 117 97 48 89 6 137 rlinecurve
-105 -3 18 61 callsubr
                </CharString>
                <CharString name="quotesingle">
                    428 312 hstem
311 146 vstem
360 428 rmoveto
93 275 4 37 rlineto
-92 101 callgsubr
endchar
                </CharString>
                <CharString name="r">
                    60 callgsubr
570 30 -73 callsubr
                </CharString>
                <CharString name="racute">
                    60 callgsubr
300 672 -107 callgsubr
270 -642 -73 callsubr
                </CharString>
                <CharString name="rcaron">
                    55 callsubr
182 -20 hstem
101 callsubr
53 71 vstem
414 638 -90 callsubr
159 -608 -73 callsubr
                </CharString>
                <CharString name="rcommaaccent">
                    55 callsubr
hstemhm
101 callsubr
-101 87 67 71 hintmask 11101100
570 30 -3 callsubr
rlineto
hintmask 11110100
-79 -34 -84 -21 -67 -7 rrcurveto
-65 callsubr
hintmask 11101100
22 callgsubr
-430 -301 -93 callgsubr
                </CharString>
                <CharString name="registered">
                    221 39 316 38 93 38 hstem
109 42 266 42 97 42 vstem
372 745 rmoveto
-153 -110 -121 -172 -144 88 -87 138 153 110 121 172 144 -88 87 -138 hvcurveto
-1 -38 rmoveto
109 76 -72 -127 -152 -96 -96 -124 -109 -76 71 127 152 96 97 124 hvcurveto
32 -350 rmoveto
49 5 -77 101 rlineto
62 27 22 30 31 vvcurveto
42 -39 35 -126 -18 vhcurveto
-49 -251 rlineto
44 hlineto
41 217 rlineto
68 7 19 -19 -21 vvcurveto
-21 -22 -25 -76 -24 vhcurveto
endchar
                </CharString>
                <CharString name="registered.alt">
                    8 42 440 44 104 42 hstem
56 46 297 50 88 73 callsubr
165 136 156 243 170 -96 103 30 callsubr
-91 -149 -204 -110 -144 -138 -106 -81 90 151 vhcurveto
271 -129 rmoveto
56 6 -85 155 rlineto
66 35 39 38 54 vvcurveto
58 -55 41 -134 -19 vhcurveto
-71 -366 rlineto
50 hlineto
63 326 rlineto
64 5 33 -20 -35 vvcurveto
-41 -39 -29 -77 -36 vhcurveto
endchar
                </CharString>
                <CharString name="ring">
                    -29 callgsubr
                </CharString>
                <CharString name="ring.cap">
                    -29 callgsubr
                </CharString>
                <CharString name="ruble">
                    21 -21 140 54 109 57 272 61 hstem
540 69 vstem
540 509 rmoveto
-104 -101 -44 -192 -1 vhcurveto
53 272 rlineto
169 14 71 -50 -87 vvcurveto
-91 -369 rmoveto
16 54 rlineto
-250 hlineto
22 111 rlineto
247 12 125 73 105 callsubr
120 -106 78 -263 -31 vhcurveto
-63 -326 rlineto
-100 hlineto
-11 -57 rlineto
34 33 0 33 hhcurveto
-21 -107 rlineto
-101 93 callgsubr
100 hlineto
-27 -140 rlineto
71 hlineto
27 140 rlineto
endchar
                </CharString>
                <CharString name="rupee">
                    -8 59 -36 -21 27 88 callgsubr
629 57 hstemhm
326 62 59 129 -60 65 hintmask 01001101
250 -6 rmoveto
hintmask 00011101
64 12 -64 299 rlineto
91 92 47 73 96 callsubr
hintmask 00101101
63 callsubr
29 -29 -60 vvcurveto
-73 -40 -71 -97 -94 vhcurveto
-3 vlineto
392 -173 rmoveto
84 -49 92 -17 83 vhcurveto
hintmask 00011110
118 81 -9 76 -46 hhcurveto
-46 -48 -79 -84 -14 1 -14 2 -15 hvcurveto
-22 -33 -29 -36 -40 -45 21 -25 rcurveline
hintmask 10001101
32 29 28 28 23 27 rrcurveto
20 -71 33 -69 -60 vvcurveto
-55 -15 -36 -142 22 vhcurveto
-1 -65 rlineto
hintmask 00101101
182 -17 41 79 80 vvcurveto
endchar
                </CharString>
                <CharString name="rupeeindia">
                    6 -21 431 55 155 62 hstemhm
85 545 -228 68 hintmask 11110000
491 23 rmoveto
-132 123 -76 63 -92 29 151 21 102 68 22 89 rrcurveto
105 hlineto
10 55 rlineto
hintmask 11101000
-111 hlineto
-6 64 -44 60 -83 31 rrcurveto
276 hlineto
17 62 rlineto
-451 hlineto
-15 -60 161 -16 68 -67 9 -74 rlinecurve
-266 hlineto
-10 -55 rlineto
272 hlineto
-22 -73 -88 -59 -181 -14 -22 -54 rcurveline
139 -40 61 -55 146 -136 rrcurveto
endchar
                </CharString>
                <CharString name="s">
                    33 callgsubr
515 137 -71 callgsubr
                </CharString>
                <CharString name="sacute">
                    33 callgsubr
271 698 -107 callgsubr
244 -561 -71 callgsubr
                </CharString>
                <CharString name="scaron">
                    33 callgsubr
392 664 -90 callsubr
126 -527 -71 callgsubr
                </CharString>
                <CharString name="scedilla">
                    -50 103 -63 63 -59 59 hstemhm
283 143 -106 64 62 69 hintmask 10001100
320 -203 rmoveto
64 2 rlineto
hintmask 00101100
7 111 -32 62 -49 22 rrcurveto
158 16 47 62 65 vvcurveto
41 callgsubr
hintmask 01010100
-64 callgsubr
hintmask 01001100
-9 callgsubr
hintmask 00101100
-3 -66 rlineto
hintmask 01001100
-2 27 24 -1 24 hhcurveto
-40 -21 -36 -49 -33 -78 39 -13 rcurveline
hintmask 10001100
-28 callsubr
endchar
                </CharString>
                <CharString name="schwa">
                    -13 60 244 43 155 61 hstem
71 68 335 68 vstem
221 -13 rmoveto
185 136 191 170 183 -155 94 -286 -146 hvcurveto
11 -38 rlineto
246 91 116 -42 -151 vvcurveto
-5 vlineto
-256 -19 -147 -77 -125 vvcurveto
-77 57 -49 93 vhcurveto
16 60 rmoveto
-61 -37 31 47 97 132 54 199 15 hvcurveto
-121 -18 -87 -123 -128 hhcurveto
endchar
                </CharString>
                <CharString name="scommaaccent">
                    -10 63 -60 60 hstemhm
200 87 -4 143 20 69 hintmask 10101000
515 137 rmoveto
41 callgsubr
hintmask 10011000
-64 callgsubr
hintmask 10101000
-9 callgsubr
hintmask 01101000
-3 -66 rlineto
hintmask 10101000
296 -19 78 79 84 vvcurveto
-366 -434 -93 callgsubr
                </CharString>
                <CharString name="section">
                    -119 60 700 60 hstemhm
89 66 38 71 125 72 16 66 hintmask 11111000
155 280 rmoveto
54 78 34 85 15 vhcurveto
hintmask 11111100
76 -42 83 -33 -50 vvcurveto
-40 -51 -30 -121 -29 vhcurveto
hintmask 11111000
-76 36 -74 34 51 vvcurveto
306 -268 rmoveto
52 -47 36 -57 32 vhcurveto
hintmask 11111100
124 33 62 42 62 123 -279 33 118 vvcurveto
53 53 45 72 70 37 -36 -83 11 vhcurveto
64 12 -13 109 -49 59 -102 -1 rlinecurve
-124 -1 -90 -81 -87 vvcurveto
-52 34 -37 45 -31 vhcurveto
-103 -21 -80 -45 -79 vvcurveto
hintmask 11111000
-134 300 -32 -95 vvcurveto
-55 -87 -44 -260 69 vhcurveto
-16 -69 rlineto
311 -70 124 86 89 vvcurveto
endchar
                </CharString>
                <CharString name="semicolon">
                    371 115 hstem
236 99 57 callgsubr
-151 -558 rmoveto
28 -17 119 97 48 89 5 135 rlinecurve
-104 -3 16 -131 -19 -74 -93 -96 rlinecurve
endchar
                </CharString>
                <CharString name="servicemark">
                    323 44 17 68 173 63 -63 64 -37 43 hstemhm
130 48 51 49 -6 46 hintmask 11100110
445 384 15 callsubr
hintmask 10010110
81 callgsubr
hintmask 10100110
57 299 rlineto
3 hlineto
hintmask 10001101
-109 -26 rmoveto
63 -7 -26 33 -49 hhcurveto
-61 -45 -46 -58 hvcurveto
hintmask 10001110
-82 99 -41 -60 vvcurveto
-41 -39 -15 -111 34 vhcurveto
-8 -49 rlineto
151 -40 56 53 62 78 -100 40 67 vvcurveto
34 22 21 27 vhcurveto
hintmask 10001101
24 16 -19 -42 5 hvcurveto
endchar
                </CharString>
                <CharString name="seven">
                    17 -21 28 -21 622 63 hstemhm
130 496 hintmask 10110000
202 -4 rmoveto
113 213 138 217 161 205 12 57 rcurveline
-441 hlineto
-14 -63 rlineto
365 -4 hlineto
hintmask 01110000
-160 -201 -134 -208 -112 -209 rrcurveto
endchar
                </CharString>
                <CharString name="seven.den">
                    155 51 hstem
115 348 vstem
178 -237 -68 callsubr
endchar
                </CharString>
                <CharString name="seven.inf">
                    221 51 hstem
129 348 vstem
192 -171 -68 callsubr
endchar
                </CharString>
                <CharString name="seven.num">
                    860 51 hstem
241 348 vstem
304 468 -68 callsubr
endchar
                </CharString>
                <CharString name="seven.small">
                    17 -21 28 -21 385 51 hstemhm
155 348 hintmask 10110000
218 -4 -60 callgsubr
hintmask 01110000
-13 callgsubr
endchar
                </CharString>
                <CharString name="seven.sup">
                    758 51 hstem
221 348 vstem
284 366 -68 callsubr
endchar
                </CharString>
                <CharString name="seveneighths">
                    14 callgsubr
498 51 25 callsubr
hintmask 11111011
304 468 -68 callsubr
-164 -161 -82 callsubr
hintmask 11111101
-47 callsubr
hintmask 11111011
28 callsubr
hintmask 11111101
-82 callgsubr
                </CharString>
                <CharString name="six">
                    -11 59 315 55 294 -20 hstem
87 68 314 66 vstem
291 -11 rmoveto
135 109 101 145 184 -198 66 -168 -150 hvcurveto
34 115 100 126 238 71 -17 65 rcurveline
-327 -107 -110 -210 -177 vvcurveto
-156 88 -73 116 vhcurveto
14 59 rmoveto
-81 -69 50 137 15 1 16 2 16 hvcurveto
153 139 158 -53 -144 vvcurveto
-99 -64 -77 -100 vhcurveto
endchar
                </CharString>
                <CharString name="six.den">
                    -243 78 callgsubr
hstem
88 82 callsubr
242 -243 -102 callsubr
                </CharString>
                <CharString name="six.inf">
                    -177 78 callgsubr
hstem
102 82 callsubr
256 -177 -102 callsubr
                </CharString>
                <CharString name="six.num">
                    462 47 178 -20 28 42 hstemhm
214 68 callgsubr
hintmask 10111000
368 462 rmoveto
95 74 62 93 hvcurveto
hintmask 11111000
-1 callsubr
vhcurveto
-58 callgsubr
hintmask 10111000
-78 callgsubr
                </CharString>
                <CharString name="six.small">
                    -10 78 callgsubr
hstem
128 82 callsubr
282 -10 -102 callsubr
                </CharString>
                <CharString name="six.sup">
                    360 78 callgsubr
hstem
194 82 callsubr
348 360 -102 callsubr
                </CharString>
                <CharString name="slash">
                    -178 -21 hstem
-58 741 vstem
627 792 rmoveto
-685 -974 63 -17 678 964 rlineto
endchar
                </CharString>
                <CharString name="space">
                    endchar
                </CharString>
                <CharString name="sterling">
                    -9 66 -50 -21 305 56 291 66 hstemhm
181 68 -62 68 270 69 hintmask 10111010
549 144 rmoveto
-35 18 -69 -153 -71 49 -169 36 rlinecurve
26 56 9 70 9 71 rrcurveto
215 hlineto
10 56 rlineto
hintmask 10110110
-219 hlineto
8 67 11 65 25 51 rrcurveto
61 31 50 47 60 hhcurveto
52 33 -32 -110 hvcurveto
69 3 rlineto
134 3 -43 71 -98 hhcurveto
-99 -78 -78 -81 -41 hvcurveto
-32 -64 -11 -66 -8 -68 rrcurveto
hintmask 01111010
-86 93 callgsubr
90 hlineto
-7 -61 -10 -63 -24 -65 rrcurveto
6 -153 -35 -122 104 hhcurveto
41 40 18 34 32 hvcurveto
hintmask 10111010
207 -47 93 -66 80 219 rrcurveto
endchar
                </CharString>
                <CharString name="t">
                    64 callsubr
hstem
177 70 vstem
513 57 -59 callsubr
endchar
                </CharString>
                <CharString name="tcaron">
                    64 callsubr
hstem
177 70 251 85 vstem
498 919 -44 callsubr
-70 -866 -59 callsubr
endchar
                </CharString>
                <CharString name="tcommaaccent">
                    64 callsubr
hstemhm
177 70 -26 87 hintmask 11110000
513 57 -59 callsubr
hintmask 11101000
-343 -356 -93 callgsubr
                </CharString>
                <CharString name="thorn">
                    80 callsubr
228 -20 hstemhm
485 70 hintmask 11011100
90 callgsubr
61 308 rlineto
59 55 79 52 54 50 callsubr
hintmask 10111100
37 188 rlineto
hintmask 11011100
49 callgsubr
-63 -81 -53 -63 -63 hvcurveto
67 344 -70 -6 -188 -969 rlineto
endchar
                </CharString>
                <CharString name="three">
                    -5 64 -38 -21 626 62 hstemhm
461 67 hintmask 10110000
528 187 rmoveto
77 -63 72 -191 50 vhcurveto
313 242 7 60 rlineto
-396 hlineto
-12 -62 rlineto
321 hlineto
-315 -242 -5 -35 rlineto
207 -50 67 -59 -64 vvcurveto
-69 -71 -73 -312 34 99 callgsubr
353 -32 106 116 103 vvcurveto
endchar
                </CharString>
                <CharString name="three.den">
                    57 callsubr
hstem
340 57 vstem
397 -111 -87 callsubr
                </CharString>
                <CharString name="three.inf">
                    -171 53 339 50 hstem
354 57 vstem
411 -45 -87 callsubr
                </CharString>
                <CharString name="three.num">
                    468 8 callgsubr
466 57 hintmask 10011100
-44 callgsubr
hintmask 10101100
47 callsubr
rlineto
hintmask 11011100
-27 callgsubr
hintmask 10011100
-12 callsubr
endchar
                </CharString>
                <CharString name="three.small">
                    -4 53 -28 -21 388 50 hstemhm
380 57 hintmask 10110000
437 122 -86 callgsubr
hintmask 01110000
87 callgsubr
hintmask 10110000
-12 callsubr
endchar
                </CharString>
                <CharString name="three.sup">
                    366 53 339 50 hstem
446 57 vstem
503 492 -87 callsubr
                </CharString>
                <CharString name="threeeighths">
                    14 callgsubr
106 8 callgsubr
76 57 7 55 137 55 79 57 hintmask 1111100110111000
-44 callgsubr
hintmask 1111101010111000
47 callsubr
rlineto
hintmask 1111110110111000
-27 callgsubr
hintmask 1111100110111000
-12 callsubr
-446 -280 -82 callsubr
hintmask 1111100111011000
-47 callsubr
hintmask 1111100110111000
28 callsubr
hintmask 1111100111011000
-82 callgsubr
                </CharString>
                <CharString name="threefifths">
                    8 callsubr
106 8 callgsubr
341 57 68 57 hintmask 1111100111100000
-44 callgsubr
hintmask 1111101011100000
47 callsubr
rlineto
hintmask 1111110111100000
-27 callgsubr
hintmask 1111100111100000
-12 callsubr
-446 -280 -80 callsubr
                </CharString>
                <CharString name="threequarters">
                    -139 49 404 48 106 8 callgsubr
466 57 hintmask 11100111
-44 callgsubr
hintmask 11101011
47 callsubr
rlineto
hintmask 11110111
-27 callgsubr
hintmask 11100111
-12 callsubr
-446 -280 -62 callgsubr
325 -501 -90 callgsubr
                </CharString>
                <CharString name="tilde">
                    -37 callsubr
                </CharString>
                <CharString name="tilde.cap">
                    -37 callsubr
                </CharString>
                <CharString name="trademark">
                    642 46 -46 47 hstemhm
118 536 hintmask 10100000
200 642 rmoveto
-61 -314 rlineto
49 hlineto
61 314 rlineto
79 hlineto
9 46 rlineto
-210 hlineto
-9 -46 rlineto
327 -258 15 callsubr
hintmask 01100000
81 callgsubr
57 299 rlineto
3 hlineto
endchar
                </CharString>
                <CharString name="two">
                    0 62 565 67 hstem
489 71 vstem
491 hmoveto
12 62 rlineto
-351 hlineto
260 176 148 122 155 vvcurveto
140 -124 67 -245 -39 vhcurveto
-10 -67 rlineto
227 35 81 -55 -98 vvcurveto
-133 -158 -119 -275 -189 vhcurveto
-57 vlineto
endchar
                </CharString>
                <CharString name="two.den">
                    -233 46 callgsubr
356 62 vstem
373 -233 -91 callgsubr
endchar
                </CharString>
                <CharString name="two.inf">
                    -167 46 callgsubr
370 62 vstem
387 -167 -91 callgsubr
endchar
                </CharString>
                <CharString name="two.num">
                    472 46 callgsubr
482 -17 callgsubr
endchar
                </CharString>
                <CharString name="two.small">
                    0 46 callgsubr
396 62 vstem
413 hmoveto
-97 callsubr
endchar
                </CharString>
                <CharString name="two.sup">
                    370 46 callgsubr
462 62 vstem
479 370 -91 callgsubr
endchar
                </CharString>
                <CharString name="twofifths">
                    8 callsubr
110 46 callgsubr
341 57 84 -17 callgsubr
-112 -158 -80 callsubr
                </CharString>
                <CharString name="twothirds">
                    57 callsubr
109 48 110 46 callgsubr
340 57 85 -17 callgsubr
-112 -42 callsubr
                </CharString>
                <CharString name="u">
                    -33 callgsubr
581 39 -100 callsubr
                </CharString>
                <CharString name="uacute">
                    -33 callgsubr
270 653 -107 callgsubr
311 -614 -100 callsubr
                </CharString>
                <CharString name="ubreve">
                    -29 callsubr
108 58 13 callsubr
hintmask 01011110
587 815 -103 callgsubr
-47 -749 -43 callgsubr
                </CharString>
                <CharString name="ucircumflex">
                    -33 callgsubr
541 622 -98 callsubr
155 -717 -100 callsubr
                </CharString>
                <CharString name="udieresis">
                    -29 callsubr
111.5 4 callgsubr
96 71 233 71 hintmask 01010111
543 637 -62 callsubr
hintmask 01101011
-75 callgsubr
345 -594 -37 callgsubr
-42 callgsubr
hintmask 10011011
-52 callsubr
-84 callsubr
hintmask 01101011
-39 callgsubr
                </CharString>
                <CharString name="ugrave">
                    -33 callgsubr
516 644 -88 callsubr
85 -575 -100 callsubr
                </CharString>
                <CharString name="uhungarumlaut">
                    -33 callgsubr
263 622 -79 callsubr
119 -608 -100 callsubr
                </CharString>
                <CharString name="umacron">
                    -29 callsubr
158 60 13 callsubr
hintmask 01011110
597 740 -50 callgsubr
-4 -641 -43 callgsubr
                </CharString>
                <CharString name="underscore">
                    -112 56 hstem
-27 547 vstem
520 -56 rmoveto
-537 93 callgsubr
536 hlineto
endchar
                </CharString>
                <CharString name="underscore.alt">
                    -112 56 hstem
-69 643 vstem
574 -56 rmoveto
-632 hlineto
-11 -56 rlineto
632 hlineto
endchar
                </CharString>
                <CharString name="uni00A0">
                    endchar
                </CharString>
                <CharString name="uogonek">
                    98 callsubr
165 66 -34 -21 540 -20 23 -20 hstemhm
96 71 146 66 22 70 hintmask 11001111
554 -11 callgsubr
47 52 61 150 71 vhcurveto
hintmask 11010101
-35 callgsubr
-75 callsubr
hintmask 11001101
-77 callgsubr
64 69 46 87 77 hvcurveto
hintmask 10101101
-12 -70 9 -43 36 -9 rrcurveto
hintmask 11001111
-89 -55 -37 -54 82 callgsubr
                </CharString>
                <CharString name="uring">
                    -29 callsubr
86 59 callgsubr
hstemhm
96 71 102 55 76 71 34 54 hintmask 0101111111000000
421 840 -93 callsubr
165 -755 -37 callgsubr
hintmask 1010111111000000
-75 callsubr
hintmask 1001111111000000
-84 callsubr
hintmask 0101111111000000
-39 callgsubr
                </CharString>
                <CharString name="v">
                    -4 70 473 103 callsubr
114 498 hintmask 10110000
275 66 rmoveto
-8 hlineto
-33 160 -27 158 -23 157 -70 -4 rcurveline
26 -180 33 -180 37 -181 rrcurveto
93 hlineto
hintmask 11010000
107 178 105 187 97 178 rrcurveto
-73 hlineto
hintmask 10110000
-85 -157 -86 -158 -93 -158 rrcurveto
endchar
                </CharString>
                <CharString name="w">
                    32 callsubr
376 hmoveto
-71 callsubr
                </CharString>
                <CharString name="wacute">
                    41 callsubr
263 -20 102 callgsubr
hintmask 01111000
265 -34 callsubr
111 -650 59 callsubr
hintmask 10111000
-86 callsubr
                </CharString>
                <CharString name="wcircumflex">
                    32 callsubr
536 619 -98 callsubr
-45 -753 rmoveto
-71 callsubr
                </CharString>
                <CharString name="wdieresis">
                    41 callsubr
112.5 4 callgsubr
89 522 hintmask 01101100
537 634 -62 callsubr
hintmask 01110100
-75 callgsubr
146 -630 59 callsubr
hintmask 10110100
-86 callsubr
                </CharString>
                <CharString name="wgrave">
                    32 callsubr
511 641 -88 callsubr
-115 -611 rmoveto
-71 callsubr
                </CharString>
                <CharString name="x">
                    19 -21 23 -21 24 -21 536 103 callsubr
10 598 hintmask 10001100
425 -2 rmoveto
hintmask 00110100
77 5 -148 267 254 269 rlineto
-77 hlineto
-212 -226 rlineto
hintmask 01001100
-128 228 -75 -5 148 -266 -254 -270 rlineto
77 hlineto
211 227 rlineto
endchar
                </CharString>
                <CharString name="y">
                    -30 callsubr
467 -99 -99 callgsubr
                </CharString>
                <CharString name="yacute">
                    -30 callsubr
267 660 -107 callgsubr
200 -759 -99 callgsubr
                </CharString>
                <CharString name="ycircumflex">
                    -30 callsubr
539 629 -98 callsubr
43 -862 -99 callgsubr
                </CharString>
                <CharString name="ydieresis">
                    -193 68 -65 65 153 64 448 -20 29 11 callgsubr
89 71 264 60 hintmask 1010101110000000
540 644 -62 callsubr
hintmask 1010110110000000
-75 callgsubr
234 -739 -74 callsubr
hintmask 1011010110000000
-74 callgsubr
hintmask 0110110110000000
-10 -72 rlineto
hintmask 1010110110000000
2 callsubr
                </CharString>
                <CharString name="yen">
                    0 189 -56 56 115 56 328 103 callsubr
54 600 hintmask 01101100
513 133 rmoveto
13 56 rlineto
-196 hlineto
16 83 23 32 rlineto
178 hlineto
11 56 rlineto
-147 hlineto
hintmask 01110100
243 328 rlineto
-76 hlineto
-250 -348 rlineto
hintmask 01101100
-121 350 -72 -3 115 -327 rlineto
-152 hlineto
-11 -56 rlineto
183 hlineto
10 -27 -18 -88 rlineto
-198 93 callgsubr
197 hlineto
hintmask 10101100
-26 -133 rlineto
70 hlineto
hintmask 01101100
25 133 rlineto
endchar
                </CharString>
                <CharString name="ygrave">
                    -30 callsubr
514 651 -88 callsubr
-27 -720 -99 callgsubr
                </CharString>
                <CharString name="z">
                    85 callsubr
hstem
43 536 vstem
478 hmoveto
-45 callsubr
                </CharString>
                <CharString name="zacute">
                    85 callsubr
242 -20 hstem
43 536 vstem
259 -34 callsubr
219 -650 rmoveto
-45 callsubr
                </CharString>
                <CharString name="zcaron">
                    85 callsubr
149 -20 111 93 callsubr
43 560 hintmask 11101100
380 616 rmoveto
hintmask 11110100
-61 callgsubr
rlineto
hintmask 11101100
-69 callgsubr
101 -616 rmoveto
-45 callsubr
                </CharString>
                <CharString name="zdotaccent">
                    85 callsubr
27 callgsubr
37 callsubr
hstem
43 536 vstem
414 632 -46 callsubr
136 -631 rmoveto
-45 callsubr
                </CharString>
                <CharString name="zero">
                    -13 61 592 61 hstem
78 71 356 71 vstem
78 242 rmoveto
-170 91 callgsubr
240 168 90 callsubr
-239 vhcurveto
296 398 rmoveto
77 47 -57 -115 7 hvcurveto
-356 -186 rlineto
183 10 90 175 125 hhcurveto
-94 -592 rmoveto
-76 -49 58 117 -6 hvcurveto
356 185 rlineto
-184 -9 -90 -176 -126 hhcurveto
endchar
                </CharString>
                <CharString name="zero.alt">
                    -13 62 590 62 hstem
78 69 360 69 vstem
78 243 rmoveto
-171 91 callgsubr
239 169 90 callsubr
-238 vhcurveto
69 7 rmoveto
194 95 195 133 82 50 -66 -135 -194 -94 -195 -134 -81 -51 66 135 vhcurveto
endchar
                </CharString>
                <CharString name="zero.den">
                    -244 66 callsubr
82 67 callgsubr
82 -72 -85 callsubr
                </CharString>
                <CharString name="zero.inf">
                    -178 66 callsubr
96 67 callgsubr
96 -6 -85 callsubr
                </CharString>
                <CharString name="zero.num">
                    461 66 callsubr
208 67 callgsubr
208 633 -85 callsubr
                </CharString>
                <CharString name="zero.small">
                    -11 66 callsubr
122 67 callgsubr
122 161 -85 callsubr
                </CharString>
                <CharString name="zero.sup">
                    359 66 callsubr
188 67 callgsubr
188 531 -85 callsubr
                </CharString>
                <CharString name="less_exclam_hyphen_hyphen.liga">
                    -19 677 -658 110 182 61 hstemhm
-1766 465 -416 651 8 254 -3 1291 hintmask 01101010
-896 750 rmoveto
-22 -129 -32 -246 -24 -122 rrcurveto
46 hlineto
hintmask 01101100
27 122 66 246 31 129 rrcurveto
hintmask 10001100
-529 -92 rmoveto
-422 -298 rlineto
hintmask 10010010
-11 -61 309 -318 48 48 rlineto
hintmask 01110010
-260 263 rlineto
591 hlineto
12 61 rlineto
-591 hlineto
356 251 rlineto
494 -312 rmoveto
1279 hlineto
12 61 rlineto
-1279 hlineto
-159 -353 rmoveto
22 110 rlineto
-103 hlineto
-23 -110 rlineto
endchar
                </CharString>
                <CharString name="equal_equal_equal.liga">
                    49 60 188 60 188 59 hstem
-1197 1793 vstem
596 604 rmoveto
-1687 hlineto
-11 -59 rlineto
1686 hlineto
-35 -189 rmoveto
-1687 hlineto
-11 -59 rlineto
1686 hlineto
-36 -188 rmoveto
-1686 hlineto
-12 -60 rlineto
1686 hlineto
endchar
                </CharString>
                <CharString name="equal_equal_greater.liga">
                    -19 677 -486 60 188 59 hstemhm
-1174 1719 hintmask 10010000
188 611 rmoveto
hintmask 00110000
130 -132 rlineto
-1433 hlineto
-11 -59 rlineto
1502 hlineto
98 -99 -2 -10 rlineto
hintmask 01010000
-112 -79 rlineto
-1522 hlineto
-12 -60 rlineto
1449 hlineto
-195 -137 rlineto
hintmask 10010000
32 -54 422 299 11 61 -309 317 rlineto
endchar
                </CharString>
                <CharString name="equal_less_less.liga">
                    -19 677 -486 60 188 59 hstemhm
-1174 1748 hintmask 01110000
224 604 rmoveto
hintmask 10010000
-32 54 rlineto
hintmask 01110000
-253 -179 rlineto
-1054 hlineto
-11 -59 rlineto
981 hlineto
-85 -60 -11 -61 65 -67 rlineto
-986 hlineto
-12 -60 rlineto
1056 hlineto
hintmask 10010000
186 -191 48 48 -286 289 2 10 rlineto
742 276 rmoveto
-32 54 -422 -298 -11 -61 309 -318 48 48 -286 289 2 10 rlineto
endchar
                </CharString>
                <CharString name="exclam_equal_equal.liga">
                    49 60 188 60 188 59 hstemhm
-1197 1793 -1297 741 hintmask 11110000
596 604 rmoveto
-669 hlineto
hintmask 11101000
113 161 -56 27 -132 -188 rlineto
-943 hlineto
-11 -59 rlineto
912 hlineto
-133 -189 rlineto
-815 hlineto
-11 -59 rlineto
785 hlineto
-132 -188 rlineto
-689 hlineto
hintmask 11110000
-12 -60 rlineto
658 hlineto
hintmask 11101000
-162 -231 63 -17 174 248 rlineto
953 hlineto
12 60 rlineto
-922 hlineto
132 188 rlineto
826 hlineto
12 59 rlineto
-797 hlineto
133 189 rlineto
699 hlineto
endchar
                </CharString>
                <CharString name="greater_equal_greater.liga">
                    -19 677 -486 60 188 59 hstemhm
-1170 1715 hintmask 10010000
188 611 rmoveto
hintmask 00110000
130 -132 rlineto
-1158 hlineto
hintmask 10010000
-174 179 -48 -47 286 -290 -2 -10 -392 -276 32 -54 rlineto
hintmask 01010000
270 191 rlineto
1143 hlineto
-195 -137 rlineto
hintmask 10010000
32 -54 422 299 11 61 -309 317 rlineto
hintmask 01010000
124 -426 rmoveto
-1144 hlineto
68 48 11 61 rlineto
hintmask 00110000
-77 79 rlineto
1158 hlineto
98 -99 -2 -10 rlineto
endchar
                </CharString>
                <CharString name="greater_greater_equal.liga">
                    -19 677 -486 60 188 59 hstemhm
-1170 1742 hintmask 10010000
-1014 658 rmoveto
-48 -47 286 -290 -2 -10 -392 -276 32 -54 422 299 11 61 rlineto
hintmask 01110000
215 138 rmoveto
hintmask 10010000
-174 179 -48 -47 286 -290 -2 -10 -392 -276 32 -54 rlineto
hintmask 01110000
270 191 rlineto
1030 hlineto
12 60 rlineto
-958 hlineto
68 48 11 61 -77 79 rlineto
992 hlineto
12 59 rlineto
endchar
                </CharString>
                <CharString name="hyphen_hyphen_greater.liga">
                    -19 677 -366 61 hstemhm
-1106 1651 hintmask 01100000
188 611 rmoveto
254 -258 rlineto
-1536 hlineto
-12 -61 rlineto
1551 hlineto
-365 -257 rlineto
hintmask 10100000
32 -54 422 299 11 61 -309 317 rlineto
endchar
                </CharString>
                <CharString name="less_equal_equal.liga">
                    -19 677 -486 60 188 59 hstemhm
-1141 1713 hintmask 01110000
560 420 rmoveto
12 59 rlineto
-1426 hlineto
178 125 rlineto
hintmask 10010000
-32 54 -422 -298 -11 -61 309 -318 48 48 rlineto
hintmask 01110000
-142 143 rlineto
1438 hlineto
12 60 rlineto
-1509 hlineto
-85 86 2 10 131 92 rlineto
endchar
                </CharString>
                <CharString name="less_equal_greater.liga">
                    -19 677 -486 60 188 59 hstemhm
-1141 1686 hintmask 01110000
188 611 rmoveto
130 -132 rlineto
-1172 hlineto
178 125 rlineto
hintmask 10010000
-32 54 -422 -298 -11 -61 309 -318 48 48 rlineto
hintmask 01110000
-142 143 rlineto
1201 hlineto
-195 -137 rlineto
hintmask 10010000
32 -54 422 299 11 61 -309 317 rlineto
hintmask 01110000
124 -426 rmoveto
-1345 hlineto
-85 86 2 10 131 92 rlineto
1313 hlineto
98 -99 -2 -10 rlineto
endchar
                </CharString>
                <CharString name="less_equal_less.liga">
                    -19 677 -486 60 188 59 hstemhm
-1141 1715 hintmask 01110000
574 604 rmoveto
hintmask 10010000
-32 54 rlineto
hintmask 01110000
-253 -179 rlineto
-1143 hlineto
178 125 rlineto
hintmask 10010000
-32 54 -422 -298 -11 -61 309 -318 48 48 rlineto
hintmask 01110000
-142 143 rlineto
1158 hlineto
hintmask 10010000
186 -191 48 48 -286 289 2 10 rlineto
-1252 -10 rmoveto
2 10 rlineto
hintmask 01110000
131 92 rlineto
1142 hlineto
-85 -60 -11 -61 65 -67 rlineto
-1159 hlineto
endchar
                </CharString>
                <CharString name="less_hyphen_greater.liga">
                    -19 677 -366 61 hstemhm
-1141 465 756 465 hintmask 10100000
236 658 rmoveto
-48 -47 rlineto
hintmask 01100000
254 -258 rlineto
-1474 hlineto
356 251 rlineto
hintmask 10100000
-32 54 -422 -298 -11 -61 309 -318 48 48 rlineto
hintmask 01100000
-260 263 rlineto
1489 hlineto
hintmask 01110000
-365 -257 rlineto
hintmask 10110000
32 -54 422 299 11 61 rlineto
endchar
                </CharString>
                <CharString name="less_hyphen_hyphen.liga">
                    -19 677 -366 61 hstemhm
-1141 1625 hintmask 01100000
-1032 353 rmoveto
356 251 rlineto
hintmask 10100000
-32 54 -422 -298 -11 -61 309 -318 48 48 rlineto
hintmask 01100000
-260 263 rlineto
1516 hlineto
12 61 rlineto
endchar
                </CharString>
                <CharString name="ampersand_ampersand.liga">
                    -11 64 hstem
-429 69 174 60 157 69 174 60 vstem
-429 118 rmoveto
-80 44 -49 79 70 86 49 92 87 vhcurveto
-51 37 61 -90 119 hhcurveto
70 86 49 92 87 hvcurveto
37 -51 45 -50 51 -50 54 49 rcurveline
-56 53 -46 51 -38 52 46 57 46 68 44 79 -61 22 rcurveline
-35 -69 -36 -59 -36 -49 -46 75 -26 77 -6 82 rrcurveto
63 66 38 72 54 vvcurveto
34 -19 17 -29 -50 -65 -114 -114 -2 vhcurveto
-136 -120 -99 -122 -4 -115 -17 19 -15 20 -15 20 46 57 46 68 44 79 -61 22 rcurveline
-35 -69 -36 -59 -36 -49 -46 75 -26 77 -6 82 rrcurveto
63 66 38 72 54 vvcurveto
34 -19 17 -29 -50 -65 -114 -114 -2 vhcurveto
-139 -122 -100 -125 -117 vvcurveto
69 14 rmoveto
87 77 99 97 97 vhcurveto
11 -82 32 -79 49 -78 rrcurveto
-82 -73 -68 -41 -51 hhcurveto
-46 -28 29 50 hvcurveto
460 hmoveto
87 77 99 97 97 vhcurveto
11 -82 32 -79 49 -78 rrcurveto
-82 -73 -68 -41 -51 hhcurveto
-46 -28 29 50 hvcurveto
endchar
                </CharString>
                <CharString name="bar_bar.liga">
                    -315 256 129 256 vstem
-124 779 rmoveto
-191 -979 rlineto
66 hlineto
190 981 rlineto
320 -2 rmoveto
-191 -979 rlineto
66 hlineto
190 981 rlineto
endchar
                </CharString>
                <CharString name="bar_greater.liga">
                    -200 981 hstem
-310 685 vstem
-119 779 rmoveto
-191 -979 rlineto
66 hlineto
608 480 11 61 -429 440 rlineto
-172 -887 rmoveto
156 807 374 -380 -2 -10 rlineto
endchar
                </CharString>
                <CharString name="colon_equal.liga">
                    144 115 133 115 hstem
-394 801 vstem
-242 392 rmoveto
26 115 rlineto
-108 hlineto
-23 -115 rlineto
754 87 rmoveto
-529 hlineto
-11 -59 rlineto
528 hlineto
-684 -276 rmoveto
26 115 rlineto
-108 hlineto
-23 -115 rlineto
753 88 rmoveto
-528 hlineto
-12 -60 rlineto
528 hlineto
endchar
                </CharString>
                <CharString name="equal_equal.liga">
                    172 60 188 59 hstem
-549 1121 vstem
572 479 rmoveto
-1062 hlineto
-11 -59 rlineto
1061 hlineto
-36 -188 rmoveto
-1061 hlineto
-12 -60 rlineto
1061 hlineto
endchar
                </CharString>
                <CharString name="equal_greater.liga">
                    -19 677 -486 60 188 59 hstemhm
-549 1094 hintmask 01110000
188 611 rmoveto
130 -132 rlineto
-808 hlineto
-11 -59 rlineto
877 hlineto
98 -99 -2 -10 -112 -79 rlineto
-897 hlineto
-12 -60 rlineto
824 hlineto
-195 -137 rlineto
hintmask 10010000
32 -54 422 299 11 61 -309 317 rlineto
endchar
                </CharString>
                <CharString name="exclam_equal.liga">
                    172 60 188 59 hstemhm
-549 1121 -961 741 hintmask 11100000
572 479 rmoveto
-421 hlineto
hintmask 11010000
201 286 -56 27 -220 -313 rlineto
-566 hlineto
-11 -59 rlineto
535 hlineto
-132 -188 rlineto
-439 hlineto
hintmask 11100000
-12 -60 rlineto
409 hlineto
hintmask 11010000
-249 -354 63 -17 261 371 rlineto
577 hlineto
12 60 rlineto
-547 hlineto
132 188 rlineto
451 hlineto
endchar
                </CharString>
                <CharString name="greater_equal.liga">
                    -70 638 hstem
-434 758 vstem
-418 -23 rmoveto
844 314 12 62 -715 309 -32 -51 645 -284 -2 -10 -763 -290 rlineto
837 170 rmoveto
-868 -330 11 -50 844 314 rlineto
endchar
                </CharString>
                <CharString name="hyphen_greater.liga">
                    -19 677 -366 61 hstemhm
-481 1026 hintmask 01100000
188 611 rmoveto
254 -258 rlineto
-911 hlineto
-12 -61 rlineto
926 hlineto
-365 -257 rlineto
hintmask 10100000
32 -54 422 299 11 61 -309 317 rlineto
endchar
                </CharString>
                <CharString name="hyphen_hyphen.liga">
                    292 61 hstem
-398 340 136 340 vstem
-58 353 rmoveto
-328 hlineto
-12 -61 rlineto
328 hlineto
488 61 rmoveto
-328 hlineto
-12 -61 rlineto
328 hlineto
endchar
                </CharString>
                <CharString name="less_bar.liga">
                    -200 981 hstem
-339 669 vstem
-328 360 rmoveto
-11 -61 413 -499 rlineto
66 hlineto
190 981 -65 -2 rlineto
-533 -461 rmoveto
2 10 514 362 -157 -804 rlineto
endchar
                </CharString>
                <CharString name="less_equal.liga">
                    -183 845 hstem
-376 890 vstem
-243 317 rmoveto
2 10 755 284 -12 51 -835 -309 -12 -62 722 -314 31 50 rlineto
-62 -210 rmoveto
30 50 -739 330 -13 -66 rlineto
endchar
                </CharString>
                <CharString name="less_hyphen.liga">
                    -19 677 -366 61 hstemhm
-516 1000 hintmask 01100000
-407 353 rmoveto
356 251 rlineto
hintmask 10100000
-32 54 -422 -298 -11 -61 309 -318 48 48 rlineto
hintmask 01100000
-260 263 rlineto
891 hlineto
12 61 rlineto
endchar
                </CharString>
                <CharString name="less_slash.liga">
                    -19 677 hstemhm
-516 465 -271 741 hintmask 11000000
-168 38 rmoveto
-277 280 2 10 392 276 -32 54 -422 -298 -11 -61 309 -318 rlineto
hintmask 10100000
-115 -163 63 -17 678 964 -56 27 rlineto
endchar
                </CharString>
                <CharString name="plus_plus.liga">
                    292 60 hstem
0 490 vstem
324 565 rmoveto
-64 hlineto
-42 -213 rlineto
-413 hlineto
42 213 rlineto
-64 hlineto
-42 -213 rlineto
-206 hlineto
-12 -60 rlineto
207 hlineto
-42 -213 rlineto
64 hlineto
42 213 rlineto
413 hlineto
-42 -213 rlineto
64 hlineto
42 213 rlineto
206 hlineto
13 60 rlineto
-208 hlineto
endchar
                </CharString>
                <CharString name="question_question.liga">
                    0 109 hstem
-22 79 341 79 vstem
-356 683 rmoveto
220 -27 114 -35 -86 vvcurveto
-66 -66 -66 -208 -107 vhcurveto
22 -39 rlineto
239 121 92 89 92 vvcurveto
105 -130 60 -269 29 vhcurveto
406 -70 rmoveto
220 -27 114 -35 -86 vvcurveto
-66 -66 -66 -208 -107 vhcurveto
22 -39 rlineto
239 121 92 89 92 vvcurveto
105 -130 60 -269 29 vhcurveto
-352 -753 rmoveto
23 109 rlineto
-103 hlineto
-23 -109 rlineto
523 hmoveto
23 109 rlineto
-103 hlineto
-23 -109 rlineto
endchar
                </CharString>
                <CharString name="slash_greater.liga">
                    -19 677 hstemhm
-429 741 -232 465 hintmask 11000000
312 765 rmoveto
-56 27 -685 -974 63 -17 563 801 277 -281 -2 -10 rlineto
hintmask 10100000
-392 -276 32 -54 422 299 11 61 -309 317 rlineto
endchar
                </CharString>
                <CharString name="underscore_underscore.liga">
                    -112 56 hstem
-694 1268 vstem
574 -56 rmoveto
-1257 hlineto
-11 -56 rlineto
1257 hlineto
endchar
                </CharString>
                <CharString name="ampersand.spacer">
                    endchar
                </CharString>
                <CharString name="bar.spacer">
                    endchar
                </CharString>
                <CharString name="colon.spacer">
                    endchar
                </CharString>
                <CharString name="equal.spacer">
                    endchar
                </CharString>
                <CharString name="exclam.spacer">
                    endchar
                </CharString>
                <CharString name="greater.spacer">
                    endchar
                </CharString>
                <CharString name="hyphen.spacer">
                    endchar
                </CharString>
                <CharString name="less.spacer">
                    endchar
                </CharString>
                <CharString name="LIG">
                    endchar
                </CharString>
                <CharString name="plus.spacer">
                    endchar
                </CharString>
                <CharString name="question.spacer">
                    endchar
                </CharString>
                <CharString name="slash.spacer">
                    endchar
                </CharString>
                <CharString name="underscore.spacer">
                    endchar
                </CharString>
                <CharString name="uniE0A0">
                    -136 63 193 127 320 64 64 64 hstemhm
0 64 0 128 0 64 128 64 0 128 0 64 hintmask 1111010101000000
512 631 rmoveto
-71 -57 -57 -71 hvcurveto
hintmask 1111010010000000
-47 26 -41 38 -22 vhcurveto
-18 vlineto
-64 -64 -64 -64 -53 -42 -11 -18 -33 vhcurveto
303 vlineto
hintmask 1111101101000000
38 22 26 41 47 vvcurveto
71 -57 57 -71 -71 -57 -57 -71 vhcurveto
hintmask 1111010101000000
-47 26 -41 38 -22 vhcurveto
-419 vlineto
hintmask 1111101010000000
-38 -22 -26 -41 -47 vvcurveto
-71 57 -57 71 71 57 57 71 34 -13 30 -21 23 vhcurveto
23 19 30 18 49 hhcurveto
128 128 128 128 hvcurveto
18 vlineto
hintmask 1111010101000000
38 22 26 41 47 vvcurveto
71 -57 57 -71 vhcurveto
hintmask 1111101101000000
-384 63 rmoveto
35 29 -29 -35 -35 -29 -29 -35 -35 -29 29 35 35 29 29 35 hvcurveto
384 -256 rmoveto
-35 -29 29 35 35 29 29 35 35 29 -29 -35 -35 -29 -29 -35 hvcurveto
-384 -512 rmoveto
-35 -29 29 35 35 29 29 35 35 29 -29 -35 -35 -29 -29 -35 hvcurveto
endchar
                </CharString>
                <CharString name="uniE0B0">
                    -205 1209 hstem
-20 692 vstem
-18 1004 rmoveto
-2 -1209 692 570 rlineto
endchar
                </CharString>
                <CharString name="uniE0B2">
                    -205 1209 hstem
-20 692 vstem
672 -205 rmoveto
-2 1209 -690 -639 rlineto
endchar
                </CharString>
            <CharString index="0">
                rmoveto
17 -32 80 40 118 66 71 57 rlinecurve
-52 57 -61 -61 -101 -81 -72 -46 rlinecurve
return
            </CharString>
            <CharString index="1">
                rmoveto
170 -78 87 -115 -186 -133 -230 -229 -170 78 -87 115 186 133 230 229 vhcurveto
-438 -197 rmoveto
193 97 197 137 79 51 -65 -133 -193 -97 -197 -137 -79 -51 65 133 vhcurveto
endchar
            </CharString>
            <CharString index="2">
                -104 callsubr
-7 -54 rlineto
241 -19 85 80 76 vvcurveto
return
            </CharString>
            <CharString index="3">
                rmoveto
47 -48 43 -47 39 vhcurveto
40 22 50 25 63 30 -19 34 rcurveline
-67 -32 -55 -28 -45 -24 rrcurveto
-35 30 -29 28 27 vvcurveto
38 46 32 138 -32 vhcurveto
19 56 94 callgsubr
28 -88 -61 -66 vvcurveto
-38 33 -35 39 -34 vhcurveto
return
            </CharString>
            <CharString index="4">
                rmoveto
-81 -64 -50 -46 -59 hhcurveto
-56 -36 37 94 -39 hvcurveto
-55 -27 rlineto
-111 42 56 -51 73 hhcurveto
77 76 58 100 76 hvcurveto
return
            </CharString>
            <CharString index="5">
                -105 callgsubr
endchar
            </CharString>
            <CharString index="6">
                rmoveto
-44 -34 36 83 163 96 152 119 29 39 -6 -11 42 hvcurveto
-16 -83 -33 -165 -12 -59 rrcurveto
-58 -56 -79 -52 -51 hhcurveto
return
            </CharString>
            <CharString index="7">
                -11 39 rlineto
-246 -92 -116 42 151 vvcurveto
5 vlineto
257 19 146 77 125 vvcurveto
77 -57 49 -93 -185 -136 -191 -170 return
            </CharString>
            <CharString index="8">
                -74 callsubr
hintmask 10110110
-74 callgsubr
hintmask 01101110
-10 -72 rlineto
hintmask 10101110
2 callsubr
            </CharString>
            <CharString index="9">
                -333 hlineto
50 258 rlineto
281 hlineto
11 55 rlineto
-281 hlineto
48 250 rlineto
331 hlineto
13 62 rlineto
-404 -9 callsubr
return
            </CharString>
            <CharString index="10">
                -96 callgsubr
-18 -94 rlineto
54 hlineto
18 94 rlineto
return
            </CharString>
            <CharString index="11">
                rmoveto
15 49 rlineto
-61 hlineto
30 154 -55 -5 -29 -149 rlineto
-176 hlineto
58 83 43 78 45 136 -62 3 rcurveline
-42 -132 -40 -80 -60 -98 -4 -39 rcurveline
228 hlineto
return
            </CharString>
            <CharString index="12">
                -101 callgsubr
hintmask 01011100
-72 callsubr
hintmask 10101100
-88 callgsubr
hintmask 01011100
-43 callsubr
            </CharString>
            <CharString index="13">
                rmoveto
-89 callgsubr
408 hlineto
14 58 rlineto
endchar
            </CharString>
            <CharString index="14">
                rmoveto
28 -15 rlineto
76 73 34 80 72 vvcurveto
-93 -3 13 -63 -3 -66 -55 -78 rlinecurve
endchar
            </CharString>
            <CharString index="15">
                rmoveto
8 hlineto
12 -116 12 -117 11 -117 79 callgsubr
hlineto
56 117 58 117 58 116 rrcurveto
endchar
            </CharString>
            <CharString index="16">
                rmoveto
-97 callsubr
return
            </CharString>
            <CharString index="17">
                -97 callgsubr
endchar
            </CharString>
            <CharString index="18">
                111 572 94 callsubr
hlineto
11 58 rlineto
-409 hlineto
-11 -58 rlineto
170 hlineto
-110 -572 rlineto
-167 16 callgsubr
return
            </CharString>
            <CharString index="19">
                15 -56 -50 7 -44 hhcurveto
-189 -135 -187 -203 -114 49 -56 67 62 83 54 64 64 hvcurveto
return
            </CharString>
            <CharString index="20">
                236 -188 rmoveto
26 53 -26 75 149 vvcurveto
17 1 22 2 23 vhcurveto
55 112 48 139 33 vvcurveto
14 -28 13 -19 -7 -9 -10 -17 -10 vhcurveto
17 -40 -39 10 -40 hhcurveto
-180 -132 -172 -184 -112 55 -59 78 75 72 56 73 54 hvcurveto
-127 28 -87 -30 -30 vhcurveto
-23 -23 -88 -24 -226 19 rrcurveto
return
            </CharString>
            <CharString index="21">
                -83 callsubr
47 callsubr
-70 callsubr
return
            </CharString>
            <CharString index="22">
                -50 callsubr
-87 callgsubr
return
            </CharString>
            <CharString index="23">
                rmoveto
-76 callgsubr
-54 callsubr
return
            </CharString>
            <CharString index="24">
                -104 callgsubr
hintmask 11110100
-47 callsubr
hintmask 11101100
28 callsubr
hintmask 11110100
-82 callgsubr
            </CharString>
            <CharString index="25">
                -157 -69 rmoveto
-55 -42 24 41 25 17 27 93 55 hvcurveto
46 -38 43 -35 -34 vvcurveto
-36 -41 -29 -61 vhcurveto
endchar
            </CharString>
            <CharString index="26">
                -77 callsubr
-114 -21 callgsubr
return
            </CharString>
            <CharString index="27">
                rmoveto
61 37 -31 -47 -97 -132 -54 -199 -15 hvcurveto
121 18 87 123 128 hhcurveto
endchar
            </CharString>
            <CharString index="28">
                -38 callsubr
-31 callgsubr
-56 callsubr
            </CharString>
            <CharString index="29">
                -105 69 -50 85 vhcurveto
9 47 rmoveto
-56 -51 32 86 8 0 7 1 8 hvcurveto
103 81 109 -36 -86 vvcurveto
-57 -40 -43 -66 vhcurveto
endchar
            </CharString>
            <CharString index="30">
                78 343 -71 -4 -78 -135 44 -27 -42 -184 rlineto
-140 -32 40 -64 81 hhcurveto
return
            </CharString>
            <CharString index="31">
                -52 -19 120 -75 hhcurveto
-54 -53 -51 -94 -55 hvcurveto
37 -22 rlineto
66 41 36 46 33 52 20 -120 75 hhcurveto
return
            </CharString>
            <CharString index="32">
                -164 -1 rmoveto
43 146 -79 -2 -36 -145 rlineto
return
            </CharString>
            <CharString index="33">
                -73 -37 77 371 134 hvcurveto
-68 -2 rlineto
-411 -154 62 -99 102 hhcurveto
79 86 61 73 63 hvcurveto
1 -139 13 -85 -30 -30 -22 -22 -82 -23 -219 19 rrcurveto
return
            </CharString>
            <CharString index="34">
                rmoveto
-25 callsubr
-182 154 -93 269 134 hvcurveto
-11 39 rlineto
-47 callgsubr
endchar
            </CharString>
            <CharString index="35">
                rmoveto
90 389 -69 -3 -43 -193 rlineto
-176 -61 -97 64 181 vvcurveto
186 107 196 142 83 14 -66 -120 -3 vhcurveto
68 hlineto
170 7 -40 81 -118 hhcurveto
-181 -151 -221 -239 hvcurveto
return
            </CharString>
            <CharString index="36">
                rmoveto
41 callgsubr
hintmask 10110000
-64 callgsubr
hintmask 10010000
-9 callgsubr
hintmask 01010000
-3 -66 rlineto
hintmask 10010000
296 -19 78 79 84 vvcurveto
endchar
            </CharString>
            <CharString index="37">
                -93 callsubr
hintmask 1010111111000000
-209 -746 -101 callgsubr
hintmask 0101111111000000
-72 callsubr
hintmask 1010111111000000
-88 callgsubr
hintmask 0101111111000000
-43 callsubr
            </CharString>
            <CharString index="38">
                -115 134 -49 -39 150 -167 rlineto
return
            </CharString>
            <CharString index="39">
                -231 -89 -127 56 200 vvcurveto
186 111 193 145 86 13 -65 -122 -3 vhcurveto
69 1 rlineto
163 8 -35 88 -123 hhcurveto
return
            </CharString>
            <CharString index="40">
                -102 -39 63 128 25 hvcurveto
87 448 79 callsubr
-88 -453 return
            </CharString>
            <CharString index="41">
                rmoveto
149 84 127 121 41 33 -14 -27 24 vhcurveto
-288 -325 rlineto
-10 25 -5 30 35 vvcurveto
137 -170 rmoveto
-40 -32 13 25 -23 hvcurveto
286 323 rlineto
9 -24 5 -29 -33 vvcurveto
-150 -85 -125 -120 vhcurveto
-13 -59 rmoveto
-31 callsubr
hvcurveto
hintmask 10011100
53 -11 44 -19 34 vhcurveto
69 77 rlineto
hintmask 01101100
-42 32 -60 -67 rlineto
30 -33 -45 16 -53 hhcurveto
-30 callgsubr
-55 11 -45 21 -34 hvcurveto
-69 -77 rlineto
hintmask 10101100
42 -31 61 67 rlineto
-28 33 43 -15 52 hhcurveto
endchar
            </CharString>
            <CharString index="42">
                73 hlineto
hintmask 10010100
-20 callgsubr
hintmask 01001100
-10 callsubr
hintmask 01100100
110 579 rlineto
5 hlineto
return
            </CharString>
            <CharString index="43">
                100 86 -9 64 -54 hhcurveto
-48 -54 -67 -61 -13 2 -13 3 -13 hvcurveto
-40 -47 -58 -47 -99 -72 19 -34 rcurveline
84 53 65 49 48 45 rrcurveto
return
            </CharString>
            <CharString index="44">
                799 -107 callgsubr
return
            </CharString>
            <CharString index="45">
                rmoveto
480 hlineto
10 48 rlineto
-480 hlineto
return
            </CharString>
            <CharString index="46">
                223 163 -34 38 -178 -129 return
            </CharString>
            <CharString index="47">
                rmoveto
75 133 92 135 108 127 10 48 rcurveline
-316 hlineto
-11 -51 rlineto
254 -3 hlineto
return
            </CharString>
            <CharString index="48">
                72 6 -41 callsubr
rlinecurve
-103 hlineto
return
            </CharString>
            <CharString index="49">
                22 71 67 75 163 41 -13 49 rcurveline
-227 -62 -77 -128 -116 vvcurveto
return
            </CharString>
            <CharString index="50">
                44 227 rlineto
hintmask 11010000
-5 callgsubr
hintmask 10110000
-26 callgsubr
            </CharString>
            <CharString index="51">
                vstem
-81 callgsubr
return
            </CharString>
            <CharString index="52">
                rmoveto
31 56 rlineto
-169 72 -73 48 54 vvcurveto
hintmask 11010000
76 132 40 81 vvcurveto
37 -27 34 -75 22 vhcurveto
hintmask 11101000
102 24 41 52 44 55 -75 67 52 vvcurveto
hintmask 11100000
58 90 48 223 45 vhcurveto
-12 62 rlineto
-274 -65 -92 -80 -78 -69 75 -60 -47 vvcurveto
hintmask 11101000
-37 -41 -38 -148 -8 vhcurveto
-10 -52 rlineto
hintmask 11010000
108 -11 47 -28 -39 -62 -134 -41 -96 vvcurveto
hintmask 11100000
-70 80 -57 201 -89 vhcurveto
endchar
            </CharString>
            <CharString index="53">
                67 vstem
513 72 -103 callsubr
return
            </CharString>
            <CharString index="54">
                rmoveto
273 65 92 80 78 vvcurveto
hintmask 01001100
69 -75 60 47 vvcurveto
hintmask 01101100
38 41 37 148 9 vhcurveto
10 51 rlineto
hintmask 01010100
-108 11 -47 28 39 62 135 41 96 vvcurveto
70 -81 57 -201 89 vhcurveto
-31 -55 rlineto
169 -73 73 -48 -54 -75 -132 -41 -81 vvcurveto
-37 27 -34 75 -21 vhcurveto
hintmask 01101100
-102 -24 -41 -53 -44 -55 75 -67 -52 vvcurveto
hintmask 10001100
-58 -90 -48 -223 -45 vhcurveto
endchar
            </CharString>
            <CharString index="55">
                18 -21 24 -41 callgsubr
return
            </CharString>
            <CharString index="56">
                -19 callgsubr
hintmask 10100100
-33 callsubr
hintmask 01011000
-60 callsubr
hintmask 10100100
-32 callgsubr
hintmask 10101000
19 callgsubr
            </CharString>
            <CharString index="57">
                rmoveto
-358 5 callsubr
358 hlineto
return
            </CharString>
            <CharString index="58">
                -19 callgsubr
hintmask 10101010
-33 callsubr
hintmask 01011100
-60 callsubr
hintmask 10101010
-32 callgsubr
hintmask 10101100
9 callsubr
return
            </CharString>
            <CharString index="59">
                rmoveto
hintmask 00111110
-59 callgsubr
hintmask 01011110
-89 callsubr
hintmask 10011110
-12 callgsubr
hintmask 00111110
-94 callsubr
            </CharString>
            <CharString index="60">
                -228 -83 -114 46 150 vvcurveto
152 106 134 127 62 28 -29 -87 2 vhcurveto
return
            </CharString>
            <CharString index="61">
                -27 callsubr
-143 146 hstemhm
return
            </CharString>
            <CharString index="62">
                12 64 -371 -2 477 564 11 62 rlineto
-442 hlineto
-12 -64 361 2 -479 -564 -10 -62 rlineto
endchar
            </CharString>
            <CharString index="63">
                523 594 -83 callsubr
return
            </CharString>
            <CharString index="64">
                -37 callgsubr
hintmask 10101110
-75 callsubr
hintmask 10011110
-84 callsubr
hintmask 01011110
-39 callgsubr
            </CharString>
            <CharString index="65">
                78 402 rlineto
-67 hlineto
-70 -353 rlineto
return
            </CharString>
            <CharString index="66">
                -21 24 -21 218 56 350 64 return
            </CharString>
            <CharString index="67">
                -62 callsubr
hintmask 11101000
-75 callgsubr
return
            </CharString>
            <CharString index="68">
                -23 -128 41 -45 157 91 rrcurveto
endchar
            </CharString>
            <CharString index="69">
                154 -289 65 136 vvcurveto
67 59 60 82 80 45 -41 -97 14 vhcurveto
return
            </CharString>
            <CharString index="70">
                rmoveto
-35 callgsubr
return
            </CharString>
            <CharString index="71">
                768 -98 callsubr
return
            </CharString>
            <CharString index="72">
                -9 36 -105 -46 -6 23 80 callgsubr
return
            </CharString>
            <CharString index="73">
                79 12 -188 290 rlineto
141 68 80 71 102 vvcurveto
109 -105 76 -277 -36 vhcurveto
return
            </CharString>
            <CharString index="74">
                -29 callsubr
13 callsubr
hintmask 01011100
return
            </CharString>
            <CharString index="75">
                79 78 71 40 47 callgsubr
-44 hvcurveto
-93 -75 -186 -87 vvcurveto
return
            </CharString>
            <CharString index="76">
                -118 141 -45 117 92 vhcurveto
-22 -71 -67 -75 -163 -40 rrcurveto
return
            </CharString>
            <CharString index="77">
                -161 -127 -155 -191 return
            </CharString>
            <CharString index="78">
                605 59 callgsubr
hstem
253 55 181 54 vstem
405 837 -93 callsubr
endchar
            </CharString>
            <CharString index="79">
                24 callsubr
hintmask 01110000
100 callsubr
hintmask 10110000
23 callgsubr
-72 -8 rmoveto
22 callsubr
111 575 36 callsubr
endchar
            </CharString>
            <CharString index="80">
                -70 callsubr
87 callgsubr
return
            </CharString>
            <CharString index="81">
                -117 388 -75 -3 141 -452 -45 -235 rlineto
endchar
            </CharString>
            <CharString index="82">
                91.5 -46 callgsubr
return
            </CharString>
            <CharString index="83">
                524 609 -105 callgsubr
return
            </CharString>
            <CharString index="84">
                790 -88 callsubr
return
            </CharString>
            <CharString index="85">
                630.5 4 callgsubr
151 351 hintmask 01100000
458 634 -62 callsubr
hintmask 10100000
-75 callgsubr
endchar
            </CharString>
            <CharString index="86">
                -158 -62 callgsubr
return
            </CharString>
            <CharString index="87">
                134 688 rlineto
-68 hlineto
-108 -566 rlineto
-6 hlineto
return
            </CharString>
            <CharString index="88">
                rmoveto
-12 37 rlineto
-85 -36 -16 8 33 vvcurveto
return
            </CharString>
            <CharString index="89">
                -11 62 154 43 244 60 return
            </CharString>
            <CharString index="90">
                62 vstem
499 472 -91 callgsubr
return
            </CharString>
            <CharString index="91">
                98 callsubr
199 -21 hstem
176 66 vstem
427 31 rmoveto
-179 -65 -72 -67 -58 64 callgsubr
54 callgsubr
endchar
            </CharString>
            <CharString index="92">
                6 -33 -30 3 -28 hhcurveto
-186 -132 -183 -199 -120 52 -60 69 62 80 50 63 63 hvcurveto
return
            </CharString>
            <CharString index="93">
                rmoveto
298 198 120 170 185 vvcurveto
136 -68 149 -167 178 vhcurveto
-55 -41 rlineto
157 -163 65 -134 -126 vvcurveto
-166 -100 -154 -288 -182 vhcurveto
endchar
            </CharString>
            <CharString index="94">
                -109 -123 -90 -130 -76 -129 rrcurveto
return
            </CharString>
            <CharString index="95">
                7 -75 7 -75 6 -74 rrcurveto
return
            </CharString>
            <CharString index="96">
                -185 -13 callsubr
return
            </CharString>
            <CharString index="97">
                0 122 -101 -21 579 111 -2 68 callsubr
return
            </CharString>
            <CharString index="98">
                46 -92 93 -78 -66 vvcurveto
-55 -51 -40 -251 23 vhcurveto
return
            </CharString>
            <CharString index="99">
                hintmask 10011000
457 -6 rmoveto
hintmask 00111000
78 11 -214 341 328 342 rlineto
-80 hlineto
-331 -341 rlineto
-35 341 rmoveto
hintmask 01011000
38 callsubr
73 hlineto
134 688 rlineto
return
            </CharString>
            <CharString index="100">
                rmoveto
221 hlineto
12 63 rlineto
-515 hlineto
-11 -63 rlineto
220 hlineto
-121 -625 rlineto
73 hlineto
return
            </CharString>
            <CharString index="101">
                0 8 -2 3 -4 -4 -2 -3 48 callgsubr
0 -9 2 -3 4 4 2 3 48 callgsubr
return
            </CharString>
            <CharString index="102">
                321 461 rlineto
-79 hlineto
-263 -386 rlineto
return
            </CharString>
            <CharString index="103">
                -10 34 rlineto
-118 -46 -47 return
            </CharString>
            <CharString index="104">
                -36 callsubr
26 callsubr
return
            </CharString>
            <CharString index="105">
                -133 -688 rlineto
return
            </CharString>
            <CharString index="106">
                -52 callgsubr
hstemhm
8 return
            </CharString>
            <CharString index="107">
                619 206 hstem
122 375 vstem
448 619 -98 callsubr
endchar
            </CharString>
            <CharString index="108">
                hstem
71 71 340 71 vstem
return
            </CharString>
            <CharString index="109">
                -208 125 -91 205 62 vhcurveto
-29 -129 rlineto
return
            </CharString>
            <CharString index="110">
                27 -38 -37 14 -41 hhcurveto
-141 -111 -208 -204 -95 31 -47 51 56 53 45 60 47 hvcurveto
21 -111 89 -41 174 117 rrcurveto
return
            </CharString>
            <CharString index="111">
                37 callsubr
-144 147 hstemhm
return
            </CharString>
            <CharString index="112">
                57 7 55 137 55 return
            </CharString>
            <CharString index="113">
                -68 428 rmoveto
31 17 -22 -36 -79 -71 -85 -125 -19 hvcurveto
119 21 58 122 69 hhcurveto
-343 -434 rmoveto
-26 -15 30 62 hvcurveto
return
            </CharString>
            <CharString index="114">
                631.5 37 callsubr
hstem
259 116 vstem
331 632 -46 callsubr
endchar
            </CharString>
            <CharString index="115">
                53 168 -20 47 -20 21 -20 105 callgsubr
hstemhm
return
            </CharString>
            <CharString index="116">
                -174 -91 -92 4 -9 153 return
            </CharString>
            <CharString index="117">
                rmoveto
59 38 -150 241 246 243 -46 44 -239 -246 -17 -74 rlineto
404 -246 rmoveto
59 36 -147 244 return
            </CharString>
            <CharString index="118">
                26 callgsubr
-46 callgsubr
return
            </CharString>
            <CharString index="119">
                -244 47 219 -21 105 callgsubr
return
            </CharString>
            <CharString index="120">
                -236 53 203 -21 156 50 return
            </CharString>
            <CharString index="121">
                12 callgsubr
100 48 return
            </CharString>
            <CharString index="122">
                -150 -774 rlineto
69 hlineto
67 349 rlineto
92 90 85 45 57 hhcurveto
35 22 -18 -32 -49 -55 -73 -190 -92 hvcurveto
return
            </CharString>
            <CharString index="123">
                hlineto
-12 -58 rlineto
return
            </CharString>
            <CharString index="124">
                -36 callsubr
86 59 callgsubr
88 callsubr
140 55 57 68 56 54 hintmask 0110111111000000
return
            </CharString>
            <CharString index="125">
                -217 -43 rmoveto
241 242 18 74 -145 248 -59 -36 148 -244 -248 -239 rlineto
endchar
            </CharString>
            <CharString index="126">
                9 callsubr
endchar
            </CharString>
            <CharString index="127">
                rmoveto
-8 38 rlineto
-161 -84 -54 33 116 vvcurveto
13 1 14 1 14 vhcurveto
173 23 94 103 113 vvcurveto
return
            </CharString>
            <CharString index="128">
                rmoveto
340 hlineto
12 58 rlineto
-272 hlineto
165 850 rlineto
271 hlineto
13 58 rlineto
-341 hlineto
endchar
            </CharString>
            <CharString index="129">
                -194 -456 78 -78 231 101 rrcurveto
return
            </CharString>
            <CharString index="130">
                356 -47 166 218 253 vvcurveto
return
            </CharString>
            <CharString index="131">
                35 callgsubr
27 -21 627 62 hstemhm
return
            </CharString>
            <CharString index="132">
                -193 -150 -222 -236 return
            </CharString>
            <CharString index="133">
                -20 111.5 return
            </CharString>
            <CharString index="134">
                92.5 return
            </CharString>
            <CharString index="135">
                -14 64 588 64 return
            </CharString>
            <CharString index="136">
                -12 59 446 59 return
            </CharString>
            <CharString index="137">
                359 -16 rmoveto
return
            </CharString>
            <CharString index="138">
                677 60 hstem
127 370 vstem
497 737 -50 callgsubr
endchar
            </CharString>
            <CharString index="139">
                rmoveto
314 246 19 74 -215 255 -52 -48 204 -238 -310 -236 rlineto
endchar
            </CharString>
            <CharString index="140">
                -10 63 -60 60 hstemhm
283 143 20 69 hintmask 10010000
return
            </CharString>
            <CharString index="141">
                -8 64 583 62 hstem
151 73 216 73 vstem
return
            </CharString>
            <CharString index="142">
                15 88 callgsubr
return
            </CharString>
            <CharString index="143">
                83 callsubr
hstem
88 69 vstem
return
            </CharString>
            <CharString index="144">
                -16 52 callgsubr
return
            </CharString>
            <CharString index="145">
                0 58 572 58 return
            </CharString>
            <CharString index="146">
                -11 63 488 -20 return
            </CharString>
            <CharString index="147">
                rmoveto
52 48 -204 237 310 236 -40 54 -314 -247 -19 -74 rlineto
endchar
            </CharString>
            <CharString index="148">
                91 -123 103 -30 92 vhcurveto
return
            </CharString>
            <CharString index="149">
                hhcurveto
71 13 -77 -108 -96 hvcurveto
29 -18 rlineto
148 149 -26 127 -116 hhcurveto
return
            </CharString>
            <CharString index="150">
                rmoveto
44 callgsubr
            </CharString>
            <CharString index="151">
                -39 callsubr
endchar
            </CharString>
            <CharString index="152">
                0 9 7 6 9 9 7 -6 48 callgsubr
return
            </CharString>
            <CharString index="153">
                51 338 54 hstem
return
            </CharString>
            <CharString index="154">
                52 hhcurveto
40 19 -24 return
            </CharString>
            <CharString index="155">
                0 hflex1
return
            </CharString>
            <CharString index="156">
                -6 34 31 -3 28 hhcurveto
189 134 183 199 120 -54 61 -69 return
            </CharString>
            <CharString index="157">
                29 callsubr
440 59 -9 -20 258 -20 hstemhm
68 69 257 66 return
            </CharString>
            <CharString index="158">
                38 callgsubr
hstem
52 539 vstem
return
            </CharString>
            <CharString index="159">
                65 639 -20 return
            </CharString>
            <CharString index="160">
                -12 59 -31 -21 498 59 -11 -20 hstemhm
71 70 342 70 hintmask 10101100
return
            </CharString>
            <CharString index="161">
                -4 callgsubr
21 37 vvcurveto
40 61 48 147 52 vhcurveto
return
            </CharString>
            <CharString index="162">
                21 -21 688 68 callsubr
return
            </CharString>
            <CharString index="163">
                -43 158 82 vhcurveto
return
            </CharString>
            <CharString index="164">
                vstem
391 371 rmoveto
23 callsubr
return
            </CharString>
            <CharString index="165">
                50 25 callsubr
return
            </CharString>
            <CharString index="166">
                45 141 46 return
            </CharString>
            <CharString index="167">
                55 callsubr
hstem
101 callsubr
53 71 vstem
return
            </CharString>
            <CharString index="168">
                248 240 -46 45 -240 -243 -18 -74 rlineto
endchar
            </CharString>
            <CharString index="169">
                -75 -93 -96 rlinecurve
endchar
            </CharString>
            <CharString index="170">
                405 634 rmoveto
43 146 -80 -3 -34 -147 rlineto
return
            </CharString>
            <CharString index="171">
                vvcurveto
-65 84 -43 157 82 vhcurveto
return
            </CharString>
            <CharString index="172">
                63 -44 44 588 65 return
            </CharString>
            <CharString index="173">
                hstemhm
390 73 2 75 return
            </CharString>
            <CharString index="174">
                58 241 58 vstem
return
            </CharString>
            <CharString index="175">
                56 213 54 return
            </CharString>
            <CharString index="176">
                28 -17 117 96 49 90 5 136 rlinecurve
-104 -3 return
            </CharString>
            <CharString index="177">
                576 38 -19 callgsubr
return
            </CharString>
            <CharString index="178">
                10 hlineto
0 6 -1 3 -4 -3 -2 -2 48 callgsubr
return
            </CharString>
            <CharString index="179">
                0 62 150 55 55 54 251 61 hstem
-10 return
            </CharString>
            <CharString index="180">
                rlineto
87 78 73 43 47 callgsubr
-43 hvcurveto
return
            </CharString>
            <CharString index="181">
                56.5 359.5 72 hstem
return
            </CharString>
            <CharString index="182">
                hintmask 010000000000000000000000000000000000000000000000
return
            </CharString>
            <CharString index="183">
                hstem
91 70 325 64 vstem
return
            </CharString>
            <CharString index="184">
                53 182 -20 176 50 return
            </CharString>
            <CharString index="185">
                47 186 42 return
            </CharString>
            <CharString index="186">
                rrcurveto
-215 return
            </CharString>
            <CharString index="187">
                17 85 rlinecurve
return
            </CharString>
            <CharString index="188">
                -19 237 -68 -2 -70 -361 rlineto
48 hlineto
return
            </CharString>
            <CharString index="189">
                -49 vvcurveto
-65 83 56 callgsubr
endchar
            </CharString>
            <CharString index="190">
                41 186 47 hstem
return
            </CharString>
            <CharString index="191">
                -11 61 440 61 return
            </CharString>
            <CharString index="192">
                hstemhm
128 534 return
            </CharString>
            <CharString index="193">
                54 213 56 vstem
return
            </CharString>
            <CharString index="194">
                -8 -54 rlineto
return
            </CharString>
            <CharString index="195">
                -21 27 -21 return
            </CharString>
            <CharString index="196">
                64 -34 40 -62 -37 -36 -16 -28 -31 vhcurveto
return
            </CharString>
            <CharString index="197">
                268 48 rmoveto
-30 -41 7 12 -45 hvcurveto
return
            </CharString>
            <CharString index="198">
                75 -85 114 176 133 221 return
            </CharString>
            <CharString index="199">
                21 -21 625 63 hstem
return
            </CharString>
            <CharString index="200">
                hlineto
-10 -56 rlineto
return
            </CharString>
            <CharString index="201">
                rlineto
-170 return
            </CharString>
            <CharString index="202">
                70 33 65 -34 68 -24 65 hintmask 11100000
return
            </CharString>
            <CharString index="203">
                -243 78 callgsubr
282 48 return
            </CharString>
            <CharString index="204">
                131 20 74 93 96 rlinecurve
endchar
            </CharString>
            <CharString index="205">
                55 65 55 return
            </CharString>
            <CharString index="206">
                vhcurveto
hintmask 01110000
-9 -68 rlineto
hintmask 10110000
return
            </CharString>
            <CharString index="207">
                -56 -41 -44 -46 -37 hhcurveto
endchar
            </CharString>
            <CharString index="208">
                hlineto
-54 -312 rlineto
return
            </CharString>
            <CharString index="209">
                hstemhm
89 522 return
            </CharString>
            <CharString index="210">
                5 137 rlinecurve
return
            </CharString>
            <CharString index="211">
                641 rmoveto
return
            </CharString>
            <CharString index="212">
                163 50 return
            </CharString>
</ttFont>
